<svg width="541" height="152" viewBox="0 0 541 152" fill="none" xmlns="http://www.w3.org/2000/svg">
<path d="M199.435 140.233L199.445 150.234H209.436V140.233H199.435Z" fill="black"/>
<path d="M183.344 140.233L183.354 150.234H193.345V140.233H183.344Z" fill="black"/>
<path d="M214.888 130L214.898 140.001H224.899V130H214.888Z" fill="black"/>
<path d="M166.888 130L166.898 140.001H176.899V130H166.888Z" fill="black"/>
<path d="M160.889 150.011H150.898L150.888 140H160.889V150.011Z" fill="black"/>
<path d="M119 130.222L119.01 140.223H129.001V130.222H119Z" fill="black"/>
<path d="M146.092 140.233H136.091L136.081 130.222H146.092V140.233Z" fill="black"/>
<path fill-rule="evenodd" clip-rule="evenodd" d="M169.041 96.8281C169.932 95.673 170.611 94.3354 171.057 92.8662C171.503 91.3868 171.736 89.8871 171.756 88.4178C171.756 86.9485 171.523 85.4691 171.077 84.0201C170.632 82.5711 169.953 81.2538 169.061 80.0987C168.169 78.9435 167.024 78.0113 165.666 77.302C164.299 76.5927 162.677 76.238 160.843 76.238C159.121 76.238 157.55 76.613 156.192 77.3425C154.824 78.0721 153.639 79.0347 152.666 80.1899C151.693 81.345 150.953 82.6826 150.447 84.1519C149.95 85.6211 149.697 87.1107 149.697 88.5901C149.697 90.0695 149.95 91.5489 150.447 92.9878C150.943 94.4368 151.693 95.754 152.666 96.9092C153.629 98.0644 154.814 99.0067 156.182 99.716C157.54 100.425 159.1 100.78 160.833 100.78C162.667 100.78 164.288 100.405 165.646 99.6755C167.004 98.9358 168.149 97.9833 169.041 96.8281ZM170.632 69.5807C172.942 70.6244 174.958 72.0836 176.63 73.9176C178.292 75.7517 179.599 77.9302 180.511 80.3925C181.423 82.865 181.889 85.5603 181.889 88.4077C181.889 91.255 181.433 93.9605 180.552 96.4634C179.66 98.9662 178.383 101.175 176.742 103.029C175.1 104.884 173.084 106.394 170.743 107.488C168.392 108.592 165.707 109.15 162.748 109.15C160.002 109.15 157.449 108.582 155.159 107.447C152.97 106.373 151.237 104.894 150.001 103.07V118.138H140V69.1247H149.596V74.4445C150.072 73.7352 150.68 73.0056 151.42 72.2659C152.21 71.4857 153.183 70.7764 154.318 70.1482C155.442 69.5301 156.739 69.0133 158.168 68.608C159.597 68.2026 161.228 68 163.002 68C165.748 68 168.311 68.5269 170.632 69.5807Z" fill="black"/>
<path fill-rule="evenodd" clip-rule="evenodd" d="M318.041 96.8281C318.932 95.673 319.611 94.3354 320.057 92.8662C320.503 91.3868 320.736 89.8871 320.756 88.4178C320.756 86.9485 320.523 85.4691 320.077 84.0201C319.632 82.5711 318.953 81.2538 318.061 80.0987C317.169 78.9435 316.024 78.0113 314.666 77.302C313.299 76.5927 311.677 76.238 309.843 76.238C308.121 76.238 306.55 76.613 305.192 77.3425C303.824 78.0721 302.639 79.0347 301.666 80.1899C300.693 81.345 299.953 82.6826 299.447 84.1519C298.95 85.6211 298.697 87.1107 298.697 88.5901C298.697 90.0695 298.95 91.5489 299.447 92.9878C299.943 94.4368 300.693 95.754 301.666 96.9092C302.629 98.0644 303.814 99.0067 305.182 99.716C306.54 100.425 308.1 100.78 309.833 100.78C311.667 100.78 313.288 100.405 314.646 99.6755C316.004 98.9358 317.149 97.9833 318.041 96.8281ZM319.632 69.5807C321.942 70.6244 323.958 72.0836 325.63 73.9176C327.292 75.7517 328.599 77.9302 329.511 80.3925C330.423 82.865 330.889 85.5603 330.889 88.4077C330.889 91.255 330.433 93.9605 329.552 96.4634C328.66 98.9662 327.383 101.175 325.742 103.029C324.1 104.884 322.084 106.394 319.743 107.488C317.392 108.592 314.707 109.15 311.748 109.15C309.002 109.15 306.449 108.582 304.159 107.447C301.97 106.373 300.237 104.894 299.001 103.07V118.138H289V69.1247H298.596V74.4445C299.072 73.7352 299.68 73.0056 300.42 72.2659C301.21 71.4857 302.183 70.7764 303.318 70.1482C304.442 69.5301 305.739 69.0133 307.168 68.608C308.597 68.2026 310.228 68 312.002 68C314.748 68 317.311 68.5269 319.632 69.5807Z" fill="black"/>
<path d="M540.662 9.3238V5.1686H535.595V0H530.527V5.1686H527.082V9.3238H530.527V18.5462C530.527 19.5597 530.629 20.4718 530.831 21.2826C531.034 22.0933 531.338 22.9041 531.845 23.6135C532.352 24.3229 533.061 24.8297 533.872 25.1337C534.683 25.5391 535.797 25.7418 537.115 25.7418C537.723 25.7418 538.23 25.6404 538.838 25.6404C539.446 25.5391 539.953 25.4377 540.459 25.235H540.561L540.358 21.0799L540.257 21.1812C539.953 21.2826 539.649 21.3839 539.243 21.4852C538.838 21.5866 538.534 21.5866 538.128 21.5866C537.014 21.5866 536.405 21.2826 536.101 20.7758C535.797 20.1678 535.595 19.4583 535.595 18.6476V9.3238H540.662Z" fill="black"/>
<path d="M447.221 13.1749C447.323 11.8574 447.931 10.7426 448.944 9.8305C449.958 8.9184 451.275 8.513 452.694 8.513C453.505 8.513 454.214 8.6143 454.721 8.9184C455.329 9.2224 455.836 9.5264 456.14 9.9318C456.545 10.3372 456.748 10.8439 456.95 11.452C457.153 11.9587 457.255 12.5668 457.255 13.1749H447.221ZM459.687 7.2968C458.775 6.3847 457.761 5.6753 456.545 5.2699C455.329 4.7632 454.011 4.5605 452.694 4.5605C451.174 4.5605 449.755 4.8645 448.437 5.3713C447.12 5.878 446.005 6.5874 445.093 7.6009C444.181 8.513 443.37 9.6278 442.863 11.0466C442.357 12.3641 442.053 13.8843 442.053 15.5058C442.053 17.1274 442.357 18.6476 442.863 19.9651C443.37 21.2825 444.181 22.3973 445.093 23.3095C446.107 24.2216 447.221 24.931 448.539 25.3364C449.856 25.8431 451.275 26.0458 452.897 26.0458C456.646 26.0458 459.585 24.7283 461.511 21.992L461.612 21.8906L458.167 19.1543L458.065 19.2556C457.559 20.0664 456.849 20.6745 455.937 21.0799C455.126 21.4852 454.011 21.7893 452.795 21.7893C452.086 21.7893 451.376 21.6879 450.768 21.3839C450.16 21.1812 449.552 20.7758 449.046 20.3704C448.539 19.9651 448.133 19.4583 447.829 18.8503C447.525 18.3435 447.323 17.6341 447.323 17.026H462.525V16.9247C462.525 16.722 462.525 16.5193 462.525 16.2153V15.5058C462.525 13.6816 462.322 12.0601 461.815 10.7426C461.207 9.4251 460.599 8.209 459.687 7.2968Z" fill="black"/>
<path d="M429.689 10.9453C430.094 10.3372 430.702 9.8305 431.411 9.5265C432.121 9.1211 432.932 9.0197 433.742 9.0197C434.553 9.0197 435.263 9.2224 436.073 9.5265C436.783 9.9318 437.391 10.3372 437.796 10.8439L437.898 10.9453L441.343 7.9049L441.445 7.8036L441.343 7.7022C440.533 6.6888 439.418 5.9793 437.999 5.3713C436.58 4.8645 435.161 4.5605 433.742 4.5605C432.222 4.5605 430.905 4.7632 429.587 5.2699C428.27 5.7767 427.155 6.4861 426.141 7.3982C425.128 8.3103 424.419 9.4251 423.81 10.7426C423.202 12.0601 423 13.5803 423 15.1005C423 16.722 423.304 18.2422 423.81 19.5597C424.419 20.8772 425.128 21.992 426.141 22.9041C427.155 23.8162 428.27 24.5256 429.587 25.0323C430.905 25.5391 432.324 25.7418 433.844 25.7418C435.364 25.7418 436.783 25.5391 438.1 25.0323C439.418 24.5256 440.431 23.8162 441.343 22.9041L441.445 22.8027L438.303 19.5597L438.202 19.4583L438.1 19.5597C437.593 20.1677 436.985 20.5731 436.276 20.8772C435.567 21.1812 434.756 21.2825 433.945 21.2825C433.033 21.2825 432.222 21.0799 431.513 20.7758C430.803 20.3704 430.195 19.9651 429.79 19.357C429.283 18.7489 428.979 18.0395 428.776 17.3301C428.574 16.6206 428.472 15.8099 428.472 14.9991C428.472 14.1883 428.574 13.4789 428.776 12.6682C428.979 12.2628 429.283 11.5534 429.689 10.9453Z" fill="black"/>
<path d="M500.732 7.0942C500.124 6.3847 499.313 5.6753 498.401 5.2699C497.489 4.7632 496.273 4.5605 495.056 4.5605C493.536 4.5605 492.219 4.9659 491.104 5.6753C490.09 6.3847 489.28 7.1955 488.874 8.1076V5.0672H483.908V25.235H489.077V14.2897C489.077 13.6816 489.178 12.9722 489.381 12.3641C489.584 11.7561 489.888 11.148 490.192 10.6413C490.597 10.1345 491.003 9.7291 491.611 9.4251C492.219 9.1211 492.827 8.9184 493.638 8.9184C494.448 8.9184 495.056 9.1211 495.563 9.4251C496.07 9.7291 496.374 10.1345 496.678 10.6413C496.982 11.148 497.083 11.7561 497.185 12.3641C497.286 12.9722 497.286 13.5803 497.286 14.1884V25.3364H502.455V12.7695C502.455 11.7561 502.353 10.7426 502.049 9.7291C501.745 8.7157 501.34 7.9049 500.732 7.0942Z" fill="black"/>
<path d="M471.24 9.0197C471.848 8.7157 472.659 8.513 473.368 8.513C474.281 8.513 475.091 8.7157 475.902 9.1211C476.612 9.5264 477.22 10.0332 477.726 10.6413L477.828 10.7426L481.172 7.7022L481.071 7.6009C480.26 6.5874 479.145 5.7767 477.726 5.2699C476.308 4.7632 474.889 4.5605 473.47 4.5605C472.456 4.5605 471.443 4.6619 470.531 4.9659C469.619 5.1686 468.707 5.574 467.997 6.0807C467.288 6.5874 466.578 7.2968 466.173 8.1076C465.666 8.9184 465.464 9.9318 465.464 11.0466C465.464 11.9587 465.666 12.7695 465.97 13.4789C466.274 14.087 466.781 14.6951 467.288 15.1005C467.896 15.5058 468.504 15.9112 469.213 16.1139C469.923 16.418 470.632 16.6206 471.443 16.722C472.963 17.1274 474.078 17.4314 474.889 17.8368C475.598 18.1408 476.003 18.7489 476.003 19.5597C476.003 19.9651 475.902 20.3704 475.699 20.6745C475.497 20.9785 475.294 21.1812 474.99 21.3839C474.686 21.5866 474.382 21.6879 473.977 21.7893C473.571 21.8906 473.267 21.8906 472.862 21.8906C471.848 21.8906 470.835 21.6879 469.923 21.1812C469.011 20.6745 468.301 20.1677 467.794 19.4583L467.693 19.357L464.247 22.6L464.349 22.7014C465.362 23.7148 466.578 24.627 467.997 25.1337C469.517 25.7418 471.038 25.9444 472.558 25.9444C473.673 25.9444 474.686 25.8431 475.699 25.6404C476.713 25.4377 477.625 25.0323 478.436 24.5256C479.247 24.0189 479.855 23.3095 480.26 22.3974C480.767 21.5866 480.969 20.4718 480.969 19.2556C480.969 18.2422 480.767 17.4314 480.361 16.722C479.956 16.0126 479.449 15.4045 478.841 14.9991C478.233 14.4924 477.524 14.1883 476.713 13.8843C475.902 13.5803 475.193 13.3776 474.483 13.1749C473.064 12.8709 472.051 12.5668 471.24 12.1614C470.531 11.8574 470.227 11.3507 470.227 10.6413C470.227 9.8305 470.531 9.3238 471.24 9.0197Z" fill="black"/>
<path d="M510.461 13.1749C510.562 11.8574 511.17 10.7426 512.184 9.8305C513.197 8.9184 514.515 8.513 515.934 8.513C516.744 8.513 517.454 8.6143 517.961 8.9184C518.569 9.2224 519.075 9.5264 519.379 9.9318C519.785 10.3372 519.987 10.8439 520.19 11.452C520.393 11.9587 520.494 12.5668 520.494 13.1749H510.461ZM522.927 7.2968C522.014 6.3847 521.001 5.6753 519.785 5.2699C518.569 4.7632 517.251 4.5605 515.934 4.5605C514.413 4.5605 512.995 4.8645 511.677 5.3713C510.36 5.878 509.245 6.5874 508.333 7.6009C507.421 8.513 506.61 9.6278 506.103 11.0466C505.596 12.3641 505.292 13.8843 505.292 15.5058C505.292 17.1274 505.596 18.6476 506.103 19.9651C506.61 21.2825 507.421 22.3973 508.333 23.3095C509.245 24.2216 510.461 24.931 511.778 25.3364C513.096 25.8431 514.515 26.0458 516.136 26.0458C519.886 26.0458 522.825 24.7283 524.751 21.992L524.852 21.8906L521.406 19.1543L521.305 19.2556C520.798 20.0664 520.089 20.6745 519.177 21.0799C518.366 21.4852 517.251 21.7893 516.035 21.7893C515.326 21.7893 514.616 21.6879 514.008 21.3839C513.4 21.1812 512.792 20.7758 512.285 20.3704C511.778 19.9651 511.373 19.4583 511.069 18.8503C510.765 18.3435 510.562 17.6341 510.562 17.026H525.764V16.9247C525.764 16.722 525.764 16.5193 525.764 16.2153V15.5058C525.764 13.6816 525.561 12.0601 525.055 10.7426C524.447 9.4251 523.839 8.209 522.927 7.2968Z" fill="black"/>
<path d="M118.88 110V69.68H128.96V110H118.88ZM117.452 55.988C117.452 52.796 120.14 49.94 123.836 49.94C127.532 49.94 130.388 52.544 130.388 55.988C130.388 59.432 127.532 62.036 123.836 62.036C120.14 62.036 117.452 59.18 117.452 55.988Z" fill="black"/>
<path d="M197.054 110V78.248H188.738V69.68H197.054V63.968C197.054 52.796 199.574 45.488 212.09 45.488C214.274 45.488 216.374 45.656 218.474 46.076L217.802 54.644C216.374 54.308 215.03 54.056 213.602 54.056C207.974 54.056 207.134 57.92 207.134 62.372V69.68H216.458V78.248H207.134V110H197.054ZM223.01 110V69.68H233.09V110H223.01ZM221.666 55.988C221.666 52.796 224.354 49.94 228.05 49.94C231.746 49.94 234.602 52.544 234.602 55.988C234.602 59.432 231.746 62.036 228.05 62.036C224.354 62.036 221.666 59.18 221.666 55.988Z" fill="black"/>
<path d="M237.439 110L253.651 88.328L239.707 69.68H251.971L260.035 81.776L268.771 69.68H280.279L266.503 88.328L282.715 110H270.451L259.951 95.552L249.367 110H237.439Z" fill="black"/>
<path d="M341.263 110V69.68H351.343V76.064H351.511C353.695 71.444 358.147 68.672 363.439 68.672C364.699 68.672 365.875 68.924 367.051 69.26V79.004C365.371 78.584 363.775 78.248 362.179 78.248C352.687 78.248 351.343 86.228 351.343 88.412V110H341.263Z" fill="black"/>
<path d="M370.419 89.84C370.419 77.156 380.163 68.672 392.343 68.672C404.523 68.672 414.267 77.156 414.267 89.84C414.267 102.524 404.523 111.008 392.343 111.008C380.163 111.008 370.419 102.524 370.419 89.84ZM380.499 89.84C380.499 96.14 384.951 101.936 392.343 101.936C399.735 101.936 404.187 96.14 404.187 89.84C404.187 83.54 399.735 77.744 392.343 77.744C384.951 77.744 380.499 83.54 380.499 89.84Z" fill="black"/>
<path d="M423.704 110V46.496H433.784V74.804H434.036C436.136 72.2 440.168 68.672 447.728 68.672C459.236 68.672 467.216 77.912 467.216 89.84C467.216 101.768 459.74 111.008 447.308 111.008C441.68 111.008 436.388 108.824 433.448 103.952H433.28V110H423.704ZM457.136 89.84C457.136 83.54 452.684 77.744 445.292 77.744C437.9 77.744 433.448 83.54 433.448 89.84C433.448 96.14 437.9 101.936 445.292 101.936C452.684 101.936 457.136 96.14 457.136 89.84Z" fill="black"/>
<path d="M515.422 93.368H484.678C485.35 99.332 489.886 102.944 495.514 102.944C500.554 102.944 503.83 100.592 506.35 97.484L513.574 102.944C508.87 108.74 502.906 111.008 496.522 111.008C484.342 111.008 474.598 102.524 474.598 89.84C474.598 77.156 484.342 68.672 496.522 68.672C507.778 68.672 515.422 76.568 515.422 90.596V93.368ZM484.678 85.808H505.342C505.258 79.928 501.394 76.232 495.094 76.232C489.13 76.232 485.434 80.012 484.678 85.808Z" fill="black"/>
<path d="M33.1047 34.7534C33.1047 36.0326 32.904 36.9721 32.5028 37.5718C32.1047 38.1684 31.4852 38.4667 30.6445 38.4667C29.791 38.4667 29.1667 38.1636 28.7718 37.5575C28.3801 36.9514 28.1842 36.0198 28.1842 34.763C28.1842 33.4965 28.3833 32.5618 28.7814 31.9589C29.1795 31.3527 29.8005 31.0497 30.6445 31.0497C31.498 31.0497 32.1206 31.3575 32.5123 31.9732C32.9072 32.5857 33.1047 33.5124 33.1047 34.7534ZM31.8483 36.9258C31.9597 36.6674 32.0346 36.3644 32.0728 36.0167C32.1144 35.6658 32.1352 35.2447 32.1352 34.7534C32.1352 34.2685 32.1144 33.8474 32.0728 33.4901C32.0345 33.1328 31.958 32.8297 31.8435 32.5809C31.732 32.3353 31.5792 32.1503 31.3849 32.0258C31.1938 31.9014 30.947 31.8392 30.6444 31.8392C30.345 31.8392 30.0967 31.9014 29.8992 32.0258C29.7049 32.1502 29.5505 32.3384 29.4358 32.5904C29.3275 32.8265 29.2527 33.1344 29.2113 33.514C29.1729 33.8936 29.1538 34.3099 29.1538 34.7629C29.1538 35.2606 29.1713 35.6769 29.2064 36.0118C29.2416 36.3468 29.3164 36.6467 29.4309 36.9114C29.536 37.1602 29.6841 37.35 29.8752 37.4808C30.0695 37.6116 30.3258 37.677 30.6443 37.677C30.9437 37.677 31.1921 37.6148 31.3896 37.4904C31.587 37.366 31.74 37.1778 31.8483 36.9258Z" fill="black"/>
<path d="M38.9375 38.3183H35.0872V37.591H36.5681V32.8154H35.0872V32.1646C35.2878 32.1646 35.5028 32.1486 35.7321 32.1167C35.9614 32.0815 36.135 32.032 36.2528 31.9683C36.3993 31.8886 36.5139 31.788 36.5968 31.6668C36.6827 31.5424 36.7321 31.3765 36.7448 31.1692H37.4853V37.5909H38.9375V38.3183Z" fill="black"/>
<path d="M45.5633 34.7534C45.5633 36.0326 45.3627 36.9721 44.9614 37.5718C44.5633 38.1684 43.9438 38.4667 43.1031 38.4667C42.2496 38.4667 41.6254 38.1636 41.2304 37.5575C40.8387 36.9514 40.6428 36.0198 40.6428 34.763C40.6428 33.4965 40.8419 32.5618 41.24 31.9589C41.6381 31.3527 42.2591 31.0497 43.1031 31.0497C43.9566 31.0497 44.5792 31.3575 44.9709 31.9732C45.3658 32.5857 45.5633 33.5124 45.5633 34.7534ZM44.3069 36.9258C44.4184 36.6674 44.4932 36.3644 44.5314 36.0167C44.573 35.6658 44.5938 35.2447 44.5938 34.7534C44.5938 34.2685 44.573 33.8474 44.5314 33.4901C44.4931 33.1328 44.4166 32.8297 44.3021 32.5809C44.1907 32.3353 44.0378 32.1503 43.8435 32.0258C43.6524 31.9014 43.4056 31.8392 43.1031 31.8392C42.8037 31.8392 42.5553 31.9014 42.3578 32.0258C42.1635 32.1502 42.0091 32.3384 41.8945 32.5904C41.7862 32.8265 41.7113 33.1344 41.67 33.514C41.6316 33.8936 41.6125 34.3099 41.6125 34.7629C41.6125 35.2606 41.63 35.6769 41.6651 36.0118C41.7003 36.3468 41.7751 36.6467 41.8896 36.9114C41.9947 37.1602 42.1428 37.35 42.3339 37.4808C42.5282 37.6116 42.7845 37.677 43.103 37.677C43.4024 37.677 43.6508 37.6148 43.8482 37.4904C44.0457 37.366 44.1986 37.1778 44.3069 36.9258Z" fill="black"/>
<path d="M51.3961 38.3183H47.5458V37.591H49.0267V32.8154H47.5458V32.1646C47.7464 32.1646 47.9614 32.1486 48.1908 32.1167C48.4201 32.0815 48.5936 32.032 48.7114 31.9683C48.8579 31.8886 48.9726 31.788 49.0554 31.6668C49.1414 31.5424 49.1907 31.3765 49.2034 31.1692H49.9439V37.5909H51.3961V38.3183Z" fill="black"/>
<path d="M58.022 34.7534C58.022 36.0326 57.8213 36.9721 57.42 37.5718C57.0219 38.1684 56.4025 38.4667 55.5617 38.4667C54.7082 38.4667 54.084 38.1636 53.6891 37.5575C53.2974 36.9514 53.1015 36.0198 53.1015 34.763C53.1015 33.4965 53.3006 32.5618 53.6987 31.9589C54.0968 31.3527 54.7178 31.0497 55.5617 31.0497C56.4152 31.0497 57.0379 31.3575 57.4296 31.9732C57.8245 32.5857 58.022 33.5124 58.022 34.7534ZM56.7656 36.9258C56.877 36.6674 56.9519 36.3644 56.9901 36.0167C57.0317 35.6658 57.0525 35.2447 57.0525 34.7534C57.0525 34.2685 57.0317 33.8474 56.9901 33.4901C56.9517 33.1328 56.8753 32.8297 56.7608 32.5809C56.6493 32.3353 56.4964 32.1503 56.3022 32.0258C56.1111 31.9014 55.8643 31.8392 55.5617 31.8392C55.2624 31.8392 55.0139 31.9014 54.8165 32.0258C54.6222 32.1502 54.4678 32.3384 54.3532 32.5904C54.2449 32.8265 54.17 33.1344 54.1287 33.514C54.0903 33.8936 54.0711 34.3099 54.0711 34.7629C54.0711 35.2606 54.0887 35.6769 54.1238 36.0118C54.1589 36.3468 54.2338 36.6467 54.3483 36.9114C54.4534 37.1602 54.6015 37.35 54.7926 37.4808C54.9868 37.6116 55.2432 37.677 55.5617 37.677C55.861 37.677 56.1095 37.6148 56.3069 37.4904C56.5044 37.366 56.6573 37.1778 56.7656 36.9258Z" fill="black"/>
<path d="M63.8548 38.3183H60.0045V37.591H61.4853V32.8154H60.0045V32.1646C60.2051 32.1646 60.4201 32.1486 60.6494 32.1167C60.8787 32.0815 61.0522 32.032 61.17 31.9683C61.3165 31.8886 61.4312 31.788 61.514 31.6668C61.6 31.5424 61.6494 31.3765 61.6621 31.1692H62.4026V37.5909H63.8548V38.3183Z" fill="black"/>
<path d="M24.7591 48.1183H20.9088V47.391H22.3897V42.6154H20.9088V41.9646C21.1094 41.9646 21.3244 41.9486 21.5537 41.9167C21.783 41.8815 21.9566 41.832 22.0744 41.7683C22.2209 41.6885 22.3355 41.588 22.4183 41.4668C22.5043 41.3424 22.5537 41.1765 22.5664 40.9692H23.3069V47.3908H24.7591V48.1183Z" fill="black"/>
<path d="M30.9884 48.1183H27.1381V47.391H28.619V42.6154H27.1381V41.9646C27.3387 41.9646 27.5537 41.9486 27.783 41.9167C28.0123 41.8815 28.1858 41.832 28.3037 41.7683C28.4502 41.6885 28.5649 41.588 28.6476 41.4668C28.7336 41.3424 28.783 41.1765 28.7957 40.9692H29.5362V47.3908H30.9884V48.1183Z" fill="black"/>
<path d="M37.2178 48.1183H33.3674V47.391H34.8483V42.6154H33.3674V41.9646C33.568 41.9646 33.7831 41.9486 34.0124 41.9167C34.2417 41.8815 34.4152 41.832 34.533 41.7683C34.6795 41.6885 34.7942 41.588 34.877 41.4668C34.963 41.3424 35.0123 41.1765 35.0251 40.9692H35.7655V47.3908H37.2178V48.1183Z" fill="black"/>
<path d="M43.8435 44.5534C43.8435 45.8326 43.6429 46.7721 43.2416 47.3718C42.8435 47.9684 42.2241 48.2666 41.3833 48.2666C40.5298 48.2666 39.9056 47.9636 39.5107 47.3575C39.119 46.7513 38.9231 45.8198 38.9231 44.5629C38.9231 43.2965 39.1222 42.3618 39.5203 41.7588C39.9184 41.1527 40.5394 40.8497 41.3833 40.8497C42.2368 40.8497 42.8595 41.1575 43.2512 41.7732C43.6461 42.3857 43.8435 43.3124 43.8435 44.5534ZM42.5872 46.7258C42.6986 46.4674 42.7735 46.1644 42.8117 45.8166C42.8533 45.4657 42.8741 45.0446 42.8741 44.5534C42.8741 44.0685 42.8533 43.6474 42.8117 43.2901C42.7733 42.9328 42.6969 42.6297 42.5824 42.3809C42.4709 42.1353 42.318 41.9503 42.1238 41.8258C41.9327 41.7014 41.6859 41.6392 41.3833 41.6392C41.084 41.6392 40.8355 41.7014 40.6381 41.8258C40.4438 41.9502 40.2893 42.1384 40.1747 42.3904C40.0664 42.6265 39.9916 42.9343 39.9502 43.314C39.9119 43.6936 39.8927 44.1099 39.8927 44.5629C39.8927 45.0605 39.9103 45.4768 39.9454 45.8118C39.9805 46.1468 40.0554 46.4466 40.1699 46.7114C40.275 46.9602 40.4231 47.15 40.6142 47.2808C40.8084 47.4116 41.0648 47.477 41.3833 47.477C41.6827 47.477 41.931 47.4148 42.1285 47.2904C42.3259 47.166 42.4789 46.9778 42.5872 46.7258Z" fill="black"/>
<path d="M49.6764 48.1183H45.826V47.391H47.3069V42.6154H45.826V41.9646C46.0267 41.9646 46.2417 41.9486 46.471 41.9167C46.7003 41.8815 46.8738 41.832 46.9916 41.7683C47.1381 41.6885 47.2528 41.588 47.3356 41.4668C47.4216 41.3424 47.4709 41.1765 47.4837 40.9692H48.2242V47.3908H49.6764V48.1183Z" fill="black"/>
<path d="M56.3022 44.5534C56.3022 45.8326 56.1016 46.7721 55.7003 47.3718C55.3022 47.9684 54.6827 48.2666 53.842 48.2666C52.9885 48.2666 52.3642 47.9636 51.9693 47.3575C51.5776 46.7513 51.3818 45.8198 51.3818 44.5629C51.3818 43.2965 51.5808 42.3618 51.9789 41.7588C52.377 41.1527 52.998 40.8497 53.842 40.8497C54.6955 40.8497 55.3181 41.1575 55.7098 41.7732C56.1047 42.3857 56.3022 43.3124 56.3022 44.5534ZM55.0458 46.7258C55.1573 46.4674 55.2321 46.1644 55.2703 45.8166C55.3119 45.4657 55.3327 45.0446 55.3327 44.5534C55.3327 44.0685 55.3119 43.6474 55.2703 43.2901C55.232 42.9328 55.1555 42.6297 55.041 42.3809C54.9295 42.1353 54.7767 41.9503 54.5824 41.8258C54.3913 41.7014 54.1445 41.6392 53.842 41.6392C53.5426 41.6392 53.2942 41.7014 53.0967 41.8258C52.9024 41.9502 52.748 42.1384 52.6334 42.3904C52.5251 42.6265 52.4503 42.9343 52.4089 43.314C52.3705 43.6936 52.3514 44.1099 52.3514 44.5629C52.3514 45.0605 52.3689 45.4768 52.404 45.8118C52.4392 46.1468 52.514 46.4466 52.6285 46.7114C52.7336 46.9602 52.8817 47.15 53.0728 47.2808C53.2671 47.4116 53.5234 47.477 53.8419 47.477C54.1413 47.477 54.3897 47.4148 54.5872 47.2904C54.7846 47.166 54.9375 46.9778 55.0458 46.7258Z" fill="black"/>
<path d="M62.1351 48.1183H58.2848V47.391H59.7656V42.6154H58.2848V41.9646C58.4854 41.9646 58.7004 41.9486 58.9297 41.9167C59.159 41.8815 59.3326 41.832 59.4504 41.7683C59.5969 41.6885 59.7115 41.588 59.7943 41.4668C59.8803 41.3424 59.9297 41.1765 59.9424 40.9692H60.6829V47.3908H62.1351L62.1351 48.1183Z" fill="black"/>
<path d="M68.761 44.5534C68.761 45.8326 68.5603 46.7721 68.159 47.3718C67.7609 47.9684 67.1415 48.2666 66.3007 48.2666C65.4472 48.2666 64.823 47.9636 64.4281 47.3575C64.0364 46.7513 63.8405 45.8198 63.8405 44.5629C63.8405 43.2965 64.0396 42.3618 64.4377 41.7588C64.8358 41.1527 65.4568 40.8497 66.3007 40.8497C67.1542 40.8497 67.7769 41.1575 68.1686 41.7732C68.5635 42.3857 68.761 43.3124 68.761 44.5534ZM67.5046 46.7258C67.6161 46.4674 67.6909 46.1644 67.7291 45.8166C67.7707 45.4657 67.7915 45.0446 67.7915 44.5534C67.7915 44.0685 67.7707 43.6474 67.7291 43.2901C67.6907 42.9328 67.6143 42.6297 67.4998 42.3809C67.3883 42.1353 67.2354 41.9503 67.0412 41.8258C66.8501 41.7014 66.6033 41.6392 66.3007 41.6392C66.0014 41.6392 65.7529 41.7014 65.5555 41.8258C65.3612 41.9502 65.2068 42.1384 65.0922 42.3904C64.9839 42.6265 64.909 42.9343 64.8677 43.314C64.8293 43.6936 64.8101 44.1099 64.8101 44.5629C64.8101 45.0605 64.8277 45.4768 64.8628 45.8118C64.8979 46.1468 64.9728 46.4466 65.0873 46.7114C65.1924 46.9602 65.3405 47.15 65.5316 47.2808C65.7258 47.4116 65.9822 47.477 66.3007 47.477C66.6001 47.477 66.8485 47.4148 67.0459 47.2904C67.2434 47.166 67.3963 46.9778 67.5046 46.7258Z" fill="black"/>
<path d="M18.9262 54.3534C18.9262 55.6326 18.7256 56.5721 18.3243 57.1718C17.9262 57.7684 17.3067 58.0666 16.466 58.0666C15.6125 58.0666 14.9883 57.7636 14.5934 57.1575C14.2016 56.5513 14.0058 55.6198 14.0058 54.3629C14.0058 53.0965 14.2048 52.1618 14.6029 51.5588C15.001 50.9527 15.6221 50.6496 16.466 50.6496C17.3196 50.6496 17.9421 50.9575 18.3339 51.5732C18.7288 52.1857 18.9262 53.1124 18.9262 54.3534ZM17.6699 56.5258C17.7813 56.2674 17.8562 55.9644 17.8943 55.6166C17.9359 55.2657 17.9568 54.8446 17.9568 54.3534C17.9568 53.8685 17.9359 53.4474 17.8943 53.0901C17.856 52.7328 17.7796 52.4297 17.6651 52.1809C17.5536 51.9353 17.4007 51.7502 17.2064 51.6258C17.0154 51.5014 16.7685 51.4392 16.466 51.4392C16.1666 51.4392 15.9182 51.5014 15.7208 51.6258C15.5265 51.7502 15.372 51.9384 15.2574 52.1904C15.1491 52.4265 15.0742 52.7343 15.0329 53.1139C14.9945 53.4936 14.9753 53.9099 14.9753 54.3629C14.9753 54.8605 14.9929 55.2768 15.028 55.6118C15.0631 55.9468 15.138 56.2466 15.2525 56.5114C15.3576 56.7602 15.5057 56.95 15.6968 57.0808C15.891 57.2116 16.1474 57.277 16.4659 57.277C16.7653 57.277 17.0137 57.2148 17.2111 57.0904C17.4086 56.966 17.5616 56.7778 17.6699 56.5258Z" fill="black"/>
<path d="M24.7591 57.9183H20.9088V57.1909H22.3897V52.4154H20.9088V51.7646C21.1094 51.7646 21.3244 51.7486 21.5537 51.7166C21.783 51.6815 21.9566 51.632 22.0744 51.5683C22.2209 51.4885 22.3355 51.388 22.4183 51.2668C22.5043 51.1424 22.5537 50.9765 22.5664 50.7691H23.3069V57.1908H24.7591V57.9183Z" fill="black"/>
<path d="M31.3849 54.3534C31.3849 55.6326 31.1843 56.5721 30.783 57.1718C30.3849 57.7684 29.7654 58.0666 28.9247 58.0666C28.0712 58.0666 27.447 57.7636 27.0521 57.1575C26.6604 56.5513 26.4645 55.6198 26.4645 54.3629C26.4645 53.0965 26.6635 52.1618 27.0616 51.5588C27.4597 50.9527 28.0808 50.6496 28.9247 50.6496C29.7782 50.6496 30.4008 50.9575 30.7926 51.5732C31.1875 52.1857 31.3849 53.1124 31.3849 54.3534ZM30.1285 56.5258C30.24 56.2674 30.3149 55.9644 30.353 55.6166C30.3946 55.2657 30.4155 54.8446 30.4155 54.3534C30.4155 53.8685 30.3946 53.4474 30.353 53.0901C30.3147 52.7328 30.2383 52.4297 30.1238 52.1809C30.0123 51.9353 29.8594 51.7502 29.6652 51.6258C29.4741 51.5014 29.2272 51.4392 28.9247 51.4392C28.6253 51.4392 28.3769 51.5014 28.1795 51.6258C27.9852 51.7502 27.8307 51.9384 27.7161 52.1904C27.6078 52.4265 27.533 52.7343 27.4916 53.1139C27.4533 53.4936 27.4341 53.9099 27.4341 54.3629C27.4341 54.8605 27.4516 55.2768 27.4868 55.6118C27.5219 55.9468 27.5967 56.2466 27.7113 56.5114C27.8164 56.7602 27.9645 56.95 28.1556 57.0808C28.3498 57.2116 28.6062 57.277 28.9247 57.277C29.2241 57.277 29.4724 57.2148 29.6699 57.0904C29.8673 56.966 30.0203 56.7778 30.1285 56.5258Z" fill="black"/>
<path d="M37.2178 57.9183H33.3674V57.1909H34.8483V52.4154H33.3674V51.7646C33.568 51.7646 33.7831 51.7486 34.0124 51.7166C34.2417 51.6815 34.4152 51.632 34.533 51.5683C34.6795 51.4885 34.7942 51.388 34.877 51.2668C34.963 51.1424 35.0123 50.9765 35.0251 50.7691H35.7655V57.1908H37.2178V57.9183Z" fill="black"/>
<path d="M43.8435 54.3534C43.8435 55.6326 43.6429 56.5721 43.2416 57.1718C42.8435 57.7684 42.2241 58.0666 41.3833 58.0666C40.5298 58.0666 39.9056 57.7636 39.5107 57.1575C39.119 56.5513 38.9231 55.6198 38.9231 54.3629C38.9231 53.0965 39.1222 52.1618 39.5203 51.5588C39.9184 50.9527 40.5394 50.6496 41.3833 50.6496C42.2368 50.6496 42.8595 50.9575 43.2512 51.5732C43.6461 52.1857 43.8435 53.1124 43.8435 54.3534ZM42.5872 56.5258C42.6986 56.2674 42.7735 55.9644 42.8117 55.6166C42.8533 55.2657 42.8741 54.8446 42.8741 54.3534C42.8741 53.8685 42.8533 53.4474 42.8117 53.0901C42.7733 52.7328 42.6969 52.4297 42.5824 52.1809C42.4709 51.9353 42.3181 51.7502 42.1238 51.6258C41.9328 51.5014 41.686 51.4392 41.3834 51.4392C41.084 51.4392 40.8356 51.5014 40.6381 51.6258C40.4439 51.7502 40.2895 51.9384 40.1748 52.1904C40.0665 52.4265 39.9917 52.7343 39.9503 53.1139C39.912 53.4936 39.8928 53.9099 39.8928 54.3629C39.8928 54.8605 39.9103 55.2768 39.9455 55.6118C39.9806 55.9468 40.0554 56.2466 40.17 56.5114C40.2751 56.7602 40.4232 56.95 40.6142 57.0808C40.8085 57.2116 41.0649 57.277 41.3833 57.277C41.6827 57.277 41.9312 57.2148 42.1286 57.0904C42.3261 56.966 42.4789 56.7778 42.5872 56.5258Z" fill="black"/>
<path d="M50.0729 54.3534C50.0729 55.6326 49.8723 56.5721 49.471 57.1718C49.0729 57.7684 48.4534 58.0666 47.6127 58.0666C46.7592 58.0666 46.135 57.7636 45.7401 57.1575C45.3484 56.5513 45.1525 55.6198 45.1525 54.3629C45.1525 53.0965 45.3515 52.1618 45.7496 51.5588C46.1477 50.9527 46.7688 50.6496 47.6127 50.6496C48.4663 50.6496 49.0888 50.9575 49.4806 51.5732C49.8755 52.1857 50.0729 53.1124 50.0729 54.3534ZM48.8166 56.5258C48.928 56.2674 49.0029 55.9644 49.041 55.6166C49.0826 55.2657 49.1035 54.8446 49.1035 54.3534C49.1035 53.8685 49.0826 53.4474 49.041 53.0901C49.0027 52.7328 48.9263 52.4297 48.8118 52.1809C48.7003 51.9353 48.5474 51.7502 48.3531 51.6258C48.162 51.5014 47.9152 51.4392 47.6127 51.4392C47.3133 51.4392 47.0649 51.5014 46.8675 51.6258C46.6732 51.7502 46.5188 51.9384 46.4041 52.1904C46.2958 52.4265 46.221 52.7343 46.1796 53.1139C46.1413 53.4936 46.1221 53.9099 46.1221 54.3629C46.1221 54.8605 46.1396 55.2768 46.1748 55.6118C46.2099 55.9468 46.2847 56.2466 46.3993 56.5114C46.5044 56.7602 46.6525 56.95 46.8435 57.0808C47.0378 57.2116 47.2942 57.277 47.6126 57.277C47.912 57.277 48.1604 57.2148 48.3579 57.0904C48.5553 56.966 48.7083 56.7778 48.8166 56.5258Z" fill="black"/>
<path d="M55.9058 57.9183H52.0554V57.1909H53.5363V52.4154H52.0554V51.7646C52.2561 51.7646 52.471 51.7486 52.7003 51.7166C52.9296 51.6815 53.1032 51.632 53.2211 51.5683C53.3675 51.4885 53.4822 51.388 53.565 51.2668C53.651 51.1424 53.7003 50.9765 53.7131 50.7691H54.4535V57.1908H55.9058V57.9183Z" fill="black"/>
<path d="M62.5316 54.3534C62.5316 55.6326 62.3309 56.5721 61.9297 57.1718C61.5315 57.7684 60.9121 58.0666 60.0713 58.0666C59.2178 58.0666 58.5936 57.7636 58.1987 57.1575C57.807 56.5513 57.6111 55.6198 57.6111 54.3629C57.6111 53.0965 57.8102 52.1618 58.2083 51.5588C58.6064 50.9527 59.2274 50.6496 60.0714 50.6496C60.9249 50.6496 61.5474 50.9575 61.9392 51.5732C62.3341 52.1857 62.5316 53.1124 62.5316 54.3534ZM61.2752 56.5258C61.3867 56.2674 61.4615 55.9644 61.4997 55.6166C61.5413 55.2657 61.5621 54.8446 61.5621 54.3534C61.5621 53.8685 61.5413 53.4474 61.4997 53.0901C61.4613 52.7328 61.3849 52.4297 61.2704 52.1809C61.1589 51.9353 61.0061 51.7502 60.8118 51.6258C60.6207 51.5014 60.3739 51.4392 60.0713 51.4392C59.7719 51.4392 59.5236 51.5014 59.3261 51.6258C59.1318 51.7502 58.9774 51.9384 58.8627 52.1904C58.7544 52.4265 58.6796 52.7343 58.6382 53.1139C58.5999 53.4936 58.5807 53.9099 58.5807 54.3629C58.5807 54.8605 58.5983 55.2768 58.6334 55.6118C58.6685 55.9468 58.7433 56.2466 58.8579 56.5114C58.963 56.7602 59.1111 56.95 59.3022 57.0808C59.4965 57.2116 59.7528 57.277 60.0713 57.277C60.3707 57.277 60.6191 57.2148 60.8165 57.0904C61.014 56.966 61.1669 56.7778 61.2752 56.5258Z" fill="black"/>
<path d="M68.3644 57.9183H64.5141V57.1909H65.995V52.4154H64.5141V51.7646C64.7147 51.7646 64.9297 51.7486 65.159 51.7166C65.3883 51.6815 65.5619 51.632 65.6797 51.5683C65.8261 51.4885 65.9408 51.388 66.0237 51.2668C66.1096 51.1424 66.159 50.9765 66.1717 50.7691H66.9122V57.1908H68.3644V57.9183Z" fill="black"/>
<path d="M74.9902 54.3534C74.9902 55.6326 74.7896 56.5721 74.3883 57.1718C73.9902 57.7684 73.3707 58.0666 72.53 58.0666C71.6765 58.0666 71.0523 57.7636 70.6574 57.1575C70.2656 56.5513 70.0697 55.6198 70.0697 54.3629C70.0697 53.0965 70.2688 52.1618 70.6669 51.5588C71.065 50.9527 71.686 50.6496 72.53 50.6496C73.3835 50.6496 74.0061 50.9575 74.3978 51.5732C74.7928 52.1857 74.9902 53.1124 74.9902 54.3534ZM73.7338 56.5258C73.8453 56.2674 73.9202 55.9644 73.9583 55.6166C73.9999 55.2657 74.0207 54.8446 74.0207 54.3534C74.0207 53.8685 73.9999 53.4474 73.9583 53.0901C73.92 52.7328 73.8435 52.4297 73.729 52.1809C73.6176 51.9353 73.4647 51.7502 73.2705 51.6258C73.0794 51.5014 72.8326 51.4392 72.53 51.4392C72.2307 51.4392 71.9822 51.5014 71.7848 51.6258C71.5905 51.7502 71.4361 51.9384 71.3215 52.1904C71.2132 52.4265 71.1383 52.7343 71.097 53.1139C71.0586 53.4936 71.0394 53.9099 71.0394 54.3629C71.0394 54.8605 71.057 55.2768 71.0921 55.6118C71.1272 55.9468 71.2021 56.2466 71.3166 56.5114C71.4217 56.7602 71.5698 56.95 71.7609 57.0808C71.9551 57.2116 72.2115 57.277 72.53 57.277C72.8294 57.277 73.0778 57.2148 73.2752 57.0904C73.4727 56.966 73.6255 56.7778 73.7338 56.5258Z" fill="black"/>
<path d="M18.5297 67.7183H14.6794V66.9909H16.1603V62.2154H14.6794V61.5645C14.88 61.5645 15.095 61.5486 15.3243 61.5166C15.5536 61.4814 15.7272 61.432 15.845 61.3683C15.9915 61.2885 16.1062 61.188 16.189 61.0668C16.275 60.9424 16.3243 60.7765 16.337 60.5691H17.0775V66.9908H18.5297V67.7183Z" fill="black"/>
<path d="M24.7591 67.7183H20.9088V66.9909H22.3897V62.2154H20.9088V61.5645C21.1094 61.5645 21.3244 61.5486 21.5537 61.5166C21.783 61.4814 21.9566 61.432 22.0744 61.3683C22.2209 61.2885 22.3355 61.188 22.4183 61.0668C22.5043 60.9424 22.5537 60.7765 22.5664 60.5691H23.3069V66.9908H24.7591V67.7183Z" fill="black"/>
<path d="M30.9884 67.7183H27.1381V66.9909H28.619V62.2154H27.1381V61.5645C27.3387 61.5645 27.5537 61.5486 27.783 61.5166C28.0123 61.4814 28.1858 61.432 28.3037 61.3683C28.4502 61.2885 28.5649 61.188 28.6476 61.0668C28.7336 60.9424 28.783 60.7765 28.7957 60.5691H29.5362V66.9908H30.9884V67.7183Z" fill="black"/>
<path d="M37.6143 64.1533C37.6143 65.4326 37.4136 66.3721 37.0123 66.9718C36.6142 67.5683 35.9948 67.8666 35.154 67.8666C34.3005 67.8666 33.6763 67.5636 33.2814 66.9575C32.8897 66.3513 32.6938 65.4198 32.6938 64.1629C32.6938 62.8964 32.8929 61.9618 33.291 61.3588C33.6891 60.7527 34.3101 60.4496 35.154 60.4496C36.0075 60.4496 36.6302 60.7575 37.0219 61.3732C37.4168 61.9857 37.6143 62.9124 37.6143 64.1533ZM36.3579 66.3258C36.4694 66.0674 36.5442 65.7644 36.5824 65.4166C36.624 65.0657 36.6448 64.6446 36.6448 64.1533C36.6448 63.6684 36.624 63.2474 36.5824 62.8901C36.544 62.5328 36.4676 62.2297 36.3531 61.9809C36.2416 61.7353 36.0887 61.5502 35.8944 61.4258C35.7034 61.3014 35.4566 61.2392 35.154 61.2392C34.8546 61.2392 34.6062 61.3014 34.4088 61.4258C34.2145 61.5502 34.0601 61.7384 33.9454 61.9904C33.8371 62.2265 33.7623 62.5343 33.721 62.9139C33.6826 63.2935 33.6634 63.7099 33.6634 64.1629C33.6634 64.6605 33.681 65.0768 33.7161 65.4118C33.7512 65.7468 33.826 66.0466 33.9406 66.3114C34.0457 66.5602 34.1938 66.75 34.3848 66.8808C34.5791 67.0116 34.8355 67.077 35.154 67.077C35.4533 67.077 35.7018 67.0148 35.8992 66.8904C36.0967 66.766 36.2496 66.5778 36.3579 66.3258Z" fill="black"/>
<path d="M43.4471 67.7183H39.5968V66.9909H41.0776V62.2154H39.5968V61.5645C39.7974 61.5645 40.0124 61.5486 40.2417 61.5166C40.471 61.4814 40.6446 61.432 40.7624 61.3683C40.9089 61.2885 41.0235 61.188 41.1063 61.0668C41.1923 60.9424 41.2417 60.7765 41.2544 60.5691H41.9949V66.9908H43.4471V67.7183Z" fill="black"/>
<path d="M50.0729 64.1533C50.0729 65.4326 49.8723 66.3721 49.471 66.9718C49.0729 67.5683 48.4534 67.8666 47.6127 67.8666C46.7592 67.8666 46.135 67.5636 45.7401 66.9575C45.3484 66.3513 45.1525 65.4198 45.1525 64.1629C45.1525 62.8964 45.3515 61.9618 45.7496 61.3588C46.1477 60.7527 46.7688 60.4496 47.6127 60.4496C48.4663 60.4496 49.0888 60.7575 49.4806 61.3732C49.8755 61.9857 50.0729 62.9124 50.0729 64.1533ZM48.8166 66.3258C48.928 66.0674 49.0029 65.7644 49.041 65.4166C49.0826 65.0657 49.1035 64.6446 49.1035 64.1533C49.1035 63.6684 49.0826 63.2474 49.041 62.8901C49.0027 62.5328 48.9263 62.2297 48.8118 61.9809C48.7003 61.7353 48.5474 61.5502 48.3531 61.4258C48.162 61.3014 47.9152 61.2392 47.6127 61.2392C47.3133 61.2392 47.0649 61.3014 46.8675 61.4258C46.6732 61.5502 46.5188 61.7384 46.4041 61.9904C46.2958 62.2265 46.221 62.5343 46.1796 62.9139C46.1413 63.2935 46.1221 63.7099 46.1221 64.1629C46.1221 64.6605 46.1396 65.0768 46.1748 65.4118C46.2099 65.7468 46.2847 66.0466 46.3993 66.3114C46.5044 66.5602 46.6525 66.75 46.8435 66.8808C47.0378 67.0116 47.2942 67.077 47.6126 67.077C47.912 67.077 48.1604 67.0148 48.3579 66.8904C48.5553 66.766 48.7083 66.5778 48.8166 66.3258Z" fill="black"/>
<path d="M55.9058 67.7183H52.0554V66.9909H53.5363V62.2154H52.0554V61.5645C52.2561 61.5645 52.471 61.5486 52.7003 61.5166C52.9296 61.4814 53.1032 61.432 53.2211 61.3683C53.3675 61.2885 53.4822 61.188 53.565 61.0668C53.651 60.9424 53.7003 60.7765 53.7131 60.5691H54.4535V66.9908H55.9058V67.7183Z" fill="black"/>
<path d="M62.5316 64.1533C62.5316 65.4326 62.3309 66.3721 61.9297 66.9718C61.5315 67.5683 60.9121 67.8666 60.0713 67.8666C59.2178 67.8666 58.5936 67.5636 58.1987 66.9575C57.807 66.3513 57.6111 65.4198 57.6111 64.1629C57.6111 62.8964 57.8102 61.9618 58.2083 61.3588C58.6064 60.7527 59.2274 60.4496 60.0714 60.4496C60.9249 60.4496 61.5474 60.7575 61.9392 61.3732C62.3341 61.9857 62.5316 62.9124 62.5316 64.1533ZM61.2752 66.3258C61.3867 66.0674 61.4615 65.7644 61.4997 65.4166C61.5413 65.0657 61.5621 64.6446 61.5621 64.1533C61.5621 63.6684 61.5413 63.2474 61.4997 62.8901C61.4613 62.5328 61.3849 62.2297 61.2704 61.9809C61.1589 61.7353 61.0061 61.5502 60.8118 61.4258C60.6207 61.3014 60.3739 61.2392 60.0713 61.2392C59.7719 61.2392 59.5236 61.3014 59.3261 61.4258C59.1318 61.5502 58.9774 61.7384 58.8627 61.9904C58.7544 62.2265 58.6796 62.5343 58.6382 62.9139C58.5999 63.2935 58.5807 63.7099 58.5807 64.1629C58.5807 64.6605 58.5983 65.0768 58.6334 65.4118C58.6685 65.7468 58.7433 66.0466 58.8579 66.3114C58.963 66.5602 59.1111 66.75 59.3022 66.8808C59.4965 67.0116 59.7528 67.077 60.0713 67.077C60.3707 67.077 60.6191 67.0148 60.8165 66.8904C61.014 66.766 61.1669 66.5778 61.2752 66.3258Z" fill="black"/>
<path d="M68.3644 67.7183H64.5141V66.9909H65.995V62.2154H64.5141V61.5645C64.7147 61.5645 64.9297 61.5486 65.159 61.5166C65.3883 61.4814 65.5619 61.432 65.6797 61.3683C65.8261 61.2885 65.9408 61.188 66.0237 61.0668C66.1096 60.9424 66.159 60.7765 66.1717 60.5691H66.9122V66.9908H68.3644V67.7183Z" fill="black"/>
<path d="M74.9902 64.1533C74.9902 65.4326 74.7896 66.3721 74.3883 66.9718C73.9902 67.5683 73.3707 67.8666 72.53 67.8666C71.6765 67.8666 71.0523 67.5636 70.6574 66.9575C70.2656 66.3513 70.0697 65.4198 70.0697 64.1629C70.0697 62.8964 70.2688 61.9618 70.6669 61.3588C71.065 60.7527 71.686 60.4496 72.53 60.4496C73.3835 60.4496 74.0061 60.7575 74.3978 61.3732C74.7928 61.9857 74.9902 62.9124 74.9902 64.1533ZM73.7338 66.3258C73.8453 66.0674 73.9202 65.7644 73.9583 65.4166C73.9999 65.0657 74.0207 64.6446 74.0207 64.1533C74.0207 63.6684 73.9999 63.2474 73.9583 62.8901C73.92 62.5328 73.8435 62.2297 73.729 61.9809C73.6176 61.7353 73.4647 61.5502 73.2705 61.4258C73.0794 61.3014 72.8326 61.2392 72.53 61.2392C72.2307 61.2392 71.9822 61.3014 71.7848 61.4258C71.5905 61.5502 71.4361 61.7384 71.3215 61.9904C71.2132 62.2265 71.1383 62.5343 71.097 62.9139C71.0586 63.2935 71.0394 63.7099 71.0394 64.1629C71.0394 64.6605 71.057 65.0768 71.0921 65.4118C71.1272 65.7468 71.2021 66.0466 71.3166 66.3114C71.4217 66.5602 71.5698 66.75 71.7609 66.8808C71.9551 67.0116 72.2115 67.077 72.53 67.077C72.8294 67.077 73.0778 67.0148 73.2752 66.8904C73.4727 66.766 73.6255 66.5778 73.7338 66.3258Z" fill="black"/>
<path d="M25.1556 73.9533C25.1556 75.2326 24.955 76.1721 24.5537 76.7718C24.1556 77.3683 23.5361 77.6666 22.6954 77.6666C21.8419 77.6666 21.2177 77.3636 20.8228 76.7575C20.431 76.1513 20.2352 75.2198 20.2352 73.9629C20.2352 72.6964 20.4342 71.7617 20.8323 71.1588C21.2304 70.5527 21.8514 70.2496 22.6954 70.2496C23.5489 70.2496 24.1715 70.5575 24.5632 71.1732C24.9582 71.7857 25.1556 72.7124 25.1556 73.9533ZM23.8992 76.1258C24.0107 75.8674 24.0855 75.5643 24.1237 75.2166C24.1653 74.8657 24.1861 74.4446 24.1861 73.9533C24.1861 73.4684 24.1653 73.0474 24.1237 72.6901C24.0854 72.3328 24.0089 72.0297 23.8944 71.7809C23.7829 71.5353 23.6301 71.3502 23.4358 71.2258C23.2447 71.1014 22.9979 71.0392 22.6954 71.0392C22.396 71.0392 22.1476 71.1014 21.9501 71.2258C21.7559 71.3502 21.6014 71.5384 21.4868 71.7904C21.3785 72.0265 21.3037 72.3343 21.2623 72.7139C21.224 73.0935 21.2048 73.5099 21.2048 73.9629C21.2048 74.4605 21.2223 74.8768 21.2575 75.2118C21.2926 75.5468 21.3674 75.8466 21.4819 76.1114C21.587 76.3602 21.7351 76.55 21.9262 76.6808C22.1205 76.8116 22.3769 76.877 22.6953 76.877C22.9947 76.877 23.2431 76.8148 23.4406 76.6904C23.638 76.566 23.7909 76.3778 23.8992 76.1258Z" fill="black"/>
<path d="M30.9884 77.5183H27.1381V76.7909H28.619V72.0153H27.1381V71.3645C27.3387 71.3645 27.5537 71.3486 27.783 71.3166C28.0123 71.2814 28.1858 71.232 28.3037 71.1683C28.4502 71.0886 28.5649 70.9881 28.6476 70.8668C28.7336 70.7424 28.783 70.5765 28.7957 70.3691H29.5362V76.7908H30.9884V77.5183Z" fill="black"/>
<path d="M37.2178 77.5183H33.3674V76.7909H34.8483V72.0153H33.3674V71.3645C33.568 71.3645 33.7831 71.3486 34.0124 71.3166C34.2417 71.2814 34.4152 71.232 34.533 71.1683C34.6795 71.0886 34.7942 70.9881 34.877 70.8668C34.963 70.7424 35.0123 70.5765 35.0251 70.3691H35.7655V76.7908H37.2178V77.5183Z" fill="black"/>
<path d="M43.8435 73.9533C43.8435 75.2326 43.6429 76.1721 43.2416 76.7718C42.8435 77.3683 42.2241 77.6666 41.3833 77.6666C40.5298 77.6666 39.9056 77.3636 39.5107 76.7575C39.119 76.1513 38.9231 75.2198 38.9231 73.9629C38.9231 72.6964 39.1222 71.7617 39.5203 71.1588C39.9184 70.5527 40.5394 70.2496 41.3833 70.2496C42.2368 70.2496 42.8595 70.5575 43.2512 71.1732C43.6461 71.7857 43.8435 72.7124 43.8435 73.9533ZM42.5872 76.1258C42.6986 75.8674 42.7735 75.5643 42.8117 75.2166C42.8533 74.8657 42.8741 74.4446 42.8741 73.9533C42.8741 73.4684 42.8533 73.0474 42.8117 72.6901C42.7733 72.3328 42.6969 72.0297 42.5824 71.7809C42.4709 71.5353 42.318 71.3502 42.1238 71.2258C41.9327 71.1014 41.6859 71.0392 41.3833 71.0392C41.084 71.0392 40.8355 71.1014 40.6381 71.2258C40.4438 71.3502 40.2893 71.5384 40.1747 71.7904C40.0664 72.0265 39.9916 72.3343 39.9502 72.7139C39.9119 73.0935 39.8927 73.5099 39.8927 73.9629C39.8927 74.4605 39.9103 74.8768 39.9454 75.2118C39.9805 75.5468 40.0554 75.8466 40.1699 76.1114C40.275 76.3602 40.4231 76.55 40.6142 76.6808C40.8084 76.8116 41.0648 76.877 41.3833 76.877C41.6827 76.877 41.931 76.8148 42.1285 76.6904C42.3259 76.566 42.4789 76.3778 42.5872 76.1258Z" fill="black"/>
<path d="M49.6764 77.5183H45.826V76.7909H47.3069V72.0153H45.826V71.3645C46.0267 71.3645 46.2417 71.3486 46.471 71.3166C46.7003 71.2814 46.8738 71.232 46.9916 71.1683C47.1381 71.0886 47.2528 70.9881 47.3356 70.8668C47.4216 70.7424 47.4709 70.5765 47.4837 70.3691H48.2242V76.7908H49.6764V77.5183Z" fill="black"/>
<path d="M56.3022 73.9533C56.3022 75.2326 56.1016 76.1721 55.7003 76.7718C55.3022 77.3683 54.6827 77.6666 53.842 77.6666C52.9885 77.6666 52.3642 77.3636 51.9693 76.7575C51.5776 76.1513 51.3818 75.2198 51.3818 73.9629C51.3818 72.6964 51.5808 71.7617 51.9789 71.1588C52.377 70.5527 52.998 70.2496 53.842 70.2496C54.6955 70.2496 55.3181 70.5575 55.7098 71.1732C56.1047 71.7857 56.3022 72.7124 56.3022 73.9533ZM55.0458 76.1258C55.1573 75.8674 55.2321 75.5643 55.2703 75.2166C55.3119 74.8657 55.3327 74.4446 55.3327 73.9533C55.3327 73.4684 55.3119 73.0474 55.2703 72.6901C55.232 72.3328 55.1555 72.0297 55.041 71.7809C54.9295 71.5353 54.7767 71.3502 54.5824 71.2258C54.3913 71.1014 54.1445 71.0392 53.842 71.0392C53.5426 71.0392 53.2942 71.1014 53.0967 71.2258C52.9024 71.3502 52.748 71.5384 52.6334 71.7904C52.5251 72.0265 52.4503 72.3343 52.4089 72.7139C52.3705 73.0935 52.3514 73.5099 52.3514 73.9629C52.3514 74.4605 52.3689 74.8768 52.404 75.2118C52.4392 75.5468 52.514 75.8466 52.6285 76.1114C52.7336 76.3602 52.8817 76.55 53.0728 76.6808C53.2671 76.8116 53.5234 76.877 53.8419 76.877C54.1413 76.877 54.3897 76.8148 54.5872 76.6904C54.7846 76.566 54.9375 76.3778 55.0458 76.1258Z" fill="black"/>
<path d="M62.1351 77.5183H58.2848V76.7909H59.7656V72.0153H58.2848V71.3645C58.4854 71.3645 58.7004 71.3486 58.9297 71.3166C59.159 71.2814 59.3326 71.232 59.4504 71.1683C59.5969 71.0886 59.7115 70.9881 59.7943 70.8668C59.8803 70.7424 59.9297 70.5765 59.9424 70.3691H60.6829V76.7908H62.1351L62.1351 77.5183Z" fill="black"/>
<path d="M68.3644 77.5183H64.5141V76.7909H65.995V72.0153H64.5141V71.3645C64.7147 71.3645 64.9297 71.3486 65.159 71.3166C65.3883 71.2814 65.5619 71.232 65.6797 71.1683C65.8261 71.0886 65.9408 70.9881 66.0237 70.8668C66.1096 70.7424 66.159 70.5765 66.1717 70.3691H66.9122V76.7908H68.3644V77.5183Z" fill="black"/>
<path d="M32.7081 87.3183H28.8578V86.5909H30.3387V81.8153H28.8578V81.1645C29.0585 81.1645 29.2734 81.1486 29.5027 81.1166C29.732 81.0814 29.9056 81.032 30.0234 80.9683C30.1699 80.8886 30.2846 80.7881 30.3674 80.6668C30.4534 80.5424 30.5027 80.3765 30.5155 80.1691H31.2559V86.5908H32.7081V87.3183Z" fill="black"/>
<path d="M38.9375 87.3183H35.0872V86.5909H36.5681V81.8153H35.0872V81.1645C35.2878 81.1645 35.5028 81.1486 35.7321 81.1166C35.9614 81.0814 36.135 81.032 36.2528 80.9683C36.3993 80.8886 36.5139 80.7881 36.5968 80.6668C36.6827 80.5424 36.7321 80.3765 36.7448 80.1691H37.4853V86.5908H38.9375V87.3183Z" fill="black"/>
<path d="M45.1669 87.3183H41.3165V86.5909H42.7974V81.8153H41.3165V81.1645C41.5171 81.1645 41.7321 81.1486 41.9614 81.1166C42.1907 81.0814 42.3643 81.032 42.4821 80.9683C42.6286 80.8886 42.7432 80.7881 42.826 80.6668C42.912 80.5424 42.9614 80.3765 42.9742 80.1691H43.7146V86.5908H45.1669V87.3183Z" fill="black"/>
<path d="M51.7927 83.7533C51.7927 85.0326 51.5921 85.972 51.1908 86.5718C50.7927 87.1683 50.1732 87.4666 49.3325 87.4666C48.479 87.4666 47.8548 87.1636 47.4599 86.5574C47.0681 85.9513 46.8723 85.0198 46.8723 83.7629C46.8723 82.4964 47.0713 81.5617 47.4694 80.9588C47.8675 80.3527 48.4886 80.0496 49.3325 80.0496C50.1861 80.0496 50.8086 80.3575 51.2004 80.9732C51.5953 81.5857 51.7927 82.5124 51.7927 83.7533ZM50.5364 85.9258C50.6478 85.6674 50.7227 85.3643 50.7608 85.0166C50.8024 84.6657 50.8233 84.2446 50.8233 83.7533C50.8233 83.2684 50.8024 82.8473 50.7608 82.4901C50.7225 82.1328 50.6461 81.8297 50.5316 81.5809C50.4201 81.3353 50.2672 81.1502 50.0729 81.0258C49.8819 80.9014 49.635 80.8392 49.3325 80.8392C49.0331 80.8392 48.7847 80.9014 48.5872 81.0258C48.393 81.1502 48.2386 81.3384 48.1239 81.5904C48.0156 81.8265 47.9408 82.1343 47.8994 82.5139C47.8611 82.8935 47.8419 83.3098 47.8419 83.7629C47.8419 84.2605 47.8594 84.6768 47.8946 85.0118C47.9297 85.3468 48.0045 85.6466 48.1191 85.9114C48.2242 86.1602 48.3723 86.35 48.5633 86.4808C48.7576 86.6116 49.014 86.677 49.3324 86.677C49.6318 86.677 49.8802 86.6148 50.0777 86.4904C50.2751 86.366 50.4281 86.1778 50.5364 85.9258Z" fill="black"/>
<path d="M57.6255 87.3183H53.7752V86.5909H55.2561V81.8153H53.7752V81.1645C53.9758 81.1645 54.1908 81.1486 54.4201 81.1166C54.6494 81.0814 54.823 81.032 54.9408 80.9683C55.0873 80.8886 55.2019 80.7881 55.2847 80.6668C55.3707 80.5424 55.4201 80.3765 55.4328 80.1691H56.1733V86.5908H57.6255V87.3183Z" fill="black"/>
<path d="M63.8548 87.3183H60.0045V86.5909H61.4853V81.8153H60.0045V81.1645C60.2051 81.1645 60.4201 81.1486 60.6494 81.1166C60.8787 81.0814 61.0522 81.032 61.17 80.9683C61.3165 80.8886 61.4312 80.7881 61.514 80.6668C61.6 80.5424 61.6494 80.3765 61.6621 80.1691H62.4026V86.5908H63.8548V87.3183Z" fill="black"/>
<path d="M62.6186 97.8627L73.3844 90.2884L110.673 143.795L99.9068 151.37L62.6186 97.8627Z" fill="black"/>
<path fill-rule="evenodd" clip-rule="evenodd" d="M44.8964 103.368C69.6919 103.368 89.7927 83.1385 89.7927 58.184C89.7927 33.2296 69.6919 13 44.8964 13C20.1008 13 0 33.2296 0 58.184C0 83.1385 20.1008 103.368 44.8964 103.368ZM44.8964 93.8556C64.4718 93.8556 80.3409 77.8849 80.3409 58.184C80.3409 38.4831 64.4718 22.5124 44.8964 22.5124C25.3209 22.5124 9.45186 38.4831 9.45186 58.184C9.45186 77.8849 25.3209 93.8556 44.8964 93.8556Z" fill="black"/>
</svg>
