<svg width="111" height="168" viewBox="0 0 111 168" fill="none" xmlns="http://www.w3.org/2000/svg">
<path d="M80.435 157.233L80.445 167.234H90.436V157.233H80.435Z" fill="#DC143C"/>
<path d="M64.344 157.233L64.354 167.234H74.345V157.233H64.344Z" fill="#DC143C"/>
<path d="M95.888 147L95.898 157.001H105.899V147H95.888Z" fill="#DC143C"/>
<path d="M47.888 147L47.898 157.001H57.899V147H47.888Z" fill="#DC143C"/>
<path d="M41.889 167.011H31.898L31.888 157H41.889V167.011Z" fill="#DC143C"/>
<path d="M0 147.222L0.00999451 157.223H10.001V147.222H0Z" fill="#DC143C"/>
<path d="M27.092 157.233H17.091L17.081 147.222H27.092V157.233Z" fill="#DC143C"/>
<path d="M33.1047 21.7534C33.1047 23.0326 32.904 23.9721 32.5028 24.5718C32.1047 25.1684 31.4852 25.4667 30.6445 25.4667C29.791 25.4667 29.1667 25.1636 28.7718 24.5575C28.3801 23.9514 28.1842 23.0198 28.1842 21.7629C28.1842 20.4965 28.3833 19.5618 28.7814 18.9589C29.1795 18.3527 29.8005 18.0497 30.6445 18.0497C31.498 18.0497 32.1206 18.3575 32.5123 18.9732C32.9072 19.5857 33.1047 20.5124 33.1047 21.7534ZM31.8483 23.9258C31.9597 23.6674 32.0346 23.3644 32.0728 23.0167C32.1144 22.6658 32.1352 22.2447 32.1352 21.7534C32.1352 21.2685 32.1144 20.8474 32.0728 20.4901C32.0345 20.1328 31.958 19.8297 31.8435 19.5809C31.732 19.3353 31.5792 19.1503 31.3849 19.0258C31.1938 18.9014 30.947 18.8392 30.6444 18.8392C30.345 18.8392 30.0967 18.9014 29.8992 19.0258C29.7049 19.1502 29.5505 19.3384 29.4358 19.5904C29.3275 19.8265 29.2527 20.1344 29.2113 20.514C29.1729 20.8936 29.1538 21.3099 29.1538 21.7629C29.1538 22.2606 29.1713 22.6769 29.2064 23.0118C29.2416 23.3468 29.3164 23.6467 29.4309 23.9114C29.536 24.1602 29.6841 24.35 29.8752 24.4808C30.0695 24.6116 30.3258 24.677 30.6443 24.677C30.9437 24.677 31.1921 24.6148 31.3896 24.4904C31.587 24.366 31.74 24.1778 31.8483 23.9258Z" fill="#B3B3B3"/>
<path d="M38.9375 25.3183H35.0872V24.591H36.5681V19.8154H35.0872V19.1646C35.2878 19.1646 35.5028 19.1486 35.7321 19.1167C35.9614 19.0815 36.135 19.032 36.2528 18.9683C36.3993 18.8885 36.5139 18.788 36.5968 18.6668C36.6827 18.5424 36.7321 18.3765 36.7448 18.1692H37.4853V24.5908H38.9375V25.3183Z" fill="#B3B3B3"/>
<path d="M45.5633 21.7534C45.5633 23.0326 45.3627 23.9721 44.9614 24.5718C44.5633 25.1684 43.9438 25.4667 43.1031 25.4667C42.2496 25.4667 41.6254 25.1636 41.2305 24.5575C40.8387 23.9514 40.6428 23.0198 40.6428 21.7629C40.6428 20.4965 40.8419 19.5618 41.24 18.9589C41.6381 18.3527 42.2591 18.0497 43.1031 18.0497C43.9566 18.0497 44.5792 18.3575 44.9709 18.9732C45.3659 19.5857 45.5633 20.5124 45.5633 21.7534ZM44.3069 23.9258C44.4184 23.6674 44.4932 23.3644 44.5314 23.0167C44.573 22.6658 44.5938 22.2447 44.5938 21.7534C44.5938 21.2685 44.573 20.8474 44.5314 20.4901C44.4931 20.1328 44.4166 19.8297 44.3021 19.5809C44.1907 19.3353 44.0378 19.1503 43.8435 19.0258C43.6524 18.9014 43.4056 18.8392 43.1031 18.8392C42.8037 18.8392 42.5553 18.9014 42.3578 19.0258C42.1636 19.1502 42.0091 19.3384 41.8945 19.5904C41.7862 19.8265 41.7113 20.1344 41.67 20.514C41.6316 20.8936 41.6125 21.3099 41.6125 21.7629C41.6125 22.2606 41.63 22.6769 41.6652 23.0118C41.7003 23.3468 41.7751 23.6467 41.8896 23.9114C41.9947 24.1602 42.1428 24.35 42.3339 24.4808C42.5282 24.6116 42.7845 24.677 43.103 24.677C43.4024 24.677 43.6508 24.6148 43.8482 24.4904C44.0457 24.366 44.1986 24.1778 44.3069 23.9258Z" fill="#B3B3B3"/>
<path d="M51.3961 25.3183H47.5458V24.591H49.0267V19.8154H47.5458V19.1646C47.7464 19.1646 47.9614 19.1486 48.1907 19.1167C48.4201 19.0815 48.5936 19.032 48.7114 18.9683C48.8579 18.8885 48.9726 18.788 49.0554 18.6668C49.1414 18.5424 49.1907 18.3765 49.2034 18.1692H49.9439V24.5908H51.3961V25.3183Z" fill="#B3B3B3"/>
<path d="M58.022 21.7534C58.022 23.0326 57.8213 23.9721 57.42 24.5718C57.0219 25.1684 56.4025 25.4667 55.5617 25.4667C54.7082 25.4667 54.084 25.1636 53.6891 24.5575C53.2974 23.9514 53.1015 23.0198 53.1015 21.7629C53.1015 20.4965 53.3006 19.5618 53.6987 18.9589C54.0968 18.3527 54.7178 18.0497 55.5617 18.0497C56.4152 18.0497 57.0379 18.3575 57.4296 18.9732C57.8245 19.5857 58.022 20.5124 58.022 21.7534ZM56.7656 23.9258C56.877 23.6674 56.9519 23.3644 56.9901 23.0167C57.0317 22.6658 57.0525 22.2447 57.0525 21.7534C57.0525 21.2685 57.0317 20.8474 56.9901 20.4901C56.9517 20.1328 56.8753 19.8297 56.7608 19.5809C56.6493 19.3353 56.4964 19.1503 56.3022 19.0258C56.1111 18.9014 55.8643 18.8392 55.5617 18.8392C55.2624 18.8392 55.0139 18.9014 54.8165 19.0258C54.6222 19.1502 54.4678 19.3384 54.3532 19.5904C54.2449 19.8265 54.17 20.1344 54.1287 20.514C54.0903 20.8936 54.0711 21.3099 54.0711 21.7629C54.0711 22.2606 54.0887 22.6769 54.1238 23.0118C54.1589 23.3468 54.2338 23.6467 54.3483 23.9114C54.4534 24.1602 54.6015 24.35 54.7926 24.4808C54.9868 24.6116 55.2432 24.677 55.5617 24.677C55.861 24.677 56.1095 24.6148 56.3069 24.4904C56.5044 24.366 56.6573 24.1778 56.7656 23.9258Z" fill="#B3B3B3"/>
<path d="M63.8548 25.3183H60.0045V24.591H61.4853V19.8154H60.0045V19.1646C60.2051 19.1646 60.4201 19.1486 60.6494 19.1167C60.8787 19.0815 61.0522 19.032 61.17 18.9683C61.3165 18.8885 61.4312 18.788 61.514 18.6668C61.6 18.5424 61.6494 18.3765 61.6621 18.1692H62.4026V24.5908H63.8548V25.3183Z" fill="#B3B3B3"/>
<path d="M24.7591 35.1183H20.9088V34.391H22.3897V29.6154H20.9088V28.9646C21.1094 28.9646 21.3244 28.9486 21.5537 28.9167C21.783 28.8815 21.9566 28.832 22.0744 28.7683C22.2209 28.6885 22.3355 28.588 22.4183 28.4668C22.5043 28.3424 22.5537 28.1765 22.5664 27.9692H23.3069V34.3908H24.7591V35.1183Z" fill="#B3B3B3"/>
<path d="M30.9884 35.1183H27.1381V34.391H28.619V29.6154H27.1381V28.9646C27.3387 28.9646 27.5537 28.9486 27.783 28.9167C28.0123 28.8815 28.1858 28.832 28.3037 28.7683C28.4502 28.6885 28.5649 28.588 28.6476 28.4668C28.7336 28.3424 28.783 28.1765 28.7957 27.9692H29.5362V34.3908H30.9884V35.1183Z" fill="#B3B3B3"/>
<path d="M37.2177 35.1183H33.3674V34.391H34.8483V29.6154H33.3674V28.9646C33.568 28.9646 33.7831 28.9486 34.0124 28.9167C34.2417 28.8815 34.4152 28.832 34.533 28.7683C34.6795 28.6885 34.7942 28.588 34.877 28.4668C34.963 28.3424 35.0123 28.1765 35.025 27.9692H35.7655V34.3908H37.2177V35.1183Z" fill="#B3B3B3"/>
<path d="M43.8435 31.5534C43.8435 32.8326 43.6429 33.7721 43.2416 34.3718C42.8435 34.9684 42.2241 35.2666 41.3833 35.2666C40.5298 35.2666 39.9056 34.9636 39.5107 34.3575C39.119 33.7513 38.9231 32.8198 38.9231 31.5629C38.9231 30.2965 39.1222 29.3618 39.5203 28.7588C39.9184 28.1527 40.5394 27.8497 41.3833 27.8497C42.2369 27.8497 42.8595 28.1575 43.2512 28.7732C43.6461 29.3857 43.8435 30.3124 43.8435 31.5534ZM42.5872 33.7258C42.6986 33.4674 42.7735 33.1644 42.8117 32.8166C42.8533 32.4657 42.8741 32.0446 42.8741 31.5534C42.8741 31.0685 42.8533 30.6474 42.8117 30.2901C42.7733 29.9328 42.6969 29.6297 42.5824 29.3809C42.4709 29.1353 42.3181 28.9503 42.1238 28.8258C41.9327 28.7014 41.6859 28.6392 41.3833 28.6392C41.084 28.6392 40.8355 28.7014 40.6381 28.8258C40.4438 28.9502 40.2894 29.1384 40.1747 29.3904C40.0664 29.6265 39.9916 29.9343 39.9502 30.314C39.9119 30.6936 39.8927 31.1099 39.8927 31.5629C39.8927 32.0605 39.9103 32.4768 39.9454 32.8118C39.9806 33.1468 40.0554 33.4466 40.1699 33.7114C40.275 33.9602 40.4231 34.15 40.6142 34.2808C40.8085 34.4116 41.0648 34.477 41.3833 34.477C41.6827 34.477 41.9311 34.4148 42.1285 34.2904C42.326 34.166 42.4789 33.9778 42.5872 33.7258Z" fill="#B3B3B3"/>
<path d="M49.6764 35.1183H45.826V34.391H47.3069V29.6154H45.826V28.9646C46.0267 28.9646 46.2417 28.9486 46.471 28.9167C46.7003 28.8815 46.8738 28.832 46.9916 28.7683C47.1381 28.6885 47.2528 28.588 47.3356 28.4668C47.4216 28.3424 47.4709 28.1765 47.4837 27.9692H48.2242V34.3908H49.6764V35.1183Z" fill="#B3B3B3"/>
<path d="M56.3022 31.5534C56.3022 32.8326 56.1015 33.7721 55.7003 34.3718C55.3021 34.9684 54.6827 35.2666 53.842 35.2666C52.9885 35.2666 52.3642 34.9636 51.9693 34.3575C51.5776 33.7513 51.3818 32.8198 51.3818 31.5629C51.3818 30.2965 51.5808 29.3618 51.9789 28.7588C52.377 28.1527 52.998 27.8497 53.842 27.8497C54.6955 27.8497 55.3181 28.1575 55.7098 28.7732C56.1047 29.3857 56.3022 30.3124 56.3022 31.5534ZM55.0458 33.7258C55.1573 33.4674 55.2321 33.1644 55.2703 32.8166C55.3119 32.4657 55.3327 32.0446 55.3327 31.5534C55.3327 31.0685 55.3119 30.6474 55.2703 30.2901C55.2319 29.9328 55.1555 29.6297 55.041 29.3809C54.9295 29.1353 54.7767 28.9503 54.5824 28.8258C54.3913 28.7014 54.1445 28.6392 53.842 28.6392C53.5426 28.6392 53.2942 28.7014 53.0967 28.8258C52.9024 28.9502 52.748 29.1384 52.6334 29.3904C52.5251 29.6265 52.4503 29.9343 52.4089 30.314C52.3705 30.6936 52.3514 31.1099 52.3514 31.5629C52.3514 32.0605 52.3689 32.4768 52.404 32.8118C52.4392 33.1468 52.514 33.4466 52.6285 33.7114C52.7336 33.9602 52.8817 34.15 53.0728 34.2808C53.2671 34.4116 53.5234 34.477 53.8419 34.477C54.1413 34.477 54.3897 34.4148 54.5872 34.2904C54.7846 34.166 54.9375 33.9778 55.0458 33.7258Z" fill="#B3B3B3"/>
<path d="M62.1351 35.1183H58.2848V34.391H59.7656V29.6154H58.2848V28.9646C58.4854 28.9646 58.7004 28.9486 58.9297 28.9167C59.159 28.8815 59.3326 28.832 59.4504 28.7683C59.5969 28.6885 59.7115 28.588 59.7943 28.4668C59.8803 28.3424 59.9297 28.1765 59.9424 27.9692H60.6829V34.3908H62.1351L62.1351 35.1183Z" fill="#B3B3B3"/>
<path d="M68.761 31.5534C68.761 32.8326 68.5603 33.7721 68.159 34.3718C67.7609 34.9684 67.1415 35.2666 66.3007 35.2666C65.4472 35.2666 64.823 34.9636 64.4281 34.3575C64.0364 33.7513 63.8405 32.8198 63.8405 31.5629C63.8405 30.2965 64.0396 29.3618 64.4377 28.7588C64.8358 28.1527 65.4568 27.8497 66.3007 27.8497C67.1542 27.8497 67.7769 28.1575 68.1686 28.7732C68.5635 29.3857 68.761 30.3124 68.761 31.5534ZM67.5046 33.7258C67.6161 33.4674 67.6909 33.1644 67.7291 32.8166C67.7707 32.4657 67.7915 32.0446 67.7915 31.5534C67.7915 31.0685 67.7707 30.6474 67.7291 30.2901C67.6907 29.9328 67.6143 29.6297 67.4998 29.3809C67.3883 29.1353 67.2354 28.9503 67.0412 28.8258C66.8501 28.7014 66.6033 28.6392 66.3007 28.6392C66.0014 28.6392 65.7529 28.7014 65.5555 28.8258C65.3612 28.9502 65.2068 29.1384 65.0922 29.3904C64.9839 29.6265 64.909 29.9343 64.8677 30.314C64.8293 30.6936 64.8101 31.1099 64.8101 31.5629C64.8101 32.0605 64.8277 32.4768 64.8628 32.8118C64.8979 33.1468 64.9728 33.4466 65.0873 33.7114C65.1924 33.9602 65.3405 34.15 65.5316 34.2808C65.7258 34.4116 65.9822 34.477 66.3007 34.477C66.6001 34.477 66.8485 34.4148 67.0459 34.2904C67.2434 34.166 67.3963 33.9778 67.5046 33.7258Z" fill="#B3B3B3"/>
<path d="M18.9262 41.3534C18.9262 42.6326 18.7256 43.5721 18.3243 44.1718C17.9262 44.7684 17.3067 45.0666 16.466 45.0666C15.6125 45.0666 14.9883 44.7636 14.5934 44.1575C14.2016 43.5513 14.0058 42.6198 14.0058 41.3629C14.0058 40.0965 14.2048 39.1618 14.6029 38.5588C15.001 37.9527 15.6221 37.6496 16.466 37.6496C17.3196 37.6496 17.9421 37.9575 18.3339 38.5732C18.7288 39.1857 18.9262 40.1124 18.9262 41.3534ZM17.6699 43.5258C17.7813 43.2674 17.8562 42.9644 17.8943 42.6166C17.9359 42.2657 17.9568 41.8446 17.9568 41.3534C17.9568 40.8685 17.9359 40.4474 17.8943 40.0901C17.856 39.7328 17.7796 39.4297 17.6651 39.1809C17.5536 38.9353 17.4007 38.7502 17.2064 38.6258C17.0153 38.5014 16.7685 38.4392 16.466 38.4392C16.1666 38.4392 15.9182 38.5014 15.7208 38.6258C15.5265 38.7502 15.372 38.9384 15.2574 39.1904C15.1491 39.4265 15.0742 39.7343 15.0329 40.1139C14.9945 40.4936 14.9753 40.9099 14.9753 41.3629C14.9753 41.8605 14.9929 42.2768 15.028 42.6118C15.0631 42.9468 15.138 43.2466 15.2525 43.5114C15.3576 43.7602 15.5057 43.95 15.6968 44.0808C15.891 44.2116 16.1474 44.277 16.4659 44.277C16.7653 44.277 17.0137 44.2148 17.2111 44.0904C17.4086 43.966 17.5616 43.7778 17.6699 43.5258Z" fill="#B3B3B3"/>
<path d="M24.7591 44.9183H20.9088V44.1909H22.3897V39.4154H20.9088V38.7646C21.1094 38.7646 21.3244 38.7486 21.5537 38.7166C21.783 38.6815 21.9566 38.632 22.0744 38.5683C22.2209 38.4885 22.3355 38.388 22.4183 38.2668C22.5043 38.1424 22.5537 37.9765 22.5664 37.7691H23.3069V44.1908H24.7591V44.9183Z" fill="#B3B3B3"/>
<path d="M31.3849 41.3534C31.3849 42.6326 31.1843 43.5721 30.783 44.1718C30.3849 44.7684 29.7654 45.0666 28.9247 45.0666C28.0712 45.0666 27.447 44.7636 27.0521 44.1575C26.6604 43.5513 26.4645 42.6198 26.4645 41.3629C26.4645 40.0965 26.6635 39.1618 27.0616 38.5588C27.4597 37.9527 28.0808 37.6496 28.9247 37.6496C29.7782 37.6496 30.4008 37.9575 30.7926 38.5732C31.1875 39.1857 31.3849 40.1124 31.3849 41.3534ZM30.1285 43.5258C30.24 43.2674 30.3149 42.9644 30.353 42.6166C30.3946 42.2657 30.4155 41.8446 30.4155 41.3534C30.4155 40.8685 30.3946 40.4474 30.353 40.0901C30.3147 39.7328 30.2383 39.4297 30.1238 39.1809C30.0123 38.9353 29.8594 38.7502 29.6652 38.6258C29.4741 38.5014 29.2272 38.4392 28.9247 38.4392C28.6253 38.4392 28.3769 38.5014 28.1795 38.6258C27.9852 38.7502 27.8307 38.9384 27.7161 39.1904C27.6078 39.4265 27.533 39.7343 27.4916 40.1139C27.4533 40.4936 27.4341 40.9099 27.4341 41.3629C27.4341 41.8605 27.4516 42.2768 27.4868 42.6118C27.5219 42.9468 27.5967 43.2466 27.7113 43.5114C27.8164 43.7602 27.9645 43.95 28.1556 44.0808C28.3498 44.2116 28.6062 44.277 28.9247 44.277C29.2241 44.277 29.4724 44.2148 29.6699 44.0904C29.8673 43.966 30.0203 43.7778 30.1285 43.5258Z" fill="#B3B3B3"/>
<path d="M37.2177 44.9183H33.3674V44.1909H34.8483V39.4154H33.3674V38.7646C33.568 38.7646 33.7831 38.7486 34.0124 38.7166C34.2417 38.6815 34.4152 38.632 34.533 38.5683C34.6795 38.4885 34.7942 38.388 34.877 38.2668C34.963 38.1424 35.0123 37.9765 35.025 37.7691H35.7655V44.1908H37.2177V44.9183Z" fill="#B3B3B3"/>
<path d="M43.8435 41.3534C43.8435 42.6326 43.6429 43.5721 43.2416 44.1718C42.8435 44.7684 42.2241 45.0666 41.3833 45.0666C40.5298 45.0666 39.9056 44.7636 39.5107 44.1575C39.119 43.5513 38.9231 42.6198 38.9231 41.3629C38.9231 40.0965 39.1222 39.1618 39.5203 38.5588C39.9184 37.9527 40.5394 37.6496 41.3833 37.6496C42.2369 37.6496 42.8595 37.9575 43.2512 38.5732C43.6461 39.1857 43.8435 40.1124 43.8435 41.3534ZM42.5872 43.5258C42.6986 43.2674 42.7735 42.9644 42.8117 42.6166C42.8533 42.2657 42.8741 41.8446 42.8741 41.3534C42.8741 40.8685 42.8533 40.4474 42.8117 40.0901C42.7733 39.7328 42.6969 39.4297 42.5824 39.1809C42.471 38.9353 42.3181 38.7502 42.1238 38.6258C41.9328 38.5014 41.686 38.4392 41.3834 38.4392C41.084 38.4392 40.8356 38.5014 40.6382 38.6258C40.4439 38.7502 40.2895 38.9384 40.1748 39.1904C40.0665 39.4265 39.9917 39.7343 39.9503 40.1139C39.912 40.4936 39.8928 40.9099 39.8928 41.3629C39.8928 41.8605 39.9103 42.2768 39.9455 42.6118C39.9806 42.9468 40.0554 43.2466 40.17 43.5114C40.2751 43.7602 40.4232 43.95 40.6142 44.0808C40.8085 44.2116 41.0649 44.277 41.3833 44.277C41.6827 44.277 41.9312 44.2148 42.1286 44.0904C42.3261 43.966 42.4789 43.7778 42.5872 43.5258Z" fill="#B3B3B3"/>
<path d="M50.0729 41.3534C50.0729 42.6326 49.8723 43.5721 49.471 44.1718C49.0729 44.7684 48.4534 45.0666 47.6127 45.0666C46.7592 45.0666 46.135 44.7636 45.7401 44.1575C45.3484 43.5513 45.1525 42.6198 45.1525 41.3629C45.1525 40.0965 45.3515 39.1618 45.7496 38.5588C46.1477 37.9527 46.7688 37.6496 47.6127 37.6496C48.4663 37.6496 49.0888 37.9575 49.4806 38.5732C49.8755 39.1857 50.0729 40.1124 50.0729 41.3534ZM48.8166 43.5258C48.928 43.2674 49.0029 42.9644 49.041 42.6166C49.0826 42.2657 49.1035 41.8446 49.1035 41.3534C49.1035 40.8685 49.0826 40.4474 49.041 40.0901C49.0027 39.7328 48.9263 39.4297 48.8118 39.1809C48.7003 38.9353 48.5474 38.7502 48.3531 38.6258C48.162 38.5014 47.9152 38.4392 47.6127 38.4392C47.3133 38.4392 47.0649 38.5014 46.8675 38.6258C46.6732 38.7502 46.5188 38.9384 46.4041 39.1904C46.2958 39.4265 46.221 39.7343 46.1796 40.1139C46.1413 40.4936 46.1221 40.9099 46.1221 41.3629C46.1221 41.8605 46.1396 42.2768 46.1748 42.6118C46.2099 42.9468 46.2847 43.2466 46.3993 43.5114C46.5044 43.7602 46.6525 43.95 46.8435 44.0808C47.0378 44.2116 47.2942 44.277 47.6126 44.277C47.912 44.277 48.1604 44.2148 48.3579 44.0904C48.5553 43.966 48.7083 43.7778 48.8166 43.5258Z" fill="#B3B3B3"/>
<path d="M55.9058 44.9183H52.0554V44.1909H53.5363V39.4154H52.0554V38.7646C52.2561 38.7646 52.471 38.7486 52.7003 38.7166C52.9297 38.6815 53.1032 38.632 53.2211 38.5683C53.3675 38.4885 53.4822 38.388 53.565 38.2668C53.651 38.1424 53.7003 37.9765 53.7131 37.7691H54.4535V44.1908H55.9058V44.9183Z" fill="#B3B3B3"/>
<path d="M62.5315 41.3534C62.5315 42.6326 62.3309 43.5721 61.9296 44.1718C61.5315 44.7684 60.9121 45.0666 60.0713 45.0666C59.2178 45.0666 58.5936 44.7636 58.1987 44.1575C57.807 43.5513 57.6111 42.6198 57.6111 41.3629C57.6111 40.0965 57.8101 39.1618 58.2082 38.5588C58.6064 37.9527 59.2274 37.6496 60.0714 37.6496C60.9249 37.6496 61.5474 37.9575 61.9392 38.5732C62.3341 39.1857 62.5315 40.1124 62.5315 41.3534ZM61.2752 43.5258C61.3866 43.2674 61.4615 42.9644 61.4997 42.6166C61.5413 42.2657 61.5621 41.8446 61.5621 41.3534C61.5621 40.8685 61.5413 40.4474 61.4997 40.0901C61.4613 39.7328 61.3849 39.4297 61.2704 39.1809C61.1589 38.9353 61.0061 38.7502 60.8118 38.6258C60.6207 38.5014 60.3739 38.4392 60.0713 38.4392C59.7719 38.4392 59.5235 38.5014 59.3261 38.6258C59.1318 38.7502 58.9774 38.9384 58.8627 39.1904C58.7544 39.4265 58.6796 39.7343 58.6382 40.1139C58.5999 40.4936 58.5807 40.9099 58.5807 41.3629C58.5807 41.8605 58.5982 42.2768 58.6334 42.6118C58.6685 42.9468 58.7433 43.2466 58.8579 43.5114C58.963 43.7602 59.1111 43.95 59.3022 44.0808C59.4965 44.2116 59.7528 44.277 60.0713 44.277C60.3707 44.277 60.6191 44.2148 60.8165 44.0904C61.014 43.966 61.1669 43.7778 61.2752 43.5258Z" fill="#B3B3B3"/>
<path d="M68.3644 44.9183H64.5141V44.1909H65.995V39.4154H64.5141V38.7646C64.7147 38.7646 64.9297 38.7486 65.159 38.7166C65.3883 38.6815 65.5619 38.632 65.6797 38.5683C65.8261 38.4885 65.9408 38.388 66.0237 38.2668C66.1096 38.1424 66.159 37.9765 66.1717 37.7691H66.9122V44.1908H68.3644V44.9183Z" fill="#B3B3B3"/>
<path d="M74.9902 41.3534C74.9902 42.6326 74.7896 43.5721 74.3883 44.1718C73.9902 44.7684 73.3707 45.0666 72.53 45.0666C71.6765 45.0666 71.0523 44.7636 70.6574 44.1575C70.2656 43.5513 70.0697 42.6198 70.0697 41.3629C70.0697 40.0965 70.2688 39.1618 70.6669 38.5588C71.065 37.9527 71.686 37.6496 72.53 37.6496C73.3835 37.6496 74.0061 37.9575 74.3978 38.5732C74.7928 39.1857 74.9902 40.1124 74.9902 41.3534ZM73.7338 43.5258C73.8453 43.2674 73.9202 42.9644 73.9583 42.6166C73.9999 42.2657 74.0207 41.8446 74.0207 41.3534C74.0207 40.8685 73.9999 40.4474 73.9583 40.0901C73.92 39.7328 73.8435 39.4297 73.729 39.1809C73.6176 38.9353 73.4647 38.7502 73.2705 38.6258C73.0794 38.5014 72.8326 38.4392 72.53 38.4392C72.2307 38.4392 71.9822 38.5014 71.7848 38.6258C71.5905 38.7502 71.4361 38.9384 71.3215 39.1904C71.2132 39.4265 71.1383 39.7343 71.097 40.1139C71.0586 40.4936 71.0394 40.9099 71.0394 41.3629C71.0394 41.8605 71.057 42.2768 71.0921 42.6118C71.1272 42.9468 71.2021 43.2466 71.3166 43.5114C71.4217 43.7602 71.5698 43.95 71.7609 44.0808C71.9551 44.2116 72.2115 44.277 72.53 44.277C72.8294 44.277 73.0778 44.2148 73.2752 44.0904C73.4727 43.966 73.6255 43.7778 73.7338 43.5258Z" fill="#B3B3B3"/>
<path d="M18.5297 54.7183H14.6794V53.9909H16.1603V49.2154H14.6794V48.5645C14.88 48.5645 15.095 48.5486 15.3244 48.5166C15.5537 48.4814 15.7272 48.432 15.845 48.3683C15.9915 48.2885 16.1062 48.188 16.189 48.0668C16.275 47.9424 16.3243 47.7765 16.337 47.5691H17.0775V53.9908H18.5297V54.7183Z" fill="#B3B3B3"/>
<path d="M24.7591 54.7183H20.9088V53.9909H22.3897V49.2154H20.9088V48.5645C21.1094 48.5645 21.3244 48.5486 21.5537 48.5166C21.783 48.4814 21.9566 48.432 22.0744 48.3683C22.2209 48.2885 22.3355 48.188 22.4183 48.0668C22.5043 47.9424 22.5537 47.7765 22.5664 47.5691H23.3069V53.9908H24.7591V54.7183Z" fill="#B3B3B3"/>
<path d="M30.9884 54.7183H27.1381V53.9909H28.619V49.2154H27.1381V48.5645C27.3387 48.5645 27.5537 48.5486 27.783 48.5166C28.0123 48.4814 28.1858 48.432 28.3037 48.3683C28.4502 48.2885 28.5649 48.188 28.6476 48.0668C28.7336 47.9424 28.783 47.7765 28.7957 47.5691H29.5362V53.9908H30.9884V54.7183Z" fill="#B3B3B3"/>
<path d="M37.6143 51.1533C37.6143 52.4326 37.4136 53.3721 37.0123 53.9718C36.6142 54.5683 35.9948 54.8666 35.154 54.8666C34.3005 54.8666 33.6763 54.5636 33.2814 53.9575C32.8897 53.3513 32.6938 52.4198 32.6938 51.1629C32.6938 49.8964 32.8929 48.9618 33.291 48.3588C33.6891 47.7527 34.3101 47.4496 35.154 47.4496C36.0075 47.4496 36.6302 47.7575 37.0219 48.3732C37.4168 48.9857 37.6143 49.9124 37.6143 51.1533ZM36.3579 53.3258C36.4694 53.0674 36.5442 52.7644 36.5824 52.4166C36.624 52.0657 36.6448 51.6446 36.6448 51.1533C36.6448 50.6684 36.624 50.2474 36.5824 49.8901C36.544 49.5328 36.4676 49.2297 36.3531 48.9809C36.2416 48.7353 36.0887 48.5502 35.8944 48.4258C35.7034 48.3014 35.4566 48.2392 35.154 48.2392C34.8546 48.2392 34.6062 48.3014 34.4088 48.4258C34.2145 48.5502 34.0601 48.7384 33.9454 48.9904C33.8371 49.2265 33.7623 49.5343 33.721 49.9139C33.6826 50.2935 33.6634 50.7099 33.6634 51.1629C33.6634 51.6605 33.681 52.0768 33.7161 52.4118C33.7512 52.7468 33.826 53.0466 33.9406 53.3114C34.0457 53.5602 34.1938 53.75 34.3848 53.8808C34.5791 54.0116 34.8355 54.077 35.154 54.077C35.4533 54.077 35.7018 54.0148 35.8992 53.8904C36.0967 53.766 36.2496 53.5778 36.3579 53.3258Z" fill="#B3B3B3"/>
<path d="M43.4471 54.7183H39.5968V53.9909H41.0776V49.2154H39.5968V48.5645C39.7974 48.5645 40.0124 48.5486 40.2417 48.5166C40.471 48.4814 40.6446 48.432 40.7624 48.3683C40.9089 48.2885 41.0235 48.188 41.1063 48.0668C41.1923 47.9424 41.2417 47.7765 41.2544 47.5691H41.9949V53.9908H43.4471V54.7183Z" fill="#B3B3B3"/>
<path d="M50.0729 51.1533C50.0729 52.4326 49.8723 53.3721 49.471 53.9718C49.0729 54.5683 48.4534 54.8666 47.6127 54.8666C46.7592 54.8666 46.135 54.5636 45.7401 53.9575C45.3484 53.3513 45.1525 52.4198 45.1525 51.1629C45.1525 49.8964 45.3515 48.9618 45.7496 48.3588C46.1477 47.7527 46.7688 47.4496 47.6127 47.4496C48.4663 47.4496 49.0888 47.7575 49.4806 48.3732C49.8755 48.9857 50.0729 49.9124 50.0729 51.1533ZM48.8166 53.3258C48.928 53.0674 49.0029 52.7644 49.041 52.4166C49.0826 52.0657 49.1035 51.6446 49.1035 51.1533C49.1035 50.6684 49.0826 50.2474 49.041 49.8901C49.0027 49.5328 48.9263 49.2297 48.8118 48.9809C48.7003 48.7353 48.5474 48.5502 48.3531 48.4258C48.162 48.3014 47.9152 48.2392 47.6127 48.2392C47.3133 48.2392 47.0649 48.3014 46.8675 48.4258C46.6732 48.5502 46.5188 48.7384 46.4041 48.9904C46.2958 49.2265 46.221 49.5343 46.1796 49.9139C46.1413 50.2935 46.1221 50.7099 46.1221 51.1629C46.1221 51.6605 46.1396 52.0768 46.1748 52.4118C46.2099 52.7468 46.2847 53.0466 46.3993 53.3114C46.5044 53.5602 46.6525 53.75 46.8435 53.8808C47.0378 54.0116 47.2942 54.077 47.6126 54.077C47.912 54.077 48.1604 54.0148 48.3579 53.8904C48.5553 53.766 48.7083 53.5778 48.8166 53.3258Z" fill="#B3B3B3"/>
<path d="M55.9058 54.7183H52.0554V53.9909H53.5363V49.2154H52.0554V48.5645C52.2561 48.5645 52.471 48.5486 52.7003 48.5166C52.9297 48.4814 53.1032 48.432 53.2211 48.3683C53.3675 48.2885 53.4822 48.188 53.565 48.0668C53.651 47.9424 53.7003 47.7765 53.7131 47.5691H54.4535V53.9908H55.9058V54.7183Z" fill="#B3B3B3"/>
<path d="M62.5315 51.1533C62.5315 52.4326 62.3309 53.3721 61.9296 53.9718C61.5315 54.5683 60.9121 54.8666 60.0713 54.8666C59.2178 54.8666 58.5936 54.5636 58.1987 53.9575C57.807 53.3513 57.6111 52.4198 57.6111 51.1629C57.6111 49.8964 57.8101 48.9618 58.2082 48.3588C58.6064 47.7527 59.2274 47.4496 60.0714 47.4496C60.9249 47.4496 61.5474 47.7575 61.9392 48.3732C62.3341 48.9857 62.5315 49.9124 62.5315 51.1533ZM61.2752 53.3258C61.3866 53.0674 61.4615 52.7644 61.4997 52.4166C61.5413 52.0657 61.5621 51.6446 61.5621 51.1533C61.5621 50.6684 61.5413 50.2474 61.4997 49.8901C61.4613 49.5328 61.3849 49.2297 61.2704 48.9809C61.1589 48.7353 61.0061 48.5502 60.8118 48.4258C60.6207 48.3014 60.3739 48.2392 60.0713 48.2392C59.7719 48.2392 59.5235 48.3014 59.3261 48.4258C59.1318 48.5502 58.9774 48.7384 58.8627 48.9904C58.7544 49.2265 58.6796 49.5343 58.6382 49.9139C58.5999 50.2935 58.5807 50.7099 58.5807 51.1629C58.5807 51.6605 58.5982 52.0768 58.6334 52.4118C58.6685 52.7468 58.7433 53.0466 58.8579 53.3114C58.963 53.5602 59.1111 53.75 59.3022 53.8808C59.4965 54.0116 59.7528 54.077 60.0713 54.077C60.3707 54.077 60.6191 54.0148 60.8165 53.8904C61.014 53.766 61.1669 53.5778 61.2752 53.3258Z" fill="#B3B3B3"/>
<path d="M68.3644 54.7183H64.5141V53.9909H65.995V49.2154H64.5141V48.5645C64.7147 48.5645 64.9297 48.5486 65.159 48.5166C65.3883 48.4814 65.5619 48.432 65.6797 48.3683C65.8261 48.2885 65.9408 48.188 66.0237 48.0668C66.1096 47.9424 66.159 47.7765 66.1717 47.5691H66.9122V53.9908H68.3644V54.7183Z" fill="#B3B3B3"/>
<path d="M74.9902 51.1533C74.9902 52.4326 74.7896 53.3721 74.3883 53.9718C73.9902 54.5683 73.3707 54.8666 72.53 54.8666C71.6765 54.8666 71.0523 54.5636 70.6574 53.9575C70.2656 53.3513 70.0697 52.4198 70.0697 51.1629C70.0697 49.8964 70.2688 48.9618 70.6669 48.3588C71.065 47.7527 71.686 47.4496 72.53 47.4496C73.3835 47.4496 74.0061 47.7575 74.3978 48.3732C74.7928 48.9857 74.9902 49.9124 74.9902 51.1533ZM73.7338 53.3258C73.8453 53.0674 73.9202 52.7644 73.9583 52.4166C73.9999 52.0657 74.0207 51.6446 74.0207 51.1533C74.0207 50.6684 73.9999 50.2474 73.9583 49.8901C73.92 49.5328 73.8435 49.2297 73.729 48.9809C73.6176 48.7353 73.4647 48.5502 73.2705 48.4258C73.0794 48.3014 72.8326 48.2392 72.53 48.2392C72.2307 48.2392 71.9822 48.3014 71.7848 48.4258C71.5905 48.5502 71.4361 48.7384 71.3215 48.9904C71.2132 49.2265 71.1383 49.5343 71.097 49.9139C71.0586 50.2935 71.0394 50.7099 71.0394 51.1629C71.0394 51.6605 71.057 52.0768 71.0921 52.4118C71.1272 52.7468 71.2021 53.0466 71.3166 53.3114C71.4217 53.5602 71.5698 53.75 71.7609 53.8808C71.9551 54.0116 72.2115 54.077 72.53 54.077C72.8294 54.077 73.0778 54.0148 73.2752 53.8904C73.4727 53.766 73.6255 53.5778 73.7338 53.3258Z" fill="#B3B3B3"/>
<path d="M25.1556 60.9533C25.1556 62.2326 24.955 63.1721 24.5537 63.7718C24.1556 64.3683 23.5361 64.6666 22.6954 64.6666C21.8419 64.6666 21.2177 64.3636 20.8228 63.7575C20.431 63.1513 20.2352 62.2198 20.2352 60.9629C20.2352 59.6964 20.4342 58.7617 20.8323 58.1588C21.2304 57.5527 21.8514 57.2496 22.6954 57.2496C23.5489 57.2496 24.1715 57.5575 24.5632 58.1732C24.9582 58.7857 25.1556 59.7124 25.1556 60.9533ZM23.8992 63.1258C24.0107 62.8674 24.0855 62.5643 24.1237 62.2166C24.1653 61.8657 24.1861 61.4446 24.1861 60.9533C24.1861 60.4684 24.1653 60.0474 24.1237 59.6901C24.0854 59.3328 24.0089 59.0297 23.8944 58.7809C23.7829 58.5353 23.6301 58.3502 23.4358 58.2258C23.2447 58.1014 22.9979 58.0392 22.6954 58.0392C22.396 58.0392 22.1476 58.1014 21.9501 58.2258C21.7559 58.3502 21.6014 58.5384 21.4868 58.7904C21.3785 59.0265 21.3037 59.3343 21.2623 59.7139C21.224 60.0935 21.2048 60.5099 21.2048 60.9629C21.2048 61.4605 21.2223 61.8768 21.2575 62.2118C21.2926 62.5468 21.3674 62.8466 21.4819 63.1114C21.5871 63.3602 21.7351 63.55 21.9262 63.6808C22.1205 63.8116 22.3769 63.877 22.6953 63.877C22.9947 63.877 23.2431 63.8148 23.4406 63.6904C23.638 63.566 23.7909 63.3778 23.8992 63.1258Z" fill="#B3B3B3"/>
<path d="M30.9884 64.5183H27.1381V63.7909H28.619V59.0153H27.1381V58.3645C27.3387 58.3645 27.5537 58.3486 27.783 58.3166C28.0123 58.2814 28.1858 58.232 28.3037 58.1683C28.4502 58.0886 28.5649 57.9881 28.6476 57.8668C28.7336 57.7424 28.783 57.5765 28.7957 57.3691H29.5362V63.7908H30.9884V64.5183Z" fill="#B3B3B3"/>
<path d="M37.2177 64.5183H33.3674V63.7909H34.8483V59.0153H33.3674V58.3645C33.568 58.3645 33.7831 58.3486 34.0124 58.3166C34.2417 58.2814 34.4152 58.232 34.533 58.1683C34.6795 58.0886 34.7942 57.9881 34.877 57.8668C34.963 57.7424 35.0123 57.5765 35.025 57.3691H35.7655V63.7908H37.2177V64.5183Z" fill="#B3B3B3"/>
<path d="M43.8435 60.9533C43.8435 62.2326 43.6429 63.1721 43.2416 63.7718C42.8435 64.3683 42.2241 64.6666 41.3833 64.6666C40.5298 64.6666 39.9056 64.3636 39.5107 63.7575C39.119 63.1513 38.9231 62.2198 38.9231 60.9629C38.9231 59.6964 39.1222 58.7617 39.5203 58.1588C39.9184 57.5527 40.5394 57.2496 41.3833 57.2496C42.2369 57.2496 42.8595 57.5575 43.2512 58.1732C43.6461 58.7857 43.8435 59.7124 43.8435 60.9533ZM42.5872 63.1258C42.6986 62.8674 42.7735 62.5643 42.8117 62.2166C42.8533 61.8657 42.8741 61.4446 42.8741 60.9533C42.8741 60.4684 42.8533 60.0474 42.8117 59.6901C42.7733 59.3328 42.6969 59.0297 42.5824 58.7809C42.4709 58.5353 42.3181 58.3502 42.1238 58.2258C41.9327 58.1014 41.6859 58.0392 41.3833 58.0392C41.084 58.0392 40.8355 58.1014 40.6381 58.2258C40.4438 58.3502 40.2894 58.5384 40.1747 58.7904C40.0664 59.0265 39.9916 59.3343 39.9502 59.7139C39.9119 60.0935 39.8927 60.5099 39.8927 60.9629C39.8927 61.4605 39.9103 61.8768 39.9454 62.2118C39.9806 62.5468 40.0554 62.8466 40.1699 63.1114C40.275 63.3602 40.4231 63.55 40.6142 63.6808C40.8085 63.8116 41.0648 63.877 41.3833 63.877C41.6827 63.877 41.9311 63.8148 42.1285 63.6904C42.326 63.566 42.4789 63.3778 42.5872 63.1258Z" fill="#B3B3B3"/>
<path d="M49.6764 64.5183H45.826V63.7909H47.3069V59.0153H45.826V58.3645C46.0267 58.3645 46.2417 58.3486 46.471 58.3166C46.7003 58.2814 46.8738 58.232 46.9916 58.1683C47.1381 58.0886 47.2528 57.9881 47.3356 57.8668C47.4216 57.7424 47.4709 57.5765 47.4837 57.3691H48.2242V63.7908H49.6764V64.5183Z" fill="#B3B3B3"/>
<path d="M56.3022 60.9533C56.3022 62.2326 56.1015 63.1721 55.7003 63.7718C55.3021 64.3683 54.6827 64.6666 53.842 64.6666C52.9885 64.6666 52.3642 64.3636 51.9693 63.7575C51.5776 63.1513 51.3818 62.2198 51.3818 60.9629C51.3818 59.6964 51.5808 58.7617 51.9789 58.1588C52.377 57.5527 52.998 57.2496 53.842 57.2496C54.6955 57.2496 55.3181 57.5575 55.7098 58.1732C56.1047 58.7857 56.3022 59.7124 56.3022 60.9533ZM55.0458 63.1258C55.1573 62.8674 55.2321 62.5643 55.2703 62.2166C55.3119 61.8657 55.3327 61.4446 55.3327 60.9533C55.3327 60.4684 55.3119 60.0474 55.2703 59.6901C55.2319 59.3328 55.1555 59.0297 55.041 58.7809C54.9295 58.5353 54.7767 58.3502 54.5824 58.2258C54.3913 58.1014 54.1445 58.0392 53.842 58.0392C53.5426 58.0392 53.2942 58.1014 53.0967 58.2258C52.9024 58.3502 52.748 58.5384 52.6334 58.7904C52.5251 59.0265 52.4503 59.3343 52.4089 59.7139C52.3705 60.0935 52.3514 60.5099 52.3514 60.9629C52.3514 61.4605 52.3689 61.8768 52.404 62.2118C52.4392 62.5468 52.514 62.8466 52.6285 63.1114C52.7336 63.3602 52.8817 63.55 53.0728 63.6808C53.2671 63.8116 53.5234 63.877 53.8419 63.877C54.1413 63.877 54.3897 63.8148 54.5872 63.6904C54.7846 63.566 54.9375 63.3778 55.0458 63.1258Z" fill="#B3B3B3"/>
<path d="M62.1351 64.5183H58.2848V63.7909H59.7656V59.0153H58.2848V58.3645C58.4854 58.3645 58.7004 58.3486 58.9297 58.3166C59.159 58.2814 59.3326 58.232 59.4504 58.1683C59.5969 58.0886 59.7115 57.9881 59.7943 57.8668C59.8803 57.7424 59.9297 57.5765 59.9424 57.3691H60.6829V63.7908H62.1351L62.1351 64.5183Z" fill="#B3B3B3"/>
<path d="M68.3644 64.5183H64.5141V63.7909H65.995V59.0153H64.5141V58.3645C64.7147 58.3645 64.9297 58.3486 65.159 58.3166C65.3883 58.2814 65.5619 58.232 65.6797 58.1683C65.8261 58.0886 65.9408 57.9881 66.0237 57.8668C66.1096 57.7424 66.159 57.5765 66.1717 57.3691H66.9122V63.7908H68.3644V64.5183Z" fill="#B3B3B3"/>
<path d="M32.7081 74.3183H28.8578V73.5909H30.3387V68.8153H28.8578V68.1645C29.0585 68.1645 29.2734 68.1486 29.5027 68.1166C29.732 68.0814 29.9056 68.032 30.0234 67.9683C30.1699 67.8886 30.2846 67.7881 30.3674 67.6668C30.4534 67.5424 30.5027 67.3765 30.5155 67.1691H31.2559V73.5908H32.7081V74.3183Z" fill="#B3B3B3"/>
<path d="M38.9375 74.3183H35.0872V73.5909H36.5681V68.8153H35.0872V68.1645C35.2878 68.1645 35.5028 68.1486 35.7321 68.1166C35.9614 68.0814 36.135 68.032 36.2528 67.9683C36.3993 67.8886 36.5139 67.7881 36.5968 67.6668C36.6827 67.5424 36.7321 67.3765 36.7448 67.1691H37.4853V73.5908H38.9375V74.3183Z" fill="#B3B3B3"/>
<path d="M45.1669 74.3183H41.3165V73.5909H42.7974V68.8153H41.3165V68.1645C41.5171 68.1645 41.7321 68.1486 41.9614 68.1166C42.1907 68.0814 42.3643 68.032 42.4821 67.9683C42.6286 67.8886 42.7432 67.7881 42.826 67.6668C42.912 67.5424 42.9614 67.3765 42.9742 67.1691H43.7146V73.5908H45.1669V74.3183Z" fill="#B3B3B3"/>
<path d="M51.7927 70.7533C51.7927 72.0326 51.5921 72.972 51.1908 73.5718C50.7927 74.1683 50.1732 74.4666 49.3325 74.4666C48.479 74.4666 47.8548 74.1636 47.4599 73.5574C47.0681 72.9513 46.8723 72.0198 46.8723 70.7629C46.8723 69.4964 47.0713 68.5617 47.4694 67.9588C47.8675 67.3527 48.4886 67.0496 49.3325 67.0496C50.1861 67.0496 50.8086 67.3575 51.2004 67.9732C51.5953 68.5857 51.7927 69.5124 51.7927 70.7533ZM50.5364 72.9258C50.6478 72.6674 50.7227 72.3643 50.7608 72.0166C50.8024 71.6657 50.8233 71.2446 50.8233 70.7533C50.8233 70.2684 50.8024 69.8473 50.7608 69.4901C50.7225 69.1328 50.6461 68.8297 50.5316 68.5809C50.4201 68.3353 50.2672 68.1502 50.0729 68.0258C49.8819 67.9014 49.635 67.8392 49.3325 67.8392C49.0331 67.8392 48.7847 67.9014 48.5872 68.0258C48.393 68.1502 48.2386 68.3384 48.1239 68.5904C48.0156 68.8265 47.9408 69.1343 47.8994 69.5139C47.8611 69.8935 47.8419 70.3098 47.8419 70.7629C47.8419 71.2605 47.8594 71.6768 47.8946 72.0118C47.9297 72.3468 48.0045 72.6466 48.1191 72.9114C48.2242 73.1602 48.3723 73.35 48.5633 73.4808C48.7576 73.6116 49.014 73.677 49.3324 73.677C49.6318 73.677 49.8802 73.6148 50.0777 73.4904C50.2751 73.366 50.4281 73.1778 50.5364 72.9258Z" fill="#B3B3B3"/>
<path d="M57.6255 74.3183H53.7752V73.5909H55.2561V68.8153H53.7752V68.1645C53.9758 68.1645 54.1908 68.1486 54.4201 68.1166C54.6494 68.0814 54.823 68.032 54.9408 67.9683C55.0873 67.8886 55.2019 67.7881 55.2847 67.6668C55.3707 67.5424 55.4201 67.3765 55.4328 67.1691H56.1733V73.5908H57.6255V74.3183Z" fill="#B3B3B3"/>
<path d="M63.8548 74.3183H60.0045V73.5909H61.4853V68.8153H60.0045V68.1645C60.2051 68.1645 60.4201 68.1486 60.6494 68.1166C60.8787 68.0814 61.0522 68.032 61.17 67.9683C61.3165 67.8886 61.4312 67.7881 61.514 67.6668C61.6 67.5424 61.6494 67.3765 61.6621 67.1691H62.4026V73.5908H63.8548V74.3183Z" fill="#B3B3B3"/>
<path d="M62.6186 84.8627L73.3844 77.2884L110.673 130.795L99.9068 138.37L62.6186 84.8627Z" fill="#DC143C"/>
<path fill-rule="evenodd" clip-rule="evenodd" d="M44.8964 90.368C69.6919 90.368 89.7927 70.1385 89.7927 45.184C89.7927 20.2296 69.6919 0 44.8964 0C20.1008 0 0 20.2296 0 45.184C0 70.1385 20.1008 90.368 44.8964 90.368ZM44.8964 80.8556C64.4718 80.8556 80.3409 64.8849 80.3409 45.184C80.3409 25.4831 64.4718 9.51242 44.8964 9.51242C25.3209 9.51242 9.45186 25.4831 9.45186 45.184C9.45186 64.8849 25.3209 80.8556 44.8964 80.8556Z" fill="#DC143C"/>
</svg>
