<?xml version="1.0" encoding="UTF-8" standalone="no"?>
<!-- Created with Inkscape (http://www.inkscape.org/) -->

<svg
   width="78.250488mm"
   height="20.667433mm"
   viewBox="0 0 78.250488 20.667433"
   version="1.1"
   id="svg5"
   inkscape:version="1.1.2 (b8e25be8, 2022-02-05)"
   sodipodi:docname="ipfixprobe-horizontal copy.svg"
   xmlns:inkscape="http://www.inkscape.org/namespaces/inkscape"
   xmlns:sodipodi="http://sodipodi.sourceforge.net/DTD/sodipodi-0.dtd"
   xmlns="http://www.w3.org/2000/svg"
   xmlns:svg="http://www.w3.org/2000/svg">
  <sodipodi:namedview
     id="namedview7"
     pagecolor="#ffffff"
     bordercolor="#666666"
     borderopacity="1.0"
     inkscape:pageshadow="2"
     inkscape:pageopacity="0.0"
     inkscape:pagecheckerboard="0"
     inkscape:document-units="mm"
     showgrid="false"
     inkscape:zoom="12.734959"
     inkscape:cx="232.7059"
     inkscape:cy="46.25064"
     inkscape:window-width="1920"
     inkscape:window-height="1080"
     inkscape:window-x="0"
     inkscape:window-y="0"
     inkscape:window-maximized="0"
     inkscape:current-layer="g943"
     fit-margin-top="0"
     fit-margin-left="0"
     fit-margin-right="0"
     fit-margin-bottom="0" />
  <defs
     id="defs2">
    <rect
       x="230.87186"
       y="29.53916"
       width="26.041101"
       height="15.158253"
       id="rect15275" />
    <rect
       x="49.30965"
       y="155.18037"
       width="690.33508"
       height="130.52554"
       id="rect1943" />
  </defs>
  <g
     inkscape:label="Layer 1"
     inkscape:groupmode="layer"
     id="layer1"
     transform="translate(-29.705791,-16.569722)">
    <g
       id="g943"
       transform="matrix(0.80302109,0,0,0.83172696,15.076475,3.4585454)">
      <path
         style="fill:#dc143c;fill-opacity:1;stroke-width:0.0335137"
         d="m 82.126168,32.634399 c -0.21314,-0.107553 -0.33074,-0.179353 -0.48323,-0.295022 -0.0733,-0.0556 -0.14829,-0.111894 -0.16664,-0.125085 -0.23402,-0.168266 -0.66912,-0.570924 -0.81667,-0.75577 -0.12492,-0.156507 -0.35522,-0.437285 -0.40817,-0.497635 -0.0321,-0.03657 -0.0583,-0.08039 -0.0583,-0.09739 0,-0.01701 -0.0458,-0.08938 -0.10175,-0.160826 -0.20666,-0.263837 -0.67398,-1.207993 -0.72031,-1.455277 -0.0113,-0.06024 -0.0336,-0.126525 -0.0497,-0.147302 -0.016,-0.02078 -0.0581,-0.164845 -0.0936,-0.320151 -0.0354,-0.155306 -0.083,-0.350617 -0.10573,-0.434025 -0.0566,-0.207614 -0.0598,-1.702149 -0.004,-1.954608 0.14235,-0.646589 0.17755,-0.78781 0.20471,-0.821576 0.0167,-0.02078 0.0496,-0.10602 0.073,-0.189428 0.0234,-0.08341 0.053,-0.166816 0.0658,-0.185351 0.0127,-0.01854 0.0421,-0.09305 0.0652,-0.165587 0.0231,-0.07254 0.0923,-0.224188 0.15377,-0.337001 0.0614,-0.112813 0.14287,-0.263172 0.18093,-0.334131 0.0762,-0.142075 0.32867,-0.521356 0.45248,-0.679787 0.0434,-0.0556 0.11282,-0.145539 0.15415,-0.199853 1.187319,-1.363713 2.28642,-0.952536 0.79793,0.276381 -0.321384,0.427036 -0.63846,0.863117 -0.8818,1.348241 -0.0375,0.105608 -0.0958,0.237695 -0.1295,0.293526 -0.0336,0.05584 -0.0618,0.13184 -0.0624,0.168909 -6.6e-4,0.03707 -0.031,0.150809 -0.0674,0.252753 -0.20255,0.567138 -0.27741,1.699237 -0.156,2.359009 0.14316,0.777955 0.39749,1.419149 0.80769,2.036305 0.10994,0.165412 0.21582,0.327498 0.23527,0.36019 0.0467,0.07841 0.83824,0.872418 0.86974,0.872418 0.0134,0 0.0627,0.03541 0.10957,0.07869 0.26058,0.240823 0.98777,0.618317 1.46827,0.762193 0.13747,0.04117 0.31745,0.09491 0.39993,0.119432 0.41429,0.123158 1.433238,0.168094 1.936978,0.08542 0.75388,-0.123728 1.50941,-0.423399 2.16276,-0.857836 1.06643,-0.709098 1.845,-1.826393 2.15054,-3.086111 0.0292,-0.120477 0.0674,-0.272129 0.0849,-0.337001 0.0534,-0.19842 0.0752,-1.070239 0.0358,-1.432256 -0.0381,-0.349575 -0.17489,-0.969731 -0.2527,-1.145804 -0.0246,-0.05561 -0.0615,-0.154179 -0.082,-0.219051 -0.0652,-0.206453 -0.47952,-0.995829 -0.5571,-1.061555 -0.0219,-0.01854 -0.15643,-0.177769 -0.29899,-0.353851 -0.29968,-0.370133 -0.38481,-0.457559 -0.68092,-0.699337 -0.11915,-0.09728 -0.23913,-0.197315 -0.26663,-0.222294 -0.0426,-0.0387 -0.40811,-0.268663 -0.56657,-0.356465 -0.11332,-0.06279 -0.49625,-0.238494 -0.52207,-0.239555 -0.0153,-6.27e-4 -0.0878,-0.03044 -0.16116,-0.06626 -0.0733,-0.03581 -0.15581,-0.06564 -0.18331,-0.06629 -0.0275,-6.27e-4 -0.19997,-0.03862 -0.38327,-0.08436 -0.1833,-0.04575 -0.43077,-0.09681 -0.54992,-0.113455 -0.24527,-0.03427 -1.418348,0.0087 -1.599738,0.05855 -0.0642,0.01764 -0.24414,0.0642 -0.39995,0.103458 -0.36802,0.09273 -0.66252,0.202423 -0.94152,0.350695 -0.222296,0.05737 -0.388487,0.19366 -0.53878,0.300895 -0.14817,0.08908 -0.31011,0.201349 -0.35987,0.249501 -1.302148,1.228116 -1.674078,0.198772 -0.555019,-0.585623 0.0767,-0.07339 0.304457,-0.246121 0.495447,-0.365507 0.10081,-0.06302 0.19861,-0.126603 0.21732,-0.141299 0.12079,-0.09488 0.84443,-0.412796 1.19912,-0.526813 0.63376,-0.203723 0.83403,-0.241791 1.483108,-0.281922 0.90146,-0.05574 1.59335,0.04285 2.44846,0.348873 0.12767,0.04569 0.24765,0.09538 0.26662,0.110425 0.019,0.01504 0.11306,0.05326 0.20907,0.08494 0.096,0.03167 0.18224,0.07012 0.19161,0.08544 0.009,0.01532 0.12577,0.08323 0.25868,0.150914 0.13291,0.06768 0.25666,0.142655 0.27499,0.166599 0.0184,0.02395 0.14808,0.121458 0.28832,0.216695 0.14024,0.09524 0.29772,0.221472 0.34994,0.280518 0.0522,0.05905 0.13785,0.146479 0.19028,0.194293 0.18801,0.171477 0.52614,0.545212 0.75634,0.835994 0.0709,0.08962 0.46481,0.763835 0.46481,0.795669 0,0.01863 0.0199,0.05781 0.0442,0.08707 0.12698,0.152782 0.43095,1.048521 0.54983,1.620261 0.0739,0.355482 0.0729,1.768439 -0.001,2.106259 -0.11162,0.506812 -0.24638,0.954154 -0.37561,1.246905 -0.18051,0.408928 -0.42062,0.872624 -0.50606,0.977305 -0.0151,0.01854 -0.10012,0.14428 -0.18886,0.279435 -0.0887,0.135154 -0.24462,0.336671 -0.34639,0.447815 -0.812847,1.049826 -2.657311,1.755311 -3.30413,1.931969 -0.76956,0.135092 -1.64687,0.14367 -2.320468,0.02269 -0.2383,-0.0428 -0.44827,-0.08927 -0.46659,-0.103269 -0.0184,-0.014 -0.11582,-0.04464 -0.21664,-0.06809 -0.683026,-0.16277 -0.762181,-0.299831 -1.167098,-0.496826 z m 6.932178,-9.796529 c -3.3e-5,7e-6 -6.7e-5,-7e-6 -1e-4,-10e-6 z"
         id="path1313"
         sodipodi:nodetypes="cscscscccccccscscscccccccsscscscsscccccssssssccssssccccssssscscscscccscccsccccscccccc" />
      <g
         aria-label=" 010101 11101010 0101001010 1110101010 01101011  111011"
         id="text20085"
         style="font-size:1.41111px;line-height:1;stroke-width:0.264583">
        <path
           d="m 83.511873,23.745154 q 0,0.276296 -0.08682,0.405832 -0.08613,0.128846 -0.268028,0.128846 -0.184657,0 -0.270095,-0.130914 -0.08475,-0.130913 -0.08475,-0.402386 0,-0.273541 0.08613,-0.403765 0.08613,-0.130914 0.268717,-0.130914 0.184657,0 0.269406,0.132981 0.08544,0.132291 0.08544,0.40032 z m -0.181212,0.312814 q 0.02411,-0.05581 0.03238,-0.130913 0.009,-0.07579 0.009,-0.181901 0,-0.104731 -0.009,-0.181901 -0.0083,-0.07717 -0.03307,-0.130914 -0.02412,-0.05305 -0.06615,-0.07993 -0.04134,-0.02687 -0.106798,-0.02687 -0.06477,0 -0.107487,0.02687 -0.04203,0.02687 -0.06684,0.0813 -0.02343,0.05099 -0.03238,0.132981 -0.0083,0.08199 -0.0083,0.179834 0,0.107487 0.0076,0.179833 0.0076,0.07235 0.03238,0.129536 0.02274,0.05374 0.06408,0.08199 0.04203,0.02825 0.110932,0.02825 0.06477,0 0.107487,-0.02687 0.04272,-0.02687 0.06615,-0.0813 z"
           style="text-align:center;text-anchor:middle;fill:#b3b3b3"
           id="path929" />
        <path
           d="m 84.353164,24.258472 h -0.555349 v -0.10473 h 0.213596 v -0.687641 h -0.213596 v -0.09371 q 0.04341,0 0.09302,-0.0069 0.04961,-0.0076 0.0751,-0.02136 0.03169,-0.01723 0.04961,-0.04341 0.0186,-0.02687 0.02136,-0.07166 h 0.106798 v 0.924663 h 0.209461 z"
           style="text-align:center;text-anchor:middle;fill:#b3b3b3"
           id="path931" />
        <path
           d="m 85.308833,23.745154 q 0,0.276296 -0.08682,0.405832 -0.08613,0.128846 -0.268028,0.128846 -0.184657,0 -0.270096,-0.130914 -0.08475,-0.130913 -0.08475,-0.402386 0,-0.273541 0.08613,-0.403765 0.08613,-0.130914 0.268718,-0.130914 0.184656,0 0.269406,0.132981 0.08544,0.132291 0.08544,0.40032 z m -0.181212,0.312814 q 0.02412,-0.05581 0.03238,-0.130913 0.009,-0.07579 0.009,-0.181901 0,-0.104731 -0.009,-0.181901 -0.0083,-0.07717 -0.03307,-0.130914 -0.02411,-0.05305 -0.06615,-0.07993 -0.04134,-0.02687 -0.106797,-0.02687 -0.06477,0 -0.107487,0.02687 -0.04203,0.02687 -0.06683,0.0813 -0.02343,0.05099 -0.03238,0.132981 -0.0083,0.08199 -0.0083,0.179834 0,0.107487 0.0076,0.179833 0.0076,0.07235 0.03238,0.129536 0.02274,0.05374 0.06408,0.08199 0.04203,0.02825 0.110932,0.02825 0.06477,0 0.107486,-0.02687 0.04272,-0.02687 0.06615,-0.0813 z"
           style="text-align:center;text-anchor:middle;fill:#b3b3b3"
           id="path933" />
        <path
           d="m 86.150125,24.258472 h -0.555349 v -0.10473 h 0.213595 v -0.687641 h -0.213595 v -0.09371 q 0.04341,0 0.09302,-0.0069 0.04961,-0.0076 0.0751,-0.02136 0.03169,-0.01723 0.04961,-0.04341 0.0186,-0.02687 0.02136,-0.07166 h 0.106798 v 0.924663 h 0.209462 z"
           style="text-align:center;text-anchor:middle;fill:#b3b3b3"
           id="path935" />
        <path
           d="m 87.105794,23.745154 q 0,0.276296 -0.08682,0.405832 -0.08613,0.128846 -0.268028,0.128846 -0.184657,0 -0.270095,-0.130914 -0.08475,-0.130913 -0.08475,-0.402386 0,-0.273541 0.08613,-0.403765 0.08613,-0.130914 0.268717,-0.130914 0.184657,0 0.269406,0.132981 0.08544,0.132291 0.08544,0.40032 z m -0.181212,0.312814 q 0.02411,-0.05581 0.03238,-0.130913 0.009,-0.07579 0.009,-0.181901 0,-0.104731 -0.009,-0.181901 -0.0083,-0.07717 -0.03307,-0.130914 -0.02412,-0.05305 -0.06615,-0.07993 -0.04134,-0.02687 -0.106798,-0.02687 -0.06477,0 -0.107487,0.02687 -0.04203,0.02687 -0.06683,0.0813 -0.02343,0.05099 -0.03238,0.132981 -0.0083,0.08199 -0.0083,0.179834 0,0.107487 0.0076,0.179833 0.0076,0.07235 0.03238,0.129536 0.02274,0.05374 0.06408,0.08199 0.04203,0.02825 0.110932,0.02825 0.06477,0 0.107487,-0.02687 0.04272,-0.02687 0.06615,-0.0813 z"
           style="text-align:center;text-anchor:middle;fill:#b3b3b3"
           id="path937" />
        <path
           d="m 87.947085,24.258472 h -0.555349 v -0.10473 h 0.213596 v -0.687641 h -0.213596 v -0.09371 q 0.04341,0 0.09302,-0.0069 0.04961,-0.0076 0.0751,-0.02136 0.03169,-0.01723 0.04961,-0.04341 0.0186,-0.02687 0.02136,-0.07166 h 0.106797 v 0.924663 h 0.209462 z"
           style="text-align:center;text-anchor:middle;fill:#b3b3b3"
           id="path939" />
        <path
           d="m 82.308157,25.669582 h -0.555349 v -0.10473 h 0.213596 v -0.687641 h -0.213596 v -0.09371 q 0.04341,0 0.09302,-0.0069 0.04961,-0.0076 0.0751,-0.02136 0.03169,-0.01723 0.04961,-0.04341 0.0186,-0.02687 0.02136,-0.07166 h 0.106797 v 0.924663 h 0.209462 z"
           style="text-align:center;text-anchor:middle;fill:#b3b3b3"
           id="path941" />
        <path
           d="m 83.206637,25.669582 h -0.555349 v -0.10473 h 0.213596 v -0.687641 h -0.213596 v -0.09371 q 0.04341,0 0.09302,-0.0069 0.04961,-0.0076 0.0751,-0.02136 0.0317,-0.01723 0.04961,-0.04341 0.0186,-0.02687 0.02136,-0.07166 h 0.106798 v 0.924663 h 0.209461 z"
           style="text-align:center;text-anchor:middle;fill:#b3b3b3"
           id="path943" />
        <path
           d="m 84.105118,25.669582 h -0.555349 v -0.10473 h 0.213595 v -0.687641 h -0.213595 v -0.09371 q 0.04341,0 0.09302,-0.0069 0.04961,-0.0076 0.0751,-0.02136 0.03169,-0.01723 0.04961,-0.04341 0.0186,-0.02687 0.02136,-0.07166 h 0.106798 v 0.924663 h 0.209462 z"
           style="text-align:center;text-anchor:middle;fill:#b3b3b3"
           id="path945" />
        <path
           d="m 85.060786,25.156264 q 0,0.276296 -0.08682,0.405832 -0.08613,0.128846 -0.268028,0.128846 -0.184657,0 -0.270095,-0.130913 -0.08475,-0.130914 -0.08475,-0.402387 0,-0.273541 0.08613,-0.403765 0.08613,-0.130914 0.268717,-0.130914 0.184657,0 0.269406,0.132981 0.08544,0.132291 0.08544,0.40032 z m -0.181211,0.312814 q 0.02411,-0.05581 0.03238,-0.130913 0.009,-0.07579 0.009,-0.181901 0,-0.104731 -0.009,-0.181901 -0.0083,-0.07717 -0.03307,-0.130914 -0.02412,-0.05305 -0.06615,-0.07993 -0.04134,-0.02687 -0.106798,-0.02687 -0.06477,0 -0.107487,0.02687 -0.04203,0.02687 -0.06683,0.0813 -0.02343,0.05099 -0.03238,0.132981 -0.0083,0.08199 -0.0083,0.179834 0,0.107487 0.0076,0.179834 0.0076,0.07235 0.03238,0.129535 0.02274,0.05374 0.06408,0.08199 0.04203,0.02825 0.110932,0.02825 0.06477,0 0.107487,-0.02687 0.04272,-0.02687 0.06615,-0.0813 z"
           style="text-align:center;text-anchor:middle;fill:#b3b3b3"
           id="path947" />
        <path
           d="m 85.902078,25.669582 h -0.555349 v -0.10473 h 0.213596 v -0.687641 h -0.213596 v -0.09371 q 0.04341,0 0.09302,-0.0069 0.04961,-0.0076 0.0751,-0.02136 0.03169,-0.01723 0.04961,-0.04341 0.0186,-0.02687 0.02136,-0.07166 h 0.106797 v 0.924663 h 0.209462 z"
           style="text-align:center;text-anchor:middle;fill:#b3b3b3"
           id="path949" />
        <path
           d="m 86.857747,25.156264 q 0,0.276296 -0.08682,0.405832 -0.08613,0.128846 -0.268028,0.128846 -0.184657,0 -0.270095,-0.130913 -0.08475,-0.130914 -0.08475,-0.402387 0,-0.273541 0.08613,-0.403765 0.08613,-0.130914 0.268717,-0.130914 0.184657,0 0.269406,0.132981 0.08544,0.132291 0.08544,0.40032 z m -0.181212,0.312814 q 0.02412,-0.05581 0.03238,-0.130913 0.009,-0.07579 0.009,-0.181901 0,-0.104731 -0.009,-0.181901 -0.0083,-0.07717 -0.03307,-0.130914 -0.02412,-0.05305 -0.06615,-0.07993 -0.04134,-0.02687 -0.106798,-0.02687 -0.06477,0 -0.107487,0.02687 -0.04203,0.02687 -0.06683,0.0813 -0.02343,0.05099 -0.03238,0.132981 -0.0083,0.08199 -0.0083,0.179834 0,0.107487 0.0076,0.179834 0.0076,0.07235 0.03238,0.129535 0.02274,0.05374 0.06408,0.08199 0.04203,0.02825 0.110932,0.02825 0.06477,0 0.107487,-0.02687 0.04272,-0.02687 0.06615,-0.0813 z"
           style="text-align:center;text-anchor:middle;fill:#b3b3b3"
           id="path951" />
        <path
           d="M 87.699039,25.669582 H 87.14369 v -0.10473 h 0.213595 V 24.877211 H 87.14369 v -0.09371 q 0.04341,0 0.09302,-0.0069 0.04961,-0.0076 0.0751,-0.02136 0.03169,-0.01723 0.04961,-0.04341 0.0186,-0.02687 0.02136,-0.07166 h 0.106798 v 0.924663 h 0.209462 z"
           style="text-align:center;text-anchor:middle;fill:#b3b3b3"
           id="path953" />
        <path
           d="m 88.654707,25.156264 q 0,0.276296 -0.08682,0.405832 -0.08613,0.128846 -0.268028,0.128846 -0.184657,0 -0.270096,-0.130913 -0.08475,-0.130914 -0.08475,-0.402387 0,-0.273541 0.08613,-0.403765 0.08613,-0.130914 0.268718,-0.130914 0.184657,0 0.269406,0.132981 0.08544,0.132291 0.08544,0.40032 z m -0.181212,0.312814 q 0.02412,-0.05581 0.03238,-0.130913 0.009,-0.07579 0.009,-0.181901 0,-0.104731 -0.009,-0.181901 -0.0083,-0.07717 -0.03307,-0.130914 -0.02412,-0.05305 -0.06615,-0.07993 -0.04134,-0.02687 -0.106797,-0.02687 -0.06477,0 -0.107487,0.02687 -0.04203,0.02687 -0.06683,0.0813 -0.02343,0.05099 -0.03238,0.132981 -0.0083,0.08199 -0.0083,0.179834 0,0.107487 0.0076,0.179834 0.0076,0.07235 0.03238,0.129535 0.02274,0.05374 0.06408,0.08199 0.04203,0.02825 0.110932,0.02825 0.06477,0 0.107486,-0.02687 0.04272,-0.02687 0.06615,-0.0813 z"
           style="text-align:center;text-anchor:middle;fill:#b3b3b3"
           id="path955" />
        <path
           d="m 81.466865,26.567374 q 0,0.276296 -0.08682,0.405832 -0.08613,0.128846 -0.268028,0.128846 -0.184657,0 -0.270095,-0.130913 -0.08475,-0.130914 -0.08475,-0.402387 0,-0.273541 0.08613,-0.403765 0.08613,-0.130914 0.268717,-0.130914 0.184657,0 0.269406,0.132981 0.08544,0.132291 0.08544,0.40032 z m -0.181211,0.312814 q 0.02412,-0.05581 0.03238,-0.130913 0.009,-0.07579 0.009,-0.181901 0,-0.104731 -0.009,-0.181901 -0.0083,-0.07717 -0.03307,-0.130914 -0.02412,-0.05305 -0.06615,-0.07993 -0.04134,-0.02687 -0.106798,-0.02687 -0.06477,0 -0.107487,0.02687 -0.04203,0.02687 -0.06684,0.0813 -0.02343,0.05099 -0.03238,0.132981 -0.0083,0.08199 -0.0083,0.179834 0,0.107487 0.0076,0.179834 0.0076,0.07235 0.03238,0.129535 0.02274,0.05374 0.06408,0.08199 0.04203,0.02825 0.110932,0.02825 0.06477,0 0.107487,-0.02687 0.04272,-0.02687 0.06615,-0.0813 z"
           style="text-align:center;text-anchor:middle;fill:#b3b3b3"
           id="path957" />
        <path
           d="m 82.308157,27.080693 h -0.555349 v -0.104731 h 0.213596 v -0.687641 h -0.213596 v -0.09371 q 0.04341,0 0.09302,-0.0069 0.04961,-0.0076 0.0751,-0.02136 0.03169,-0.01723 0.04961,-0.04341 0.0186,-0.02687 0.02136,-0.07166 h 0.106797 v 0.924663 h 0.209462 z"
           style="text-align:center;text-anchor:middle;fill:#b3b3b3"
           id="path959" />
        <path
           d="m 83.263826,26.567374 q 0,0.276296 -0.08682,0.405832 -0.08613,0.128846 -0.268029,0.128846 -0.184657,0 -0.270095,-0.130913 -0.08475,-0.130914 -0.08475,-0.402387 0,-0.273541 0.08613,-0.403765 0.08613,-0.130914 0.268717,-0.130914 0.184657,0 0.269407,0.132981 0.08544,0.132291 0.08544,0.40032 z m -0.181212,0.312814 q 0.02412,-0.05581 0.03238,-0.130913 0.009,-0.07579 0.009,-0.181901 0,-0.104731 -0.009,-0.181901 -0.0083,-0.07717 -0.03307,-0.130914 -0.02412,-0.05305 -0.06615,-0.07993 -0.04134,-0.02687 -0.106798,-0.02687 -0.06477,0 -0.107487,0.02687 -0.04203,0.02687 -0.06683,0.0813 -0.02343,0.05099 -0.03238,0.132981 -0.0083,0.08199 -0.0083,0.179834 0,0.107487 0.0076,0.179834 0.0076,0.07235 0.03238,0.129535 0.02274,0.05374 0.06408,0.08199 0.04203,0.02825 0.110932,0.02825 0.06477,0 0.107487,-0.02687 0.04272,-0.02687 0.06615,-0.0813 z"
           style="text-align:center;text-anchor:middle;fill:#b3b3b3"
           id="path961" />
        <path
           d="m 84.105118,27.080693 h -0.555349 v -0.104731 h 0.213595 v -0.687641 h -0.213595 v -0.09371 q 0.04341,0 0.09302,-0.0069 0.04961,-0.0076 0.0751,-0.02136 0.03169,-0.01723 0.04961,-0.04341 0.0186,-0.02687 0.02136,-0.07166 h 0.106798 v 0.924663 h 0.209462 z"
           style="text-align:center;text-anchor:middle;fill:#b3b3b3"
           id="path963" />
        <path
           d="m 85.060786,26.567374 q 0,0.276296 -0.08682,0.405832 -0.08613,0.128846 -0.268028,0.128846 -0.184657,0 -0.270095,-0.130913 -0.08475,-0.130914 -0.08475,-0.402387 0,-0.273541 0.08613,-0.403765 0.08613,-0.130914 0.268717,-0.130914 0.184657,0 0.269406,0.132981 0.08544,0.132291 0.08544,0.40032 z m -0.181211,0.312814 q 0.02411,-0.05581 0.03238,-0.130913 0.009,-0.07579 0.009,-0.181901 0,-0.104731 -0.009,-0.181901 -0.0083,-0.07717 -0.03307,-0.130914 -0.02411,-0.05305 -0.06614,-0.07993 -0.04134,-0.02687 -0.106798,-0.02687 -0.06477,0 -0.107487,0.02687 -0.04203,0.02687 -0.06683,0.0813 -0.02343,0.05099 -0.03238,0.132981 -0.0083,0.08199 -0.0083,0.179834 0,0.107487 0.0076,0.179834 0.0076,0.07235 0.03238,0.129535 0.02274,0.05374 0.06408,0.08199 0.04203,0.02825 0.110932,0.02825 0.06477,0 0.107487,-0.02687 0.04272,-0.02687 0.06615,-0.0813 z"
           style="text-align:center;text-anchor:middle;fill:#b3b3b3"
           id="path965" />
        <path
           d="m 85.959267,26.567374 q 0,0.276296 -0.08682,0.405832 -0.08613,0.128846 -0.268028,0.128846 -0.184657,0 -0.270095,-0.130913 -0.08475,-0.130914 -0.08475,-0.402387 0,-0.273541 0.08613,-0.403765 0.08613,-0.130914 0.268717,-0.130914 0.184657,0 0.269406,0.132981 0.08544,0.132291 0.08544,0.40032 z m -0.181212,0.312814 q 0.02412,-0.05581 0.03238,-0.130913 0.009,-0.07579 0.009,-0.181901 0,-0.104731 -0.009,-0.181901 -0.0083,-0.07717 -0.03307,-0.130914 -0.02412,-0.05305 -0.06615,-0.07993 -0.04134,-0.02687 -0.106798,-0.02687 -0.06477,0 -0.107487,0.02687 -0.04203,0.02687 -0.06683,0.0813 -0.02343,0.05099 -0.03238,0.132981 -0.0083,0.08199 -0.0083,0.179834 0,0.107487 0.0076,0.179834 0.0076,0.07235 0.03238,0.129535 0.02274,0.05374 0.06408,0.08199 0.04203,0.02825 0.110932,0.02825 0.06477,0 0.107487,-0.02687 0.04272,-0.02687 0.06615,-0.0813 z"
           style="text-align:center;text-anchor:middle;fill:#b3b3b3"
           id="path967" />
        <path
           d="m 86.800558,27.080693 h -0.555349 v -0.104731 h 0.213596 v -0.687641 h -0.213596 v -0.09371 q 0.04341,0 0.09302,-0.0069 0.04961,-0.0076 0.0751,-0.02136 0.03169,-0.01723 0.04961,-0.04341 0.0186,-0.02687 0.02136,-0.07166 h 0.106798 v 0.924663 h 0.209461 z"
           style="text-align:center;text-anchor:middle;fill:#b3b3b3"
           id="path969" />
        <path
           d="m 87.756227,26.567374 q 0,0.276296 -0.08682,0.405832 -0.08613,0.128846 -0.268029,0.128846 -0.184657,0 -0.270095,-0.130913 -0.08475,-0.130914 -0.08475,-0.402387 0,-0.273541 0.08613,-0.403765 0.08613,-0.130914 0.268717,-0.130914 0.184657,0 0.269407,0.132981 0.08544,0.132291 0.08544,0.40032 z m -0.181212,0.312814 q 0.02412,-0.05581 0.03238,-0.130913 0.009,-0.07579 0.009,-0.181901 0,-0.104731 -0.009,-0.181901 -0.0083,-0.07717 -0.03307,-0.130914 -0.02412,-0.05305 -0.06615,-0.07993 -0.04134,-0.02687 -0.106798,-0.02687 -0.06477,0 -0.107487,0.02687 -0.04203,0.02687 -0.06683,0.0813 -0.02343,0.05099 -0.03238,0.132981 -0.0083,0.08199 -0.0083,0.179834 0,0.107487 0.0076,0.179834 0.0076,0.07235 0.03238,0.129535 0.02274,0.05374 0.06408,0.08199 0.04203,0.02825 0.110932,0.02825 0.06477,0 0.107487,-0.02687 0.04272,-0.02687 0.06615,-0.0813 z"
           style="text-align:center;text-anchor:middle;fill:#b3b3b3"
           id="path971" />
        <path
           d="M 88.597519,27.080693 H 88.04217 v -0.104731 h 0.213596 V 26.288321 H 88.04217 v -0.09371 q 0.04341,0 0.09302,-0.0069 0.04961,-0.0076 0.0751,-0.02136 0.03169,-0.01723 0.04961,-0.04341 0.0186,-0.02687 0.02136,-0.07166 h 0.106798 v 0.924663 h 0.209462 z"
           style="text-align:center;text-anchor:middle;fill:#b3b3b3"
           id="path973" />
        <path
           d="m 89.553187,26.567374 q 0,0.276296 -0.08682,0.405832 -0.08613,0.128846 -0.268028,0.128846 -0.184657,0 -0.270096,-0.130913 -0.08475,-0.130914 -0.08475,-0.402387 0,-0.273541 0.08613,-0.403765 0.08613,-0.130914 0.268718,-0.130914 0.184657,0 0.269406,0.132981 0.08544,0.132291 0.08544,0.40032 z m -0.181212,0.312814 q 0.02412,-0.05581 0.03238,-0.130913 0.009,-0.07579 0.009,-0.181901 0,-0.104731 -0.009,-0.181901 -0.0083,-0.07717 -0.03307,-0.130914 -0.02411,-0.05305 -0.06614,-0.07993 -0.04134,-0.02687 -0.106798,-0.02687 -0.06477,0 -0.107487,0.02687 -0.04203,0.02687 -0.06683,0.0813 -0.02343,0.05099 -0.03238,0.132981 -0.0083,0.08199 -0.0083,0.179834 0,0.107487 0.0076,0.179834 0.0076,0.07235 0.03238,0.129535 0.02274,0.05374 0.06408,0.08199 0.04203,0.02825 0.110932,0.02825 0.06477,0 0.107487,-0.02687 0.04272,-0.02687 0.06615,-0.0813 z"
           style="text-align:center;text-anchor:middle;fill:#b3b3b3"
           id="path975" />
        <path
           d="m 81.409677,28.491803 h -0.555349 v -0.104731 h 0.213596 v -0.687641 h -0.213596 v -0.09371 q 0.04341,0 0.09302,-0.0069 0.04961,-0.0076 0.0751,-0.02136 0.03169,-0.01723 0.04961,-0.04341 0.0186,-0.02687 0.02136,-0.07166 h 0.106798 v 0.924663 h 0.209462 z"
           style="text-align:center;text-anchor:middle;fill:#b3b3b3"
           id="path977" />
        <path
           d="m 82.308157,28.491803 h -0.555349 v -0.104731 h 0.213596 v -0.687641 h -0.213596 v -0.09371 q 0.04341,0 0.09302,-0.0069 0.04961,-0.0076 0.0751,-0.02136 0.03169,-0.01723 0.04961,-0.04341 0.0186,-0.02687 0.02136,-0.07166 h 0.106797 v 0.924663 h 0.209462 z"
           style="text-align:center;text-anchor:middle;fill:#b3b3b3"
           id="path979" />
        <path
           d="m 83.206637,28.491803 h -0.555349 v -0.104731 h 0.213596 v -0.687641 h -0.213596 v -0.09371 q 0.04341,0 0.09302,-0.0069 0.04961,-0.0076 0.0751,-0.02136 0.0317,-0.01723 0.04961,-0.04341 0.0186,-0.02687 0.02136,-0.07166 h 0.106798 v 0.924663 h 0.209461 z"
           style="text-align:center;text-anchor:middle;fill:#b3b3b3"
           id="path981" />
        <path
           d="m 84.162306,27.978484 q 0,0.276296 -0.08682,0.405832 -0.08613,0.128846 -0.268028,0.128846 -0.184657,0 -0.270096,-0.130913 -0.08475,-0.130914 -0.08475,-0.402387 0,-0.273541 0.08613,-0.403765 0.08613,-0.130914 0.268718,-0.130914 0.184657,0 0.269406,0.132981 0.08544,0.132292 0.08544,0.40032 z m -0.181212,0.312814 q 0.02412,-0.05581 0.03238,-0.130913 0.009,-0.07579 0.009,-0.181901 0,-0.104731 -0.009,-0.181901 -0.0083,-0.07717 -0.03307,-0.130914 -0.02412,-0.05305 -0.06615,-0.07993 -0.04134,-0.02687 -0.106798,-0.02687 -0.06477,0 -0.107487,0.02687 -0.04203,0.02687 -0.06683,0.0813 -0.02343,0.05099 -0.03238,0.132981 -0.0083,0.08199 -0.0083,0.179834 0,0.107487 0.0076,0.179834 0.0076,0.07235 0.03238,0.129535 0.02274,0.05374 0.06408,0.08199 0.04203,0.02825 0.110932,0.02825 0.06477,0 0.107487,-0.02687 0.04272,-0.02687 0.06615,-0.0813 z"
           style="text-align:center;text-anchor:middle;fill:#b3b3b3"
           id="path983" />
        <path
           d="m 85.003598,28.491803 h -0.555349 v -0.104731 h 0.213596 v -0.687641 h -0.213596 v -0.09371 q 0.04341,0 0.09302,-0.0069 0.04961,-0.0076 0.0751,-0.02136 0.03169,-0.01723 0.04961,-0.04341 0.0186,-0.02687 0.02136,-0.07166 h 0.106798 v 0.924663 h 0.209462 z"
           style="text-align:center;text-anchor:middle;fill:#b3b3b3"
           id="path985" />
        <path
           d="m 85.959267,27.978484 q 0,0.276296 -0.08682,0.405832 -0.08613,0.128846 -0.268028,0.128846 -0.184657,0 -0.270095,-0.130913 -0.08475,-0.130914 -0.08475,-0.402387 0,-0.273541 0.08613,-0.403765 0.08613,-0.130914 0.268717,-0.130914 0.184657,0 0.269406,0.132981 0.08544,0.132292 0.08544,0.40032 z m -0.181212,0.312814 q 0.02412,-0.05581 0.03238,-0.130913 0.009,-0.07579 0.009,-0.181901 0,-0.104731 -0.009,-0.181901 -0.0083,-0.07717 -0.03307,-0.130914 -0.02412,-0.05305 -0.06615,-0.07993 -0.04134,-0.02687 -0.106798,-0.02687 -0.06477,0 -0.107487,0.02687 -0.04203,0.02687 -0.06683,0.0813 -0.02343,0.05099 -0.03238,0.132981 -0.0083,0.08199 -0.0083,0.179834 0,0.107487 0.0076,0.179834 0.0076,0.07235 0.03238,0.129535 0.02274,0.05374 0.06408,0.08199 0.04203,0.02825 0.110932,0.02825 0.06477,0 0.107487,-0.02687 0.04272,-0.02687 0.06615,-0.0813 z"
           style="text-align:center;text-anchor:middle;fill:#b3b3b3"
           id="path987" />
        <path
           d="m 86.800558,28.491803 h -0.555349 v -0.104731 h 0.213596 v -0.687641 h -0.213596 v -0.09371 q 0.04341,0 0.09302,-0.0069 0.04961,-0.0076 0.0751,-0.02136 0.03169,-0.01723 0.04961,-0.04341 0.0186,-0.02687 0.02136,-0.07166 h 0.106798 v 0.924663 h 0.209461 z"
           style="text-align:center;text-anchor:middle;fill:#b3b3b3"
           id="path989" />
        <path
           d="m 87.756227,27.978484 q 0,0.276296 -0.08682,0.405832 -0.08613,0.128846 -0.268029,0.128846 -0.184657,0 -0.270095,-0.130913 -0.08475,-0.130914 -0.08475,-0.402387 0,-0.273541 0.08613,-0.403765 0.08613,-0.130914 0.268717,-0.130914 0.184657,0 0.269407,0.132981 0.08544,0.132292 0.08544,0.40032 z m -0.181212,0.312814 q 0.02412,-0.05581 0.03238,-0.130913 0.009,-0.07579 0.009,-0.181901 0,-0.104731 -0.009,-0.181901 -0.0083,-0.07717 -0.03307,-0.130914 -0.02412,-0.05305 -0.06615,-0.07993 -0.04134,-0.02687 -0.106798,-0.02687 -0.06477,0 -0.107487,0.02687 -0.04203,0.02687 -0.06683,0.0813 -0.02343,0.05099 -0.03238,0.132981 -0.0083,0.08199 -0.0083,0.179834 0,0.107487 0.0076,0.179834 0.0076,0.07235 0.03238,0.129535 0.02274,0.05374 0.06408,0.08199 0.04203,0.02825 0.110932,0.02825 0.06477,0 0.107487,-0.02687 0.04272,-0.02687 0.06615,-0.0813 z"
           style="text-align:center;text-anchor:middle;fill:#b3b3b3"
           id="path991" />
        <path
           d="M 88.597519,28.491803 H 88.04217 v -0.104731 h 0.213596 V 27.699431 H 88.04217 v -0.09371 q 0.04341,0 0.09302,-0.0069 0.04961,-0.0076 0.0751,-0.02136 0.03169,-0.01723 0.04961,-0.04341 0.0186,-0.02687 0.02136,-0.07166 h 0.106798 v 0.924663 h 0.209462 z"
           style="text-align:center;text-anchor:middle;fill:#b3b3b3"
           id="path993" />
        <path
           d="m 89.553187,27.978484 q 0,0.276296 -0.08682,0.405832 -0.08613,0.128846 -0.268028,0.128846 -0.184657,0 -0.270096,-0.130913 -0.08475,-0.130914 -0.08475,-0.402387 0,-0.273541 0.08613,-0.403765 0.08613,-0.130914 0.268718,-0.130914 0.184657,0 0.269406,0.132981 0.08544,0.132292 0.08544,0.40032 z m -0.181212,0.312814 q 0.02412,-0.05581 0.03238,-0.130913 0.009,-0.07579 0.009,-0.181901 0,-0.104731 -0.009,-0.181901 -0.0083,-0.07717 -0.03307,-0.130914 -0.02411,-0.05305 -0.06614,-0.07993 -0.04134,-0.02687 -0.106798,-0.02687 -0.06477,0 -0.107487,0.02687 -0.04203,0.02687 -0.06683,0.0813 -0.02343,0.05099 -0.03238,0.132981 -0.0083,0.08199 -0.0083,0.179834 0,0.107487 0.0076,0.179834 0.0076,0.07235 0.03238,0.129535 0.02274,0.05374 0.06408,0.08199 0.04203,0.02825 0.110932,0.02825 0.06477,0 0.107487,-0.02687 0.04272,-0.02687 0.06615,-0.0813 z"
           style="text-align:center;text-anchor:middle;fill:#b3b3b3"
           id="path995" />
        <path
           d="m 82.365346,29.389594 q 0,0.276296 -0.08682,0.405832 -0.08613,0.128846 -0.268028,0.128846 -0.184657,0 -0.270095,-0.130913 -0.08475,-0.130914 -0.08475,-0.402387 0,-0.273541 0.08613,-0.403765 0.08613,-0.130914 0.268717,-0.130914 0.184657,0 0.269406,0.132981 0.08544,0.132292 0.08544,0.40032 z m -0.181212,0.312814 q 0.02411,-0.05581 0.03238,-0.130913 0.009,-0.07579 0.009,-0.181901 0,-0.104731 -0.009,-0.181901 -0.0083,-0.07717 -0.03307,-0.130914 -0.02412,-0.05305 -0.06615,-0.07993 -0.04134,-0.02687 -0.106798,-0.02687 -0.06477,0 -0.107487,0.02687 -0.04203,0.02687 -0.06683,0.0813 -0.02343,0.05099 -0.03238,0.132981 -0.0083,0.08199 -0.0083,0.179834 0,0.107487 0.0076,0.179834 0.0076,0.07235 0.03238,0.129535 0.02274,0.05374 0.06408,0.08199 0.04203,0.02825 0.110932,0.02825 0.06477,0 0.107487,-0.02687 0.04272,-0.02687 0.06615,-0.0813 z"
           style="text-align:center;text-anchor:middle;fill:#b3b3b3"
           id="path997" />
        <path
           d="m 83.206637,29.902913 h -0.555349 v -0.104731 h 0.213596 v -0.687641 h -0.213596 v -0.09371 q 0.04341,0 0.09302,-0.0069 0.04961,-0.0076 0.0751,-0.02136 0.0317,-0.01722 0.04961,-0.04341 0.0186,-0.02687 0.02136,-0.07166 h 0.106798 v 0.924663 h 0.209461 z"
           style="text-align:center;text-anchor:middle;fill:#b3b3b3"
           id="path999" />
        <path
           d="m 84.105118,29.902913 h -0.555349 v -0.104731 h 0.213595 v -0.687641 h -0.213595 v -0.09371 q 0.04341,0 0.09302,-0.0069 0.04961,-0.0076 0.0751,-0.02136 0.03169,-0.01722 0.04961,-0.04341 0.0186,-0.02687 0.02136,-0.07166 h 0.106798 v 0.924663 h 0.209462 z"
           style="text-align:center;text-anchor:middle;fill:#b3b3b3"
           id="path1001" />
        <path
           d="m 85.060786,29.389594 q 0,0.276296 -0.08682,0.405832 -0.08613,0.128846 -0.268028,0.128846 -0.184657,0 -0.270095,-0.130913 -0.08475,-0.130914 -0.08475,-0.402387 0,-0.273541 0.08613,-0.403765 0.08613,-0.130914 0.268717,-0.130914 0.184657,0 0.269406,0.132981 0.08544,0.132292 0.08544,0.40032 z m -0.181211,0.312814 q 0.02411,-0.05581 0.03238,-0.130913 0.009,-0.07579 0.009,-0.181901 0,-0.104731 -0.009,-0.181901 -0.0083,-0.07717 -0.03307,-0.130914 -0.02412,-0.05305 -0.06615,-0.07993 -0.04134,-0.02687 -0.106798,-0.02687 -0.06477,0 -0.107487,0.02687 -0.04203,0.02687 -0.06683,0.0813 -0.02343,0.05099 -0.03238,0.132981 -0.0083,0.08199 -0.0083,0.179834 0,0.107487 0.0076,0.179834 0.0076,0.07235 0.03238,0.129535 0.02274,0.05374 0.06408,0.08199 0.04203,0.02825 0.110932,0.02825 0.06477,0 0.107487,-0.02687 0.04272,-0.02687 0.06615,-0.0813 z"
           style="text-align:center;text-anchor:middle;fill:#b3b3b3"
           id="path1003" />
        <path
           d="m 85.902078,29.902913 h -0.555349 v -0.104731 h 0.213596 v -0.687641 h -0.213596 v -0.09371 q 0.04341,0 0.09302,-0.0069 0.04961,-0.0076 0.0751,-0.02136 0.03169,-0.01722 0.04961,-0.04341 0.0186,-0.02687 0.02136,-0.07166 h 0.106797 v 0.924663 h 0.209462 z"
           style="text-align:center;text-anchor:middle;fill:#b3b3b3"
           id="path1005" />
        <path
           d="m 86.857747,29.389594 q 0,0.276296 -0.08682,0.405832 -0.08613,0.128846 -0.268028,0.128846 -0.184657,0 -0.270095,-0.130913 -0.08475,-0.130914 -0.08475,-0.402387 0,-0.273541 0.08613,-0.403765 0.08613,-0.130914 0.268717,-0.130914 0.184657,0 0.269406,0.132981 0.08544,0.132292 0.08544,0.40032 z m -0.181212,0.312814 q 0.02412,-0.05581 0.03238,-0.130913 0.009,-0.07579 0.009,-0.181901 0,-0.104731 -0.009,-0.181901 -0.0083,-0.07717 -0.03307,-0.130914 -0.02412,-0.05305 -0.06615,-0.07993 -0.04134,-0.02687 -0.106798,-0.02687 -0.06477,0 -0.107487,0.02687 -0.04203,0.02687 -0.06683,0.0813 -0.02343,0.05099 -0.03238,0.132981 -0.0083,0.08199 -0.0083,0.179834 0,0.107487 0.0076,0.179834 0.0076,0.07235 0.03238,0.129535 0.02274,0.05374 0.06408,0.08199 0.04203,0.02825 0.110932,0.02825 0.06477,0 0.107487,-0.02687 0.04272,-0.02687 0.06615,-0.0813 z"
           style="text-align:center;text-anchor:middle;fill:#b3b3b3"
           id="path1007" />
        <path
           d="M 87.699039,29.902913 H 87.14369 v -0.104731 h 0.213595 V 29.110541 H 87.14369 v -0.09371 q 0.04341,0 0.09302,-0.0069 0.04961,-0.0076 0.0751,-0.02136 0.03169,-0.01722 0.04961,-0.04341 0.0186,-0.02687 0.02136,-0.07166 h 0.106798 v 0.924663 h 0.209462 z"
           style="text-align:center;text-anchor:middle;fill:#b3b3b3"
           id="path1009" />
        <path
           d="M 88.597519,29.902913 H 88.04217 v -0.104731 h 0.213595 V 29.110541 H 88.04217 v -0.09371 q 0.04341,0 0.09302,-0.0069 0.04961,-0.0076 0.0751,-0.02136 0.03169,-0.01722 0.04961,-0.04341 0.0186,-0.02687 0.02136,-0.07166 h 0.106798 v 0.924663 h 0.209462 z"
           style="text-align:center;text-anchor:middle;fill:#b3b3b3"
           id="path1011" />
        <path
           d="m 83.454684,31.314023 h -0.555349 v -0.104731 h 0.213596 v -0.687641 h -0.213596 v -0.09371 q 0.04341,0 0.09302,-0.0069 0.04961,-0.0076 0.0751,-0.02136 0.03169,-0.01722 0.04961,-0.04341 0.0186,-0.02687 0.02136,-0.07166 h 0.106797 v 0.924663 h 0.209462 z"
           style="text-align:center;text-anchor:middle;fill:#b3b3b3"
           id="path1013" />
        <path
           d="m 84.353164,31.314023 h -0.555349 v -0.104731 h 0.213596 v -0.687641 h -0.213596 v -0.09371 q 0.04341,0 0.09302,-0.0069 0.04961,-0.0076 0.0751,-0.02136 0.03169,-0.01722 0.04961,-0.04341 0.0186,-0.02687 0.02136,-0.07166 h 0.106798 v 0.924663 h 0.209461 z"
           style="text-align:center;text-anchor:middle;fill:#b3b3b3"
           id="path1015" />
        <path
           d="m 85.251645,31.314023 h -0.555349 v -0.104731 h 0.213595 v -0.687641 h -0.213595 v -0.09371 q 0.04341,0 0.09302,-0.0069 0.04961,-0.0076 0.0751,-0.02136 0.03169,-0.01722 0.04961,-0.04341 0.0186,-0.02687 0.02136,-0.07166 h 0.106798 v 0.924663 h 0.209462 z"
           style="text-align:center;text-anchor:middle;fill:#b3b3b3"
           id="path1017" />
        <path
           d="m 86.207313,30.800704 q 0,0.276296 -0.08682,0.405832 -0.08613,0.128846 -0.268028,0.128846 -0.184657,0 -0.270096,-0.130913 -0.08475,-0.130914 -0.08475,-0.402387 0,-0.273541 0.08613,-0.403765 0.08613,-0.130914 0.268718,-0.130914 0.184657,0 0.269406,0.132981 0.08544,0.132292 0.08544,0.40032 z m -0.181212,0.312814 q 0.02412,-0.05581 0.03238,-0.130913 0.009,-0.07579 0.009,-0.181901 0,-0.104731 -0.009,-0.181901 -0.0083,-0.07717 -0.03307,-0.130914 -0.02412,-0.05305 -0.06615,-0.07993 -0.04134,-0.02687 -0.106798,-0.02687 -0.06477,0 -0.107487,0.02687 -0.04203,0.02687 -0.06683,0.0813 -0.02343,0.05099 -0.03238,0.132981 -0.0083,0.08199 -0.0083,0.179834 0,0.107487 0.0076,0.179834 0.0076,0.07235 0.03238,0.129535 0.02274,0.05374 0.06408,0.08199 0.04203,0.02825 0.110932,0.02825 0.06477,0 0.107487,-0.02687 0.04272,-0.02687 0.06614,-0.0813 z"
           style="text-align:center;text-anchor:middle;fill:#b3b3b3"
           id="path1019" />
        <path
           d="m 87.048605,31.314023 h -0.555349 v -0.104731 h 0.213596 v -0.687641 h -0.213596 v -0.09371 q 0.04341,0 0.09302,-0.0069 0.04961,-0.0076 0.0751,-0.02136 0.03169,-0.01722 0.04961,-0.04341 0.0186,-0.02687 0.02136,-0.07166 h 0.106797 v 0.924663 h 0.209462 z"
           style="text-align:center;text-anchor:middle;fill:#b3b3b3"
           id="path1021" />
        <path
           d="m 87.947085,31.314023 h -0.555349 v -0.104731 h 0.213596 v -0.687641 h -0.213596 v -0.09371 q 0.04341,0 0.09302,-0.0069 0.04961,-0.0076 0.0751,-0.02136 0.03169,-0.01722 0.04961,-0.04341 0.0186,-0.02687 0.02136,-0.07166 h 0.106797 v 0.924663 h 0.209462 z"
           style="text-align:center;text-anchor:middle;fill:#b3b3b3"
           id="path1023" />
      </g>
      <path
         id="rect1827"
         style="fill:#dc143c;stroke-width:0.385457"
         transform="matrix(0.81832358,-0.57475779,0.57239513,0.81997794,0,0)"
         d="m 53.328716,77.134918 h 0.894825 v 9.396 h -0.894825 z" />
    </g>
    <g
       aria-label="ipfixpr   be"
       transform="matrix(0.26458333,0,0,0.26458333,15.177375,-28.036736)"
       id="text1941"
       style="font-size:74.6667px;line-height:1.25;white-space:pre;shape-inside:url(#rect1943);fill:#333333">
      <path
         d="m 56.179883,223.30038 h 3.285335 v -35.84001 h -3.285335 z m 1.568001,-44.50135 c 1.642668,0 2.837335,-1.19467 2.837335,-3.06134 0,-1.71733 -1.194667,-2.912 -2.837335,-2.912 -1.642667,0 -2.837334,1.19467 -2.837334,2.912 0,1.86667 1.194667,3.06134 2.837334,3.06134 z"
         style="font-weight:300;font-family:'Source Sans 3';-inkscape-font-specification:'Source Sans 3 Light';fill:#425066"
         id="path3042" />
      <path
         d="m 73.242391,239.50306 h 3.285335 v -19.71201 c 3.733335,2.76267 7.392004,4.40533 10.752005,4.40533 8.437337,0 15.829339,-7.168 15.829339,-19.33867 0,-11.12534 -4.778667,-18.29334 -14.336005,-18.29334 -4.405335,0 -8.661337,2.61333 -12.170672,5.376 h -0.224 l -0.298667,-4.48 h -2.837335 z m 13.888007,-18.21868 c -2.762668,0 -6.496003,-1.26933 -10.602672,-4.62933 v -21.28001 c 4.330669,-3.808 8.138671,-5.89867 11.722672,-5.89867 8.213338,0 11.349339,6.57067 11.349339,15.38134 0,9.70667 -5.226669,16.42667 -12.469339,16.42667 z"
         style="font-weight:300;font-family:'Source Sans 3';-inkscape-font-specification:'Source Sans 3 Light';fill:#425066"
         id="path3044" />
      <path
         d="m 114.45258,223.30038 h 3.28533 V 190.2977 h 8.28801 v -2.83733 h -8.28801 v -7.76534 c 0,-5.152 1.792,-8.13867 5.6,-8.13867 1.34401,0 2.76267,0.29867 4.25601,0.896 l 0.97066,-2.53867 c -1.568,-0.74667 -3.584,-1.19467 -5.22667,-1.19467 -5.67466,0 -8.88533,3.65867 -8.88533,10.75201 v 7.98934 l -5.30134,0.29866 v 2.53867 h 5.30134 z"
         style="font-weight:300;font-family:'Source Sans 3';-inkscape-font-specification:'Source Sans 3 Light';fill:#425066"
         id="path3046" />
      <path
         d="m 133.61742,223.30038 h 3.28534 v -35.84001 h -3.28534 z m 1.568,-44.50135 c 1.64267,0 2.83734,-1.19467 2.83734,-3.06134 0,-1.71733 -1.19467,-2.912 -2.83734,-2.912 -1.64267,0 -2.83733,1.19467 -2.83733,2.912 0,1.86667 1.19466,3.06134 2.83733,3.06134 z"
         style="font-weight:300;font-family:'Source Sans 3';-inkscape-font-specification:'Source Sans 3 Light';fill:#425066"
         id="path3048" />
      <path
         d="m 144.85593,223.30038 h 3.50933 l 6.12267,-9.78133 c 1.41867,-2.24001 2.688,-4.48001 4.10667,-6.57067 h 0.29867 c 1.49333,2.09066 2.912,4.33066 4.256,6.57067 l 6.34667,9.78133 h 3.65867 l -12.17068,-18.44267 11.12534,-17.39734 h -3.43467 l -5.6,9.10933 c -1.26933,1.94134 -2.38933,3.95734 -3.65867,5.89867 h -0.29866 c -1.344,-1.94133 -2.61334,-3.95733 -3.80801,-5.89867 l -5.824,-9.10933 h -3.65867 l 11.20001,17.09867 z"
         style="font-weight:300;font-family:'Source Sans 3';-inkscape-font-specification:'Source Sans 3 Light';fill:#425066"
         id="path3050" />
      <path
         d="m 181.01327,239.50306 h 3.28534 v -19.71201 c 3.73333,2.76267 7.392,4.40533 10.752,4.40533 8.43734,0 15.82934,-7.168 15.82934,-19.33867 0,-11.12534 -4.77867,-18.29334 -14.336,-18.29334 -4.40534,0 -8.66134,2.61333 -12.17068,5.376 h -0.224 l -0.29866,-4.48 h -2.83734 z m 13.88801,-18.21868 c -2.76267,0 -6.496,-1.26933 -10.60267,-4.62933 v -21.28001 c 4.33067,-3.808 8.13867,-5.89867 11.72267,-5.89867 8.21334,0 11.34934,6.57067 11.34934,15.38134 0,9.70667 -5.22667,16.42667 -12.46934,16.42667 z"
         style="font-weight:300;font-family:'Source Sans 3';-inkscape-font-specification:'Source Sans 3 Light';fill:#425066"
         id="path3052" />
      <path
         d="m 221.70079,223.30038 h 3.28533 v -24.41601 c 2.76267,-6.72 6.57067,-9.184 9.78134,-9.184 1.41867,0 2.16534,0.14933 3.136,0.448 l 0.896,-2.83734 c -1.19466,-0.59733 -2.24,-0.74666 -3.584,-0.74666 -4.40533,0 -7.91467,3.136 -10.15467,7.54133 h -0.224 l -0.29867,-6.64533 h -2.83733 z"
         style="font-weight:300;font-family:'Source Sans 3';-inkscape-font-specification:'Source Sans 3 Light';fill:#425066"
         id="path3054" />
      <path
         d="m 297.84609,223.1727 c 8.43734,0 15.82934,-7.168 15.82934,-19.33867 0,-11.12534 -4.77867,-18.29334 -14.33601,-18.29334 -4.40533,0 -8.736,2.53866 -12.39467,5.6 l 0.14933,-7.01867 v -15.53068 h -3.28533 v 53.68536 h 2.76267 l 0.37333,-3.65866 h 0.14933 c 3.36001,2.76266 7.31734,4.55466 10.75201,4.55466 z m -0.14933,-2.912 c -2.76267,0 -6.64534,-1.26933 -10.60268,-4.62933 v -21.28001 c 4.25601,-3.808 8.13867,-5.89867 11.72268,-5.89867 8.21333,0 11.34933,6.57067 11.34933,15.38134 0,9.70667 -5.22666,16.42667 -12.46933,16.42667 z"
         style="font-weight:300;font-family:'Source Sans 3';-inkscape-font-specification:'Source Sans 3 Light';fill:#425066"
         id="path3056" />
      <path
         d="m 336.99642,189.4017 c 6.42134,0 10.52801,4.55467 10.52801,13.66401 h -22.77334 c 0.82133,-9.25867 6.72,-13.66401 12.24533,-13.66401 z m 0.89601,34.79468 c 5.22666,0 8.512,-1.64266 11.27467,-3.50933 l -1.344,-2.31467 c -2.53867,1.792 -5.74934,2.912 -9.63201,2.912 -7.46667,0 -13.29067,-5.824 -13.51467,-15.38134 h 25.76001 c 0.224,-0.97067 0.224,-1.86667 0.224,-2.76267 0,-10.528 -5.22667,-16.576 -13.73867,-16.576 -7.98934,0 -15.60534,7.168 -15.60534,18.89067 0,11.72267 7.392,18.74134 16.57601,18.74134 z"
         style="font-weight:300;font-family:'Source Sans 3';-inkscape-font-specification:'Source Sans 3 Light';fill:#425066"
         id="path3058" />
    </g>
  </g>
</svg>
