<?xml version="1.0" encoding="UTF-8" standalone="no"?>
<!-- Created with Inkscape (http://www.inkscape.org/) -->

<svg
   width="16.06473mm"
   height="16.06473mm"
   viewBox="0 0 16.06473 16.06473"
   version="1.1"
   id="svg5"
   inkscape:version="1.1.2 (b8e25be8, 2022-02-05)"
   sodipodi:docname="ipfixprobe-logo4-FINAL copy.svg"
   xmlns:inkscape="http://www.inkscape.org/namespaces/inkscape"
   xmlns:sodipodi="http://sodipodi.sourceforge.net/DTD/sodipodi-0.dtd"
   xmlns="http://www.w3.org/2000/svg"
   xmlns:svg="http://www.w3.org/2000/svg">
  <sodipodi:namedview
     id="namedview7"
     pagecolor="#ffffff"
     bordercolor="#666666"
     borderopacity="1.0"
     inkscape:pageshadow="2"
     inkscape:pageopacity="0.0"
     inkscape:pagecheckerboard="0"
     inkscape:document-units="mm"
     showgrid="false"
     inkscape:zoom="1.9537395"
     inkscape:cx="86.756704"
     inkscape:cy="72.681133"
     inkscape:window-width="1920"
     inkscape:window-height="954"
     inkscape:window-x="1993"
     inkscape:window-y="25"
     inkscape:window-maximized="0"
     inkscape:current-layer="layer1"
     fit-margin-top="0"
     fit-margin-left="0"
     fit-margin-right="0"
     fit-margin-bottom="0"
     width="16.27919mm" />
  <defs
     id="defs2">
    <rect
       x="230.87186"
       y="29.53916"
       width="26.041101"
       height="15.158253"
       id="rect15275" />
    <rect
       x="49.30965"
       y="155.18037"
       width="690.33508"
       height="130.52554"
       id="rect1943" />
  </defs>
  <g
     inkscape:label="Layer 1"
     inkscape:groupmode="layer"
     id="layer1"
     transform="translate(-31.720952,-18.734796)">
    <g
       id="g943"
       transform="matrix(0.86967391,0,0,0.87734247,-35.845466,0.31720424)">
      <path
         style="fill:#dc143c;fill-opacity:1;stroke-width:0.0335137"
         d="m 95.19402,39.133029 c -0.05154,-0.02811 -0.151482,-0.126549 -0.222189,-0.218742 -0.07076,-0.0922 -0.139628,-0.165785 -0.153177,-0.16352 -0.01359,0.0023 -0.02759,-0.01201 -0.03118,-0.03175 -0.0063,-0.0347 -0.294742,-0.357308 -0.343033,-0.383707 -0.01319,-0.0072 -0.04814,-0.04455 -0.07792,-0.08303 -0.05786,-0.07494 -0.0681,-0.07321 -0.396616,0.06683 -0.119543,0.05096 -0.174967,0.05472 -0.360106,0.02461 -0.394875,-0.06428 -0.692552,-0.271503 -1.075028,-0.748519 -0.04824,-0.06011 -0.134339,-0.167686 -0.191408,-0.239032 -0.0571,-0.07134 -0.123678,-0.144 -0.147929,-0.161471 -0.02431,-0.01746 -0.112728,-0.115179 -0.196501,-0.217152 -0.08371,-0.101984 -0.270317,-0.312694 -0.414568,-0.468263 -0.144242,-0.15557 -0.32488,-0.358476 -0.401425,-0.450897 -0.07658,-0.09241 -0.202274,-0.235304 -0.279393,-0.31752 -0.38364,-0.175893 -0.866908,-0.242638 -1.144124,-0.502082 -0.136126,-0.121701 -0.416868,-0.342193 -0.445312,-0.424269 -0.03331,-0.09618 -0.615933,-0.742238 -0.383271,-0.930068 0.311939,-0.251926 0.523507,-0.231112 0.740915,-0.427072 0.06391,-0.05762 0.265601,-0.254114 0.33833,-0.314531 0.07274,-0.06041 0.228878,-0.246217 0.316513,-0.326875 0.117492,-0.09995 0.324367,-0.238556 0.41217,-0.298785 -0.08532,-0.254937 0.07939,-0.143735 0.118832,-0.158495 0.03109,-0.01159 0.443705,-0.566149 1.115306,0.374587 0.0678,0.09497 0.159477,0.194901 0.19221,0.230689 0.406767,0.484255 0.47985,1.120229 0.737919,1.670438 0.128419,0.271321 0.368104,0.414956 0.370134,0.426068 0.002,0.01113 0.02195,0.03569 0.0443,0.05462 0.09983,0.08461 0.25056,0.262673 0.258318,0.305152 0.0047,0.02566 0.0307,0.0552 0.05788,0.06562 0.02719,0.01042 0.189828,0.179838 0.361501,0.376463 0.171671,0.196628 0.36622,0.417591 0.432341,0.491028 0.163524,0.181637 0.197201,0.235661 0.287817,0.46173 0.101271,0.252604 0.109977,0.585497 0.02201,0.782208 -0.07681,0.170607 -0.05582,0.300075 0.06698,0.416795 0.05217,0.04935 0.158665,0.167494 0.236653,0.262526 0.07798,0.09503 0.16483,0.189134 0.192982,0.20912 0.07886,0.05597 0.283303,0.340927 0.296515,0.413275 0.01253,0.06863 -0.130167,0.265881 -0.201083,0.277954 -0.02324,0.004 -0.08443,-0.0158 -0.135936,-0.04392 z M 94.233558,37.40548 c 0.136076,-0.183154 0.09967,-0.426577 -0.102671,-0.686725 -0.11624,-0.149416 -0.595173,-0.684662 -0.902319,-1.008423 -0.09973,-0.105158 -0.195819,-0.214193 -0.213464,-0.24231 -0.353988,-0.532609 -0.690609,-1.088186 -0.849893,-1.620652 -0.166488,-0.323407 -0.503013,-0.822277 -0.764753,-1.02815 -0.02592,0.03265 -0.694226,0.515957 -0.828717,0.62033 -0.163033,0.126515 -0.931724,0.559241 -0.999853,0.726536 -0.157508,0.386788 0.464763,0.792939 1.630972,1.327334 0.427253,0.195782 0.546869,0.510794 0.834197,0.782103 0.217445,0.313011 0.441034,0.503593 0.745286,0.841415 0.304241,0.337823 0.267625,0.276932 0.41458,0.442718 0.141902,0.160084 0.254074,0.188283 0.332171,0.223037 0.230725,0.102581 0.592585,-0.226673 0.70442,-0.377202 z m -10.67929,-4.211821 c -0.0178,0.01596 -0.04413,0.01746 -0.05857,0.0035 -0.01445,-0.01407 -0.0989,-0.04779 -0.187574,-0.07496 -0.229245,-0.07019 -0.357973,-0.121177 -0.52895,-0.209523 -0.08219,-0.04248 -0.16616,-0.08534 -0.186605,-0.09525 -0.260728,-0.126474 -0.761638,-0.450069 -0.940192,-0.607369 -0.151171,-0.133186 -0.428472,-0.371088 -0.491472,-0.421642 -0.03819,-0.03063 -0.07187,-0.0694 -0.07492,-0.08614 -0.0031,-0.01676 -0.06118,-0.08034 -0.12913,-0.141324 -0.250973,-0.225181 -0.881005,-1.076645 -0.971106,-1.312405 -0.02196,-0.05743 -0.05585,-0.118969 -0.07544,-0.136733 -0.01949,-0.01778 -0.08686,-0.152599 -0.149758,-0.299594 -0.0628,-0.147012 -0.144799,-0.331375 -0.182185,-0.409705 -0.09308,-0.19497 -0.365034,-1.666264 -0.355488,-1.924243 0.02389,-0.660631 0.03316,-0.805608 0.05383,-0.843415 0.01268,-0.02327 0.02983,-0.112717 0.03783,-0.198787 0.008,-0.08607 0.02218,-0.173169 0.03149,-0.193562 0.0092,-0.02039 0.02473,-0.09869 0.03442,-0.174004 0.0097,-0.07531 0.05056,-0.23626 0.09082,-0.357663 0.04018,-0.121392 0.09337,-0.283125 0.118082,-0.359388 0.04949,-0.152691 0.229908,-0.568539 0.323342,-0.74532 0.03275,-0.06203 0.08493,-0.162243 0.115867,-0.22266 0.822195,-1.154365 1.972936,-1.830864 0.835521,0.138382 -0.02079,0.01126 -0.0533,0.07176 -0.07232,0.134456 -0.01886,0.0627 -0.07701,0.19053 -0.129065,0.284087 -0.173881,0.312532 -0.391465,0.854306 -0.424532,1.057054 -0.01791,0.110295 -0.05157,0.250148 -0.07474,0.310778 -0.02305,0.06062 -0.03715,0.140198 -0.03107,0.176804 0.006,0.03662 -0.0034,0.153715 -0.02092,0.260213 -0.09747,0.59248 0.03242,1.719931 0.270651,2.349325 0.280905,0.742134 0.646694,1.330948 1.16166,1.869955 0.13802,0.144468 0.271443,0.28634 0.296478,0.315274 0.06009,0.06939 0.982415,0.718629 1.013436,0.713348 0.0132,-0.0022 0.06812,0.02436 0.122058,0.05913 0.299935,0.193476 1.083971,0.443318 1.583049,0.50445 0.142784,0.0175 0.329697,0.04025 0.415333,0.05057 0.430147,0.05183 1.441698,-0.07475 1.922915,-0.240621 0.720173,-0.24824 1.410329,-0.670027 1.975616,-1.207401 0.922694,-0.877117 1.488483,-2.107969 1.562815,-3.399775 0.0071,-0.123543 0.01743,-0.279294 0.023,-0.346115 0.0169,-0.204358 -0.118431,-1.066587 -0.222343,-1.416499 -0.100394,-0.337876 -0.346644,-0.925677 -0.45494,-1.08603 -0.03423,-0.05064 -0.0883,-0.141526 -0.120152,-0.201975 -0.101341,-0.192385 -0.65134,-0.900306 -0.739563,-0.952027 -0.0249,-0.01459 -0.186026,-0.148842 -0.358089,-0.298348 -0.361698,-0.314267 -0.461259,-0.386093 -0.796355,-0.574553 -0.134837,-0.07583 -0.270986,-0.154226 -0.30256,-0.174215 -0.04891,-0.03097 -0.450231,-0.19616 -0.622075,-0.256062 -0.122891,-0.04284 -0.531606,-0.151671 -0.557224,-0.148386 -0.01518,0.0019 -0.09194,-0.01526 -0.170636,-0.03819 -0.07864,-0.02293 -0.16525,-0.03852 -0.192442,-0.03459 -0.02719,0.004 -0.203878,-0.0045 -0.39262,-0.01882 -0.188743,-0.01432 -0.441636,-0.02312 -0.56197,-0.01954 -0.247707,0.0074 -1.395234,0.246361 -1.564904,0.325865 -0.06005,0.02814 -0.228884,0.104157 -0.375266,0.16894 -0.345751,0.153021 -0.616048,0.310423 -0.864142,0.503217 -0.2086,0.09377 -0.347754,0.255851 -0.476476,0.386653 -0.129898,0.112568 -0.269185,0.250282 -0.309529,0.306045 -1.198511,1.307584 -1.604684,0.442615 -0.643703,-0.517478 0.06233,-0.08513 0.247354,-0.259621 0.413969,-0.409215 0.08794,-0.07896 0.172823,-0.157977 0.188605,-0.175587 0.101895,-0.113689 0.757358,-0.548098 1.086154,-0.719847 0.58749,-0.306882 0.777871,-0.377948 1.40987,-0.52629 0.87774,-0.206028 1.57685,-0.224934 2.474009,-0.06692 0.133949,0.02359 0.261051,0.05236 0.28243,0.06405 0.02142,0.01167 0.120921,0.0335 0.221171,0.0486 0.100229,0.01513 0.192085,0.03849 0.204066,0.05202 0.01162,0.01359 0.138827,0.06088 0.281892,0.105249 0.143064,0.04437 0.278418,0.09746 0.300775,0.117969 0.02243,0.0205 0.167675,0.09479 0.322914,0.165064 0.155238,0.07028 0.33303,0.168193 0.395076,0.217588 0.06203,0.0494 0.162102,0.121137 0.222334,0.159439 0.215996,0.137349 0.616207,0.448719 0.895208,0.69649 0.08594,0.07637 0.595129,0.674303 0.600854,0.705654 0.0034,0.01834 0.02998,0.0536 0.05919,0.07834 0.152529,0.129172 0.612985,0.96034 0.83289,1.503464 0.136712,0.337691 0.389856,1.72935 0.377837,2.074427 -0.01877,0.517827 -0.07103,0.980966 -0.145645,1.290934 -0.104217,0.432979 -0.257284,0.929886 -0.322598,1.047301 -0.01152,0.0208 -0.07265,0.158874 -0.135731,0.306853 -0.06304,0.147972 -0.180351,0.372569 -0.260585,0.499087 -0.138542,0.218493 -0.142962,0.234187 -0.08812,0.312993 0.101303,0.145472 0.348185,0.606402 0.460256,0.859153 0.635983,0.620736 0.179662,0.390371 0.04735,0.584502 -0.0941,0.165836 -0.482722,0.540393 -0.494388,0.47651 -0.04108,-0.07124 -0.05178,0.01995 -0.06318,0.02434 0.0045,0.02489 -0.119934,0.156298 -0.276619,0.292036 -0.156697,0.135738 -0.314941,0.273348 -0.351663,0.3058 -0.187659,0.165863 -0.339113,0.267543 -0.384691,0.258275 -0.03069,-0.0063 -0.04728,0.0097 -0.04167,0.04036 0.01197,0.06555 -0.142283,0.12854 -0.314547,0.128437 -0.167665,-9.1e-5 -0.340923,-0.09509 -0.627516,-0.344063 -0.123659,-0.107414 -0.261721,-0.220646 -0.306805,-0.251616 -0.04506,-0.03099 -0.14222,-0.104684 -0.215841,-0.163806 -0.121426,-0.09753 -0.144523,-0.103675 -0.249017,-0.06635 -0.733572,0.262059 -1.596011,0.417593 -2.281134,0.411382 -0.242378,-0.0022 -0.457516,-0.01276 -0.478076,-0.02347 -0.02063,-0.01072 -0.122088,-0.02454 -0.225602,-0.03069 -0.103495,-0.0062 -0.231794,-0.02487 -0.285088,-0.04153 -0.740207,-0.0321 -0.254427,-1.38e-4 -0.707493,-0.180609 z m 5.79721,-0.121708 c 0.204622,-0.169118 0.445167,-0.365718 0.534544,-0.436889 0.08938,-0.07117 0.18119,-0.15214 0.204039,-0.179929 0.02285,-0.02778 0.09513,-0.09061 0.160635,-0.13959 0.242697,-0.181476 0.242734,-0.189835 0.0035,-0.629378 -0.115813,-0.212687 -0.226529,-0.398309 -0.246106,-0.41248 -0.031,-0.02238 -0.292525,0.203771 -0.390611,0.337731 -0.138288,0.09833 -0.255792,0.220861 -0.352454,0.338833 -0.0311,0.01761 -0.149348,0.114813 -0.262723,0.216 -0.113371,0.101185 -0.215607,0.185579 -0.227179,0.187549 -0.01153,0.002 -0.105923,0.06201 -0.209685,0.133443 -0.103752,0.07142 -0.240695,0.157523 -0.30433,0.191343 -0.139365,0.07407 -0.136808,0.145783 0.0093,0.260896 0.48226,0.379933 0.631629,0.483567 0.667722,0.463241 0.02274,-0.01281 0.208756,-0.161651 0.413379,-0.330765 z M 88.373032,22.312254 c -3.2e-5,1.3e-5 -6.8e-5,4e-6 -1.01e-4,7e-6 z"
         id="path1313"
         sodipodi:nodetypes="ccssccscccccsccccccscccsccscsssccccscssccccccccssscssccccccscscscccccccscscsccccsccccsscscscsscccccssssssccssssccccssssscscscscccscccsccccccccsccsssccsscscccssscccccssscsccsccc" />
      <g
         aria-label=" 010101 11101010 0101001010 1110101010 01101011  111011"
         id="text20085"
         style="font-size:1.41111px;line-height:1;stroke-width:0.264583">
        <path
           d="m 83.511873,23.745154 q 0,0.276296 -0.08682,0.405832 -0.08613,0.128846 -0.268028,0.128846 -0.184657,0 -0.270095,-0.130914 -0.08475,-0.130913 -0.08475,-0.402386 0,-0.273541 0.08613,-0.403765 0.08613,-0.130914 0.268717,-0.130914 0.184657,0 0.269406,0.132981 0.08544,0.132291 0.08544,0.40032 z m -0.181212,0.312814 q 0.02411,-0.05581 0.03238,-0.130913 0.009,-0.07579 0.009,-0.181901 0,-0.104731 -0.009,-0.181901 -0.0083,-0.07717 -0.03307,-0.130914 -0.02412,-0.05305 -0.06615,-0.07993 -0.04134,-0.02687 -0.106798,-0.02687 -0.06477,0 -0.107487,0.02687 -0.04203,0.02687 -0.06684,0.0813 -0.02343,0.05099 -0.03238,0.132981 -0.0083,0.08199 -0.0083,0.179834 0,0.107487 0.0076,0.179833 0.0076,0.07235 0.03238,0.129536 0.02274,0.05374 0.06408,0.08199 0.04203,0.02825 0.110932,0.02825 0.06477,0 0.107487,-0.02687 0.04272,-0.02687 0.06615,-0.0813 z"
           style="text-align:center;text-anchor:middle;fill:#b3b3b3"
           id="path929" />
        <path
           d="m 84.353164,24.258472 h -0.555349 v -0.10473 h 0.213596 v -0.687641 h -0.213596 v -0.09371 q 0.04341,0 0.09302,-0.0069 0.04961,-0.0076 0.0751,-0.02136 0.03169,-0.01723 0.04961,-0.04341 0.0186,-0.02687 0.02136,-0.07166 h 0.106798 v 0.924663 h 0.209461 z"
           style="text-align:center;text-anchor:middle;fill:#b3b3b3"
           id="path931" />
        <path
           d="m 85.308833,23.745154 q 0,0.276296 -0.08682,0.405832 -0.08613,0.128846 -0.268028,0.128846 -0.184657,0 -0.270096,-0.130914 -0.08475,-0.130913 -0.08475,-0.402386 0,-0.273541 0.08613,-0.403765 0.08613,-0.130914 0.268718,-0.130914 0.184656,0 0.269406,0.132981 0.08544,0.132291 0.08544,0.40032 z m -0.181212,0.312814 q 0.02412,-0.05581 0.03238,-0.130913 0.009,-0.07579 0.009,-0.181901 0,-0.104731 -0.009,-0.181901 -0.0083,-0.07717 -0.03307,-0.130914 -0.02411,-0.05305 -0.06615,-0.07993 -0.04134,-0.02687 -0.106797,-0.02687 -0.06477,0 -0.107487,0.02687 -0.04203,0.02687 -0.06683,0.0813 -0.02343,0.05099 -0.03238,0.132981 -0.0083,0.08199 -0.0083,0.179834 0,0.107487 0.0076,0.179833 0.0076,0.07235 0.03238,0.129536 0.02274,0.05374 0.06408,0.08199 0.04203,0.02825 0.110932,0.02825 0.06477,0 0.107486,-0.02687 0.04272,-0.02687 0.06615,-0.0813 z"
           style="text-align:center;text-anchor:middle;fill:#b3b3b3"
           id="path933" />
        <path
           d="m 86.150125,24.258472 h -0.555349 v -0.10473 h 0.213595 v -0.687641 h -0.213595 v -0.09371 q 0.04341,0 0.09302,-0.0069 0.04961,-0.0076 0.0751,-0.02136 0.03169,-0.01723 0.04961,-0.04341 0.0186,-0.02687 0.02136,-0.07166 h 0.106798 v 0.924663 h 0.209462 z"
           style="text-align:center;text-anchor:middle;fill:#b3b3b3"
           id="path935" />
        <path
           d="m 87.105794,23.745154 q 0,0.276296 -0.08682,0.405832 -0.08613,0.128846 -0.268028,0.128846 -0.184657,0 -0.270095,-0.130914 -0.08475,-0.130913 -0.08475,-0.402386 0,-0.273541 0.08613,-0.403765 0.08613,-0.130914 0.268717,-0.130914 0.184657,0 0.269406,0.132981 0.08544,0.132291 0.08544,0.40032 z m -0.181212,0.312814 q 0.02411,-0.05581 0.03238,-0.130913 0.009,-0.07579 0.009,-0.181901 0,-0.104731 -0.009,-0.181901 -0.0083,-0.07717 -0.03307,-0.130914 -0.02412,-0.05305 -0.06615,-0.07993 -0.04134,-0.02687 -0.106798,-0.02687 -0.06477,0 -0.107487,0.02687 -0.04203,0.02687 -0.06683,0.0813 -0.02343,0.05099 -0.03238,0.132981 -0.0083,0.08199 -0.0083,0.179834 0,0.107487 0.0076,0.179833 0.0076,0.07235 0.03238,0.129536 0.02274,0.05374 0.06408,0.08199 0.04203,0.02825 0.110932,0.02825 0.06477,0 0.107487,-0.02687 0.04272,-0.02687 0.06615,-0.0813 z"
           style="text-align:center;text-anchor:middle;fill:#b3b3b3"
           id="path937" />
        <path
           d="m 87.947085,24.258472 h -0.555349 v -0.10473 h 0.213596 v -0.687641 h -0.213596 v -0.09371 q 0.04341,0 0.09302,-0.0069 0.04961,-0.0076 0.0751,-0.02136 0.03169,-0.01723 0.04961,-0.04341 0.0186,-0.02687 0.02136,-0.07166 h 0.106797 v 0.924663 h 0.209462 z"
           style="text-align:center;text-anchor:middle;fill:#b3b3b3"
           id="path939" />
        <path
           d="m 82.308157,25.669582 h -0.555349 v -0.10473 h 0.213596 v -0.687641 h -0.213596 v -0.09371 q 0.04341,0 0.09302,-0.0069 0.04961,-0.0076 0.0751,-0.02136 0.03169,-0.01723 0.04961,-0.04341 0.0186,-0.02687 0.02136,-0.07166 h 0.106797 v 0.924663 h 0.209462 z"
           style="text-align:center;text-anchor:middle;fill:#b3b3b3"
           id="path941" />
        <path
           d="m 83.206637,25.669582 h -0.555349 v -0.10473 h 0.213596 v -0.687641 h -0.213596 v -0.09371 q 0.04341,0 0.09302,-0.0069 0.04961,-0.0076 0.0751,-0.02136 0.0317,-0.01723 0.04961,-0.04341 0.0186,-0.02687 0.02136,-0.07166 h 0.106798 v 0.924663 h 0.209461 z"
           style="text-align:center;text-anchor:middle;fill:#b3b3b3"
           id="path943" />
        <path
           d="m 84.105118,25.669582 h -0.555349 v -0.10473 h 0.213595 v -0.687641 h -0.213595 v -0.09371 q 0.04341,0 0.09302,-0.0069 0.04961,-0.0076 0.0751,-0.02136 0.03169,-0.01723 0.04961,-0.04341 0.0186,-0.02687 0.02136,-0.07166 h 0.106798 v 0.924663 h 0.209462 z"
           style="text-align:center;text-anchor:middle;fill:#b3b3b3"
           id="path945" />
        <path
           d="m 85.060786,25.156264 q 0,0.276296 -0.08682,0.405832 -0.08613,0.128846 -0.268028,0.128846 -0.184657,0 -0.270095,-0.130913 -0.08475,-0.130914 -0.08475,-0.402387 0,-0.273541 0.08613,-0.403765 0.08613,-0.130914 0.268717,-0.130914 0.184657,0 0.269406,0.132981 0.08544,0.132291 0.08544,0.40032 z m -0.181211,0.312814 q 0.02411,-0.05581 0.03238,-0.130913 0.009,-0.07579 0.009,-0.181901 0,-0.104731 -0.009,-0.181901 -0.0083,-0.07717 -0.03307,-0.130914 -0.02412,-0.05305 -0.06615,-0.07993 -0.04134,-0.02687 -0.106798,-0.02687 -0.06477,0 -0.107487,0.02687 -0.04203,0.02687 -0.06683,0.0813 -0.02343,0.05099 -0.03238,0.132981 -0.0083,0.08199 -0.0083,0.179834 0,0.107487 0.0076,0.179834 0.0076,0.07235 0.03238,0.129535 0.02274,0.05374 0.06408,0.08199 0.04203,0.02825 0.110932,0.02825 0.06477,0 0.107487,-0.02687 0.04272,-0.02687 0.06615,-0.0813 z"
           style="text-align:center;text-anchor:middle;fill:#b3b3b3"
           id="path947" />
        <path
           d="m 85.902078,25.669582 h -0.555349 v -0.10473 h 0.213596 v -0.687641 h -0.213596 v -0.09371 q 0.04341,0 0.09302,-0.0069 0.04961,-0.0076 0.0751,-0.02136 0.03169,-0.01723 0.04961,-0.04341 0.0186,-0.02687 0.02136,-0.07166 h 0.106797 v 0.924663 h 0.209462 z"
           style="text-align:center;text-anchor:middle;fill:#b3b3b3"
           id="path949" />
        <path
           d="m 86.857747,25.156264 q 0,0.276296 -0.08682,0.405832 -0.08613,0.128846 -0.268028,0.128846 -0.184657,0 -0.270095,-0.130913 -0.08475,-0.130914 -0.08475,-0.402387 0,-0.273541 0.08613,-0.403765 0.08613,-0.130914 0.268717,-0.130914 0.184657,0 0.269406,0.132981 0.08544,0.132291 0.08544,0.40032 z m -0.181212,0.312814 q 0.02412,-0.05581 0.03238,-0.130913 0.009,-0.07579 0.009,-0.181901 0,-0.104731 -0.009,-0.181901 -0.0083,-0.07717 -0.03307,-0.130914 -0.02412,-0.05305 -0.06615,-0.07993 -0.04134,-0.02687 -0.106798,-0.02687 -0.06477,0 -0.107487,0.02687 -0.04203,0.02687 -0.06683,0.0813 -0.02343,0.05099 -0.03238,0.132981 -0.0083,0.08199 -0.0083,0.179834 0,0.107487 0.0076,0.179834 0.0076,0.07235 0.03238,0.129535 0.02274,0.05374 0.06408,0.08199 0.04203,0.02825 0.110932,0.02825 0.06477,0 0.107487,-0.02687 0.04272,-0.02687 0.06615,-0.0813 z"
           style="text-align:center;text-anchor:middle;fill:#b3b3b3"
           id="path951" />
        <path
           d="M 87.699039,25.669582 H 87.14369 v -0.10473 h 0.213595 V 24.877211 H 87.14369 v -0.09371 q 0.04341,0 0.09302,-0.0069 0.04961,-0.0076 0.0751,-0.02136 0.03169,-0.01723 0.04961,-0.04341 0.0186,-0.02687 0.02136,-0.07166 h 0.106798 v 0.924663 h 0.209462 z"
           style="text-align:center;text-anchor:middle;fill:#b3b3b3"
           id="path953" />
        <path
           d="m 88.654707,25.156264 q 0,0.276296 -0.08682,0.405832 -0.08613,0.128846 -0.268028,0.128846 -0.184657,0 -0.270096,-0.130913 -0.08475,-0.130914 -0.08475,-0.402387 0,-0.273541 0.08613,-0.403765 0.08613,-0.130914 0.268718,-0.130914 0.184657,0 0.269406,0.132981 0.08544,0.132291 0.08544,0.40032 z m -0.181212,0.312814 q 0.02412,-0.05581 0.03238,-0.130913 0.009,-0.07579 0.009,-0.181901 0,-0.104731 -0.009,-0.181901 -0.0083,-0.07717 -0.03307,-0.130914 -0.02412,-0.05305 -0.06615,-0.07993 -0.04134,-0.02687 -0.106797,-0.02687 -0.06477,0 -0.107487,0.02687 -0.04203,0.02687 -0.06683,0.0813 -0.02343,0.05099 -0.03238,0.132981 -0.0083,0.08199 -0.0083,0.179834 0,0.107487 0.0076,0.179834 0.0076,0.07235 0.03238,0.129535 0.02274,0.05374 0.06408,0.08199 0.04203,0.02825 0.110932,0.02825 0.06477,0 0.107486,-0.02687 0.04272,-0.02687 0.06615,-0.0813 z"
           style="text-align:center;text-anchor:middle;fill:#b3b3b3"
           id="path955" />
        <path
           d="m 81.466865,26.567374 q 0,0.276296 -0.08682,0.405832 -0.08613,0.128846 -0.268028,0.128846 -0.184657,0 -0.270095,-0.130913 -0.08475,-0.130914 -0.08475,-0.402387 0,-0.273541 0.08613,-0.403765 0.08613,-0.130914 0.268717,-0.130914 0.184657,0 0.269406,0.132981 0.08544,0.132291 0.08544,0.40032 z m -0.181211,0.312814 q 0.02412,-0.05581 0.03238,-0.130913 0.009,-0.07579 0.009,-0.181901 0,-0.104731 -0.009,-0.181901 -0.0083,-0.07717 -0.03307,-0.130914 -0.02412,-0.05305 -0.06615,-0.07993 -0.04134,-0.02687 -0.106798,-0.02687 -0.06477,0 -0.107487,0.02687 -0.04203,0.02687 -0.06684,0.0813 -0.02343,0.05099 -0.03238,0.132981 -0.0083,0.08199 -0.0083,0.179834 0,0.107487 0.0076,0.179834 0.0076,0.07235 0.03238,0.129535 0.02274,0.05374 0.06408,0.08199 0.04203,0.02825 0.110932,0.02825 0.06477,0 0.107487,-0.02687 0.04272,-0.02687 0.06615,-0.0813 z"
           style="text-align:center;text-anchor:middle;fill:#b3b3b3"
           id="path957" />
        <path
           d="m 82.308157,27.080693 h -0.555349 v -0.104731 h 0.213596 v -0.687641 h -0.213596 v -0.09371 q 0.04341,0 0.09302,-0.0069 0.04961,-0.0076 0.0751,-0.02136 0.03169,-0.01723 0.04961,-0.04341 0.0186,-0.02687 0.02136,-0.07166 h 0.106797 v 0.924663 h 0.209462 z"
           style="text-align:center;text-anchor:middle;fill:#b3b3b3"
           id="path959" />
        <path
           d="m 83.263826,26.567374 q 0,0.276296 -0.08682,0.405832 -0.08613,0.128846 -0.268029,0.128846 -0.184657,0 -0.270095,-0.130913 -0.08475,-0.130914 -0.08475,-0.402387 0,-0.273541 0.08613,-0.403765 0.08613,-0.130914 0.268717,-0.130914 0.184657,0 0.269407,0.132981 0.08544,0.132291 0.08544,0.40032 z m -0.181212,0.312814 q 0.02412,-0.05581 0.03238,-0.130913 0.009,-0.07579 0.009,-0.181901 0,-0.104731 -0.009,-0.181901 -0.0083,-0.07717 -0.03307,-0.130914 -0.02412,-0.05305 -0.06615,-0.07993 -0.04134,-0.02687 -0.106798,-0.02687 -0.06477,0 -0.107487,0.02687 -0.04203,0.02687 -0.06683,0.0813 -0.02343,0.05099 -0.03238,0.132981 -0.0083,0.08199 -0.0083,0.179834 0,0.107487 0.0076,0.179834 0.0076,0.07235 0.03238,0.129535 0.02274,0.05374 0.06408,0.08199 0.04203,0.02825 0.110932,0.02825 0.06477,0 0.107487,-0.02687 0.04272,-0.02687 0.06615,-0.0813 z"
           style="text-align:center;text-anchor:middle;fill:#b3b3b3"
           id="path961" />
        <path
           d="m 84.105118,27.080693 h -0.555349 v -0.104731 h 0.213595 v -0.687641 h -0.213595 v -0.09371 q 0.04341,0 0.09302,-0.0069 0.04961,-0.0076 0.0751,-0.02136 0.03169,-0.01723 0.04961,-0.04341 0.0186,-0.02687 0.02136,-0.07166 h 0.106798 v 0.924663 h 0.209462 z"
           style="text-align:center;text-anchor:middle;fill:#b3b3b3"
           id="path963" />
        <path
           d="m 85.060786,26.567374 q 0,0.276296 -0.08682,0.405832 -0.08613,0.128846 -0.268028,0.128846 -0.184657,0 -0.270095,-0.130913 -0.08475,-0.130914 -0.08475,-0.402387 0,-0.273541 0.08613,-0.403765 0.08613,-0.130914 0.268717,-0.130914 0.184657,0 0.269406,0.132981 0.08544,0.132291 0.08544,0.40032 z m -0.181211,0.312814 q 0.02411,-0.05581 0.03238,-0.130913 0.009,-0.07579 0.009,-0.181901 0,-0.104731 -0.009,-0.181901 -0.0083,-0.07717 -0.03307,-0.130914 -0.02411,-0.05305 -0.06614,-0.07993 -0.04134,-0.02687 -0.106798,-0.02687 -0.06477,0 -0.107487,0.02687 -0.04203,0.02687 -0.06683,0.0813 -0.02343,0.05099 -0.03238,0.132981 -0.0083,0.08199 -0.0083,0.179834 0,0.107487 0.0076,0.179834 0.0076,0.07235 0.03238,0.129535 0.02274,0.05374 0.06408,0.08199 0.04203,0.02825 0.110932,0.02825 0.06477,0 0.107487,-0.02687 0.04272,-0.02687 0.06615,-0.0813 z"
           style="text-align:center;text-anchor:middle;fill:#b3b3b3"
           id="path965" />
        <path
           d="m 85.959267,26.567374 q 0,0.276296 -0.08682,0.405832 -0.08613,0.128846 -0.268028,0.128846 -0.184657,0 -0.270095,-0.130913 -0.08475,-0.130914 -0.08475,-0.402387 0,-0.273541 0.08613,-0.403765 0.08613,-0.130914 0.268717,-0.130914 0.184657,0 0.269406,0.132981 0.08544,0.132291 0.08544,0.40032 z m -0.181212,0.312814 q 0.02412,-0.05581 0.03238,-0.130913 0.009,-0.07579 0.009,-0.181901 0,-0.104731 -0.009,-0.181901 -0.0083,-0.07717 -0.03307,-0.130914 -0.02412,-0.05305 -0.06615,-0.07993 -0.04134,-0.02687 -0.106798,-0.02687 -0.06477,0 -0.107487,0.02687 -0.04203,0.02687 -0.06683,0.0813 -0.02343,0.05099 -0.03238,0.132981 -0.0083,0.08199 -0.0083,0.179834 0,0.107487 0.0076,0.179834 0.0076,0.07235 0.03238,0.129535 0.02274,0.05374 0.06408,0.08199 0.04203,0.02825 0.110932,0.02825 0.06477,0 0.107487,-0.02687 0.04272,-0.02687 0.06615,-0.0813 z"
           style="text-align:center;text-anchor:middle;fill:#b3b3b3"
           id="path967" />
        <path
           d="m 86.800558,27.080693 h -0.555349 v -0.104731 h 0.213596 v -0.687641 h -0.213596 v -0.09371 q 0.04341,0 0.09302,-0.0069 0.04961,-0.0076 0.0751,-0.02136 0.03169,-0.01723 0.04961,-0.04341 0.0186,-0.02687 0.02136,-0.07166 h 0.106798 v 0.924663 h 0.209461 z"
           style="text-align:center;text-anchor:middle;fill:#b3b3b3"
           id="path969" />
        <path
           d="m 87.756227,26.567374 q 0,0.276296 -0.08682,0.405832 -0.08613,0.128846 -0.268029,0.128846 -0.184657,0 -0.270095,-0.130913 -0.08475,-0.130914 -0.08475,-0.402387 0,-0.273541 0.08613,-0.403765 0.08613,-0.130914 0.268717,-0.130914 0.184657,0 0.269407,0.132981 0.08544,0.132291 0.08544,0.40032 z m -0.181212,0.312814 q 0.02412,-0.05581 0.03238,-0.130913 0.009,-0.07579 0.009,-0.181901 0,-0.104731 -0.009,-0.181901 -0.0083,-0.07717 -0.03307,-0.130914 -0.02412,-0.05305 -0.06615,-0.07993 -0.04134,-0.02687 -0.106798,-0.02687 -0.06477,0 -0.107487,0.02687 -0.04203,0.02687 -0.06683,0.0813 -0.02343,0.05099 -0.03238,0.132981 -0.0083,0.08199 -0.0083,0.179834 0,0.107487 0.0076,0.179834 0.0076,0.07235 0.03238,0.129535 0.02274,0.05374 0.06408,0.08199 0.04203,0.02825 0.110932,0.02825 0.06477,0 0.107487,-0.02687 0.04272,-0.02687 0.06615,-0.0813 z"
           style="text-align:center;text-anchor:middle;fill:#b3b3b3"
           id="path971" />
        <path
           d="M 88.597519,27.080693 H 88.04217 v -0.104731 h 0.213596 V 26.288321 H 88.04217 v -0.09371 q 0.04341,0 0.09302,-0.0069 0.04961,-0.0076 0.0751,-0.02136 0.03169,-0.01723 0.04961,-0.04341 0.0186,-0.02687 0.02136,-0.07166 h 0.106798 v 0.924663 h 0.209462 z"
           style="text-align:center;text-anchor:middle;fill:#b3b3b3"
           id="path973" />
        <path
           d="m 89.553187,26.567374 q 0,0.276296 -0.08682,0.405832 -0.08613,0.128846 -0.268028,0.128846 -0.184657,0 -0.270096,-0.130913 -0.08475,-0.130914 -0.08475,-0.402387 0,-0.273541 0.08613,-0.403765 0.08613,-0.130914 0.268718,-0.130914 0.184657,0 0.269406,0.132981 0.08544,0.132291 0.08544,0.40032 z m -0.181212,0.312814 q 0.02412,-0.05581 0.03238,-0.130913 0.009,-0.07579 0.009,-0.181901 0,-0.104731 -0.009,-0.181901 -0.0083,-0.07717 -0.03307,-0.130914 -0.02411,-0.05305 -0.06614,-0.07993 -0.04134,-0.02687 -0.106798,-0.02687 -0.06477,0 -0.107487,0.02687 -0.04203,0.02687 -0.06683,0.0813 -0.02343,0.05099 -0.03238,0.132981 -0.0083,0.08199 -0.0083,0.179834 0,0.107487 0.0076,0.179834 0.0076,0.07235 0.03238,0.129535 0.02274,0.05374 0.06408,0.08199 0.04203,0.02825 0.110932,0.02825 0.06477,0 0.107487,-0.02687 0.04272,-0.02687 0.06615,-0.0813 z"
           style="text-align:center;text-anchor:middle;fill:#b3b3b3"
           id="path975" />
        <path
           d="m 81.409677,28.491803 h -0.555349 v -0.104731 h 0.213596 v -0.687641 h -0.213596 v -0.09371 q 0.04341,0 0.09302,-0.0069 0.04961,-0.0076 0.0751,-0.02136 0.03169,-0.01723 0.04961,-0.04341 0.0186,-0.02687 0.02136,-0.07166 h 0.106798 v 0.924663 h 0.209462 z"
           style="text-align:center;text-anchor:middle;fill:#b3b3b3"
           id="path977" />
        <path
           d="m 82.308157,28.491803 h -0.555349 v -0.104731 h 0.213596 v -0.687641 h -0.213596 v -0.09371 q 0.04341,0 0.09302,-0.0069 0.04961,-0.0076 0.0751,-0.02136 0.03169,-0.01723 0.04961,-0.04341 0.0186,-0.02687 0.02136,-0.07166 h 0.106797 v 0.924663 h 0.209462 z"
           style="text-align:center;text-anchor:middle;fill:#b3b3b3"
           id="path979" />
        <path
           d="m 83.206637,28.491803 h -0.555349 v -0.104731 h 0.213596 v -0.687641 h -0.213596 v -0.09371 q 0.04341,0 0.09302,-0.0069 0.04961,-0.0076 0.0751,-0.02136 0.0317,-0.01723 0.04961,-0.04341 0.0186,-0.02687 0.02136,-0.07166 h 0.106798 v 0.924663 h 0.209461 z"
           style="text-align:center;text-anchor:middle;fill:#b3b3b3"
           id="path981" />
        <path
           d="m 84.162306,27.978484 q 0,0.276296 -0.08682,0.405832 -0.08613,0.128846 -0.268028,0.128846 -0.184657,0 -0.270096,-0.130913 -0.08475,-0.130914 -0.08475,-0.402387 0,-0.273541 0.08613,-0.403765 0.08613,-0.130914 0.268718,-0.130914 0.184657,0 0.269406,0.132981 0.08544,0.132292 0.08544,0.40032 z m -0.181212,0.312814 q 0.02412,-0.05581 0.03238,-0.130913 0.009,-0.07579 0.009,-0.181901 0,-0.104731 -0.009,-0.181901 -0.0083,-0.07717 -0.03307,-0.130914 -0.02412,-0.05305 -0.06615,-0.07993 -0.04134,-0.02687 -0.106798,-0.02687 -0.06477,0 -0.107487,0.02687 -0.04203,0.02687 -0.06683,0.0813 -0.02343,0.05099 -0.03238,0.132981 -0.0083,0.08199 -0.0083,0.179834 0,0.107487 0.0076,0.179834 0.0076,0.07235 0.03238,0.129535 0.02274,0.05374 0.06408,0.08199 0.04203,0.02825 0.110932,0.02825 0.06477,0 0.107487,-0.02687 0.04272,-0.02687 0.06615,-0.0813 z"
           style="text-align:center;text-anchor:middle;fill:#b3b3b3"
           id="path983" />
        <path
           d="m 85.003598,28.491803 h -0.555349 v -0.104731 h 0.213596 v -0.687641 h -0.213596 v -0.09371 q 0.04341,0 0.09302,-0.0069 0.04961,-0.0076 0.0751,-0.02136 0.03169,-0.01723 0.04961,-0.04341 0.0186,-0.02687 0.02136,-0.07166 h 0.106798 v 0.924663 h 0.209462 z"
           style="text-align:center;text-anchor:middle;fill:#b3b3b3"
           id="path985" />
        <path
           d="m 85.959267,27.978484 q 0,0.276296 -0.08682,0.405832 -0.08613,0.128846 -0.268028,0.128846 -0.184657,0 -0.270095,-0.130913 -0.08475,-0.130914 -0.08475,-0.402387 0,-0.273541 0.08613,-0.403765 0.08613,-0.130914 0.268717,-0.130914 0.184657,0 0.269406,0.132981 0.08544,0.132292 0.08544,0.40032 z m -0.181212,0.312814 q 0.02412,-0.05581 0.03238,-0.130913 0.009,-0.07579 0.009,-0.181901 0,-0.104731 -0.009,-0.181901 -0.0083,-0.07717 -0.03307,-0.130914 -0.02412,-0.05305 -0.06615,-0.07993 -0.04134,-0.02687 -0.106798,-0.02687 -0.06477,0 -0.107487,0.02687 -0.04203,0.02687 -0.06683,0.0813 -0.02343,0.05099 -0.03238,0.132981 -0.0083,0.08199 -0.0083,0.179834 0,0.107487 0.0076,0.179834 0.0076,0.07235 0.03238,0.129535 0.02274,0.05374 0.06408,0.08199 0.04203,0.02825 0.110932,0.02825 0.06477,0 0.107487,-0.02687 0.04272,-0.02687 0.06615,-0.0813 z"
           style="text-align:center;text-anchor:middle;fill:#b3b3b3"
           id="path987" />
        <path
           d="m 86.800558,28.491803 h -0.555349 v -0.104731 h 0.213596 v -0.687641 h -0.213596 v -0.09371 q 0.04341,0 0.09302,-0.0069 0.04961,-0.0076 0.0751,-0.02136 0.03169,-0.01723 0.04961,-0.04341 0.0186,-0.02687 0.02136,-0.07166 h 0.106798 v 0.924663 h 0.209461 z"
           style="text-align:center;text-anchor:middle;fill:#b3b3b3"
           id="path989" />
        <path
           d="m 87.756227,27.978484 q 0,0.276296 -0.08682,0.405832 -0.08613,0.128846 -0.268029,0.128846 -0.184657,0 -0.270095,-0.130913 -0.08475,-0.130914 -0.08475,-0.402387 0,-0.273541 0.08613,-0.403765 0.08613,-0.130914 0.268717,-0.130914 0.184657,0 0.269407,0.132981 0.08544,0.132292 0.08544,0.40032 z m -0.181212,0.312814 q 0.02412,-0.05581 0.03238,-0.130913 0.009,-0.07579 0.009,-0.181901 0,-0.104731 -0.009,-0.181901 -0.0083,-0.07717 -0.03307,-0.130914 -0.02412,-0.05305 -0.06615,-0.07993 -0.04134,-0.02687 -0.106798,-0.02687 -0.06477,0 -0.107487,0.02687 -0.04203,0.02687 -0.06683,0.0813 -0.02343,0.05099 -0.03238,0.132981 -0.0083,0.08199 -0.0083,0.179834 0,0.107487 0.0076,0.179834 0.0076,0.07235 0.03238,0.129535 0.02274,0.05374 0.06408,0.08199 0.04203,0.02825 0.110932,0.02825 0.06477,0 0.107487,-0.02687 0.04272,-0.02687 0.06615,-0.0813 z"
           style="text-align:center;text-anchor:middle;fill:#b3b3b3"
           id="path991" />
        <path
           d="M 88.597519,28.491803 H 88.04217 v -0.104731 h 0.213596 V 27.699431 H 88.04217 v -0.09371 q 0.04341,0 0.09302,-0.0069 0.04961,-0.0076 0.0751,-0.02136 0.03169,-0.01723 0.04961,-0.04341 0.0186,-0.02687 0.02136,-0.07166 h 0.106798 v 0.924663 h 0.209462 z"
           style="text-align:center;text-anchor:middle;fill:#b3b3b3"
           id="path993" />
        <path
           d="m 89.553187,27.978484 q 0,0.276296 -0.08682,0.405832 -0.08613,0.128846 -0.268028,0.128846 -0.184657,0 -0.270096,-0.130913 -0.08475,-0.130914 -0.08475,-0.402387 0,-0.273541 0.08613,-0.403765 0.08613,-0.130914 0.268718,-0.130914 0.184657,0 0.269406,0.132981 0.08544,0.132292 0.08544,0.40032 z m -0.181212,0.312814 q 0.02412,-0.05581 0.03238,-0.130913 0.009,-0.07579 0.009,-0.181901 0,-0.104731 -0.009,-0.181901 -0.0083,-0.07717 -0.03307,-0.130914 -0.02411,-0.05305 -0.06614,-0.07993 -0.04134,-0.02687 -0.106798,-0.02687 -0.06477,0 -0.107487,0.02687 -0.04203,0.02687 -0.06683,0.0813 -0.02343,0.05099 -0.03238,0.132981 -0.0083,0.08199 -0.0083,0.179834 0,0.107487 0.0076,0.179834 0.0076,0.07235 0.03238,0.129535 0.02274,0.05374 0.06408,0.08199 0.04203,0.02825 0.110932,0.02825 0.06477,0 0.107487,-0.02687 0.04272,-0.02687 0.06615,-0.0813 z"
           style="text-align:center;text-anchor:middle;fill:#b3b3b3"
           id="path995" />
        <path
           d="m 82.365346,29.389594 q 0,0.276296 -0.08682,0.405832 -0.08613,0.128846 -0.268028,0.128846 -0.184657,0 -0.270095,-0.130913 -0.08475,-0.130914 -0.08475,-0.402387 0,-0.273541 0.08613,-0.403765 0.08613,-0.130914 0.268717,-0.130914 0.184657,0 0.269406,0.132981 0.08544,0.132292 0.08544,0.40032 z m -0.181212,0.312814 q 0.02411,-0.05581 0.03238,-0.130913 0.009,-0.07579 0.009,-0.181901 0,-0.104731 -0.009,-0.181901 -0.0083,-0.07717 -0.03307,-0.130914 -0.02412,-0.05305 -0.06615,-0.07993 -0.04134,-0.02687 -0.106798,-0.02687 -0.06477,0 -0.107487,0.02687 -0.04203,0.02687 -0.06683,0.0813 -0.02343,0.05099 -0.03238,0.132981 -0.0083,0.08199 -0.0083,0.179834 0,0.107487 0.0076,0.179834 0.0076,0.07235 0.03238,0.129535 0.02274,0.05374 0.06408,0.08199 0.04203,0.02825 0.110932,0.02825 0.06477,0 0.107487,-0.02687 0.04272,-0.02687 0.06615,-0.0813 z"
           style="text-align:center;text-anchor:middle;fill:#b3b3b3"
           id="path997" />
        <path
           d="m 83.206637,29.902913 h -0.555349 v -0.104731 h 0.213596 v -0.687641 h -0.213596 v -0.09371 q 0.04341,0 0.09302,-0.0069 0.04961,-0.0076 0.0751,-0.02136 0.0317,-0.01722 0.04961,-0.04341 0.0186,-0.02687 0.02136,-0.07166 h 0.106798 v 0.924663 h 0.209461 z"
           style="text-align:center;text-anchor:middle;fill:#b3b3b3"
           id="path999" />
        <path
           d="m 84.105118,29.902913 h -0.555349 v -0.104731 h 0.213595 v -0.687641 h -0.213595 v -0.09371 q 0.04341,0 0.09302,-0.0069 0.04961,-0.0076 0.0751,-0.02136 0.03169,-0.01722 0.04961,-0.04341 0.0186,-0.02687 0.02136,-0.07166 h 0.106798 v 0.924663 h 0.209462 z"
           style="text-align:center;text-anchor:middle;fill:#b3b3b3"
           id="path1001" />
        <path
           d="m 85.060786,29.389594 q 0,0.276296 -0.08682,0.405832 -0.08613,0.128846 -0.268028,0.128846 -0.184657,0 -0.270095,-0.130913 -0.08475,-0.130914 -0.08475,-0.402387 0,-0.273541 0.08613,-0.403765 0.08613,-0.130914 0.268717,-0.130914 0.184657,0 0.269406,0.132981 0.08544,0.132292 0.08544,0.40032 z m -0.181211,0.312814 q 0.02411,-0.05581 0.03238,-0.130913 0.009,-0.07579 0.009,-0.181901 0,-0.104731 -0.009,-0.181901 -0.0083,-0.07717 -0.03307,-0.130914 -0.02412,-0.05305 -0.06615,-0.07993 -0.04134,-0.02687 -0.106798,-0.02687 -0.06477,0 -0.107487,0.02687 -0.04203,0.02687 -0.06683,0.0813 -0.02343,0.05099 -0.03238,0.132981 -0.0083,0.08199 -0.0083,0.179834 0,0.107487 0.0076,0.179834 0.0076,0.07235 0.03238,0.129535 0.02274,0.05374 0.06408,0.08199 0.04203,0.02825 0.110932,0.02825 0.06477,0 0.107487,-0.02687 0.04272,-0.02687 0.06615,-0.0813 z"
           style="text-align:center;text-anchor:middle;fill:#b3b3b3"
           id="path1003" />
        <path
           d="m 85.902078,29.902913 h -0.555349 v -0.104731 h 0.213596 v -0.687641 h -0.213596 v -0.09371 q 0.04341,0 0.09302,-0.0069 0.04961,-0.0076 0.0751,-0.02136 0.03169,-0.01722 0.04961,-0.04341 0.0186,-0.02687 0.02136,-0.07166 h 0.106797 v 0.924663 h 0.209462 z"
           style="text-align:center;text-anchor:middle;fill:#b3b3b3"
           id="path1005" />
        <path
           d="m 86.857747,29.389594 q 0,0.276296 -0.08682,0.405832 -0.08613,0.128846 -0.268028,0.128846 -0.184657,0 -0.270095,-0.130913 -0.08475,-0.130914 -0.08475,-0.402387 0,-0.273541 0.08613,-0.403765 0.08613,-0.130914 0.268717,-0.130914 0.184657,0 0.269406,0.132981 0.08544,0.132292 0.08544,0.40032 z m -0.181212,0.312814 q 0.02412,-0.05581 0.03238,-0.130913 0.009,-0.07579 0.009,-0.181901 0,-0.104731 -0.009,-0.181901 -0.0083,-0.07717 -0.03307,-0.130914 -0.02412,-0.05305 -0.06615,-0.07993 -0.04134,-0.02687 -0.106798,-0.02687 -0.06477,0 -0.107487,0.02687 -0.04203,0.02687 -0.06683,0.0813 -0.02343,0.05099 -0.03238,0.132981 -0.0083,0.08199 -0.0083,0.179834 0,0.107487 0.0076,0.179834 0.0076,0.07235 0.03238,0.129535 0.02274,0.05374 0.06408,0.08199 0.04203,0.02825 0.110932,0.02825 0.06477,0 0.107487,-0.02687 0.04272,-0.02687 0.06615,-0.0813 z"
           style="text-align:center;text-anchor:middle;fill:#b3b3b3"
           id="path1007" />
        <path
           d="M 87.699039,29.902913 H 87.14369 v -0.104731 h 0.213595 V 29.110541 H 87.14369 v -0.09371 q 0.04341,0 0.09302,-0.0069 0.04961,-0.0076 0.0751,-0.02136 0.03169,-0.01722 0.04961,-0.04341 0.0186,-0.02687 0.02136,-0.07166 h 0.106798 v 0.924663 h 0.209462 z"
           style="text-align:center;text-anchor:middle;fill:#b3b3b3"
           id="path1009" />
        <path
           d="M 88.597519,29.902913 H 88.04217 v -0.104731 h 0.213595 V 29.110541 H 88.04217 v -0.09371 q 0.04341,0 0.09302,-0.0069 0.04961,-0.0076 0.0751,-0.02136 0.03169,-0.01722 0.04961,-0.04341 0.0186,-0.02687 0.02136,-0.07166 h 0.106798 v 0.924663 h 0.209462 z"
           style="text-align:center;text-anchor:middle;fill:#b3b3b3"
           id="path1011" />
        <path
           d="m 83.454684,31.314023 h -0.555349 v -0.104731 h 0.213596 v -0.687641 h -0.213596 v -0.09371 q 0.04341,0 0.09302,-0.0069 0.04961,-0.0076 0.0751,-0.02136 0.03169,-0.01722 0.04961,-0.04341 0.0186,-0.02687 0.02136,-0.07166 h 0.106797 v 0.924663 h 0.209462 z"
           style="text-align:center;text-anchor:middle;fill:#b3b3b3"
           id="path1013" />
        <path
           d="m 84.353164,31.314023 h -0.555349 v -0.104731 h 0.213596 v -0.687641 h -0.213596 v -0.09371 q 0.04341,0 0.09302,-0.0069 0.04961,-0.0076 0.0751,-0.02136 0.03169,-0.01722 0.04961,-0.04341 0.0186,-0.02687 0.02136,-0.07166 h 0.106798 v 0.924663 h 0.209461 z"
           style="text-align:center;text-anchor:middle;fill:#b3b3b3"
           id="path1015" />
        <path
           d="m 85.251645,31.314023 h -0.555349 v -0.104731 h 0.213595 v -0.687641 h -0.213595 v -0.09371 q 0.04341,0 0.09302,-0.0069 0.04961,-0.0076 0.0751,-0.02136 0.03169,-0.01722 0.04961,-0.04341 0.0186,-0.02687 0.02136,-0.07166 h 0.106798 v 0.924663 h 0.209462 z"
           style="text-align:center;text-anchor:middle;fill:#b3b3b3"
           id="path1017" />
        <path
           d="m 86.207313,30.800704 q 0,0.276296 -0.08682,0.405832 -0.08613,0.128846 -0.268028,0.128846 -0.184657,0 -0.270096,-0.130913 -0.08475,-0.130914 -0.08475,-0.402387 0,-0.273541 0.08613,-0.403765 0.08613,-0.130914 0.268718,-0.130914 0.184657,0 0.269406,0.132981 0.08544,0.132292 0.08544,0.40032 z m -0.181212,0.312814 q 0.02412,-0.05581 0.03238,-0.130913 0.009,-0.07579 0.009,-0.181901 0,-0.104731 -0.009,-0.181901 -0.0083,-0.07717 -0.03307,-0.130914 -0.02412,-0.05305 -0.06615,-0.07993 -0.04134,-0.02687 -0.106798,-0.02687 -0.06477,0 -0.107487,0.02687 -0.04203,0.02687 -0.06683,0.0813 -0.02343,0.05099 -0.03238,0.132981 -0.0083,0.08199 -0.0083,0.179834 0,0.107487 0.0076,0.179834 0.0076,0.07235 0.03238,0.129535 0.02274,0.05374 0.06408,0.08199 0.04203,0.02825 0.110932,0.02825 0.06477,0 0.107487,-0.02687 0.04272,-0.02687 0.06614,-0.0813 z"
           style="text-align:center;text-anchor:middle;fill:#b3b3b3"
           id="path1019" />
        <path
           d="m 87.048605,31.314023 h -0.555349 v -0.104731 h 0.213596 v -0.687641 h -0.213596 v -0.09371 q 0.04341,0 0.09302,-0.0069 0.04961,-0.0076 0.0751,-0.02136 0.03169,-0.01722 0.04961,-0.04341 0.0186,-0.02687 0.02136,-0.07166 h 0.106797 v 0.924663 h 0.209462 z"
           style="text-align:center;text-anchor:middle;fill:#b3b3b3"
           id="path1021" />
        <path
           d="m 87.947085,31.314023 h -0.555349 v -0.104731 h 0.213596 v -0.687641 h -0.213596 v -0.09371 q 0.04341,0 0.09302,-0.0069 0.04961,-0.0076 0.0751,-0.02136 0.03169,-0.01722 0.04961,-0.04341 0.0186,-0.02687 0.02136,-0.07166 h 0.106797 v 0.924663 h 0.209462 z"
           style="text-align:center;text-anchor:middle;fill:#b3b3b3"
           id="path1023" />
      </g>
    </g>
  </g>
</svg>
